G04 #@! TF.GenerationSoftware,KiCad,Pcbnew,(5.1.4)-1*
G04 #@! TF.CreationDate,2020-06-06T20:18:40+01:00*
G04 #@! TF.ProjectId,RF_R1_USB2USB_SPIPin_v1,52465f52-315f-4555-9342-325553425f53,rev?*
G04 #@! TF.SameCoordinates,Original*
G04 #@! TF.FileFunction,Legend,Top*
G04 #@! TF.FilePolarity,Positive*
%FSLAX46Y46*%
G04 Gerber Fmt 4.6, Leading zero omitted, Abs format (unit mm)*
G04 Created by KiCad (PCBNEW (5.1.4)-1) date 2020-06-06 20:18:40*
%MOMM*%
%LPD*%
G04 APERTURE LIST*
%ADD10C,0.150000*%
%ADD11C,0.120000*%
G04 APERTURE END LIST*
D10*
X134296666Y-72990000D02*
X134230000Y-72956666D01*
X134130000Y-72956666D01*
X134030000Y-72990000D01*
X133963333Y-73056666D01*
X133930000Y-73123333D01*
X133896666Y-73256666D01*
X133896666Y-73356666D01*
X133930000Y-73490000D01*
X133963333Y-73556666D01*
X134030000Y-73623333D01*
X134130000Y-73656666D01*
X134196666Y-73656666D01*
X134296666Y-73623333D01*
X134330000Y-73590000D01*
X134330000Y-73356666D01*
X134196666Y-73356666D01*
X134630000Y-73656666D02*
X134630000Y-72956666D01*
X135030000Y-73656666D01*
X135030000Y-72956666D01*
X135363333Y-73656666D02*
X135363333Y-72956666D01*
X135530000Y-72956666D01*
X135630000Y-72990000D01*
X135696666Y-73056666D01*
X135730000Y-73123333D01*
X135763333Y-73256666D01*
X135763333Y-73356666D01*
X135730000Y-73490000D01*
X135696666Y-73556666D01*
X135630000Y-73623333D01*
X135530000Y-73656666D01*
X135363333Y-73656666D01*
X133923333Y-71156666D02*
X133923333Y-70456666D01*
X134090000Y-70456666D01*
X134190000Y-70490000D01*
X134256666Y-70556666D01*
X134290000Y-70623333D01*
X134323333Y-70756666D01*
X134323333Y-70856666D01*
X134290000Y-70990000D01*
X134256666Y-71056666D01*
X134190000Y-71123333D01*
X134090000Y-71156666D01*
X133923333Y-71156666D01*
X134623333Y-70890000D02*
X135156666Y-70890000D01*
X134890000Y-71156666D02*
X134890000Y-70623333D01*
X133933333Y-68656666D02*
X133933333Y-67956666D01*
X134100000Y-67956666D01*
X134200000Y-67990000D01*
X134266666Y-68056666D01*
X134300000Y-68123333D01*
X134333333Y-68256666D01*
X134333333Y-68356666D01*
X134300000Y-68490000D01*
X134266666Y-68556666D01*
X134200000Y-68623333D01*
X134100000Y-68656666D01*
X133933333Y-68656666D01*
X134633333Y-68390000D02*
X135166666Y-68390000D01*
X134256666Y-65456666D02*
X133923333Y-65456666D01*
X133890000Y-65790000D01*
X133923333Y-65756666D01*
X133990000Y-65723333D01*
X134156666Y-65723333D01*
X134223333Y-65756666D01*
X134256666Y-65790000D01*
X134290000Y-65856666D01*
X134290000Y-66023333D01*
X134256666Y-66090000D01*
X134223333Y-66123333D01*
X134156666Y-66156666D01*
X133990000Y-66156666D01*
X133923333Y-66123333D01*
X133890000Y-66090000D01*
X134490000Y-65456666D02*
X134723333Y-66156666D01*
X134956666Y-65456666D01*
D11*
X122635000Y-66410000D02*
X123210000Y-66410000D01*
X123210000Y-66410000D02*
X123210000Y-65835000D01*
X113565000Y-66410000D02*
X112990000Y-66410000D01*
X112990000Y-66410000D02*
X112990000Y-65835000D01*
X122635000Y-56190000D02*
X123210000Y-56190000D01*
X123210000Y-56190000D02*
X123210000Y-56765000D01*
X113565000Y-56190000D02*
X112990000Y-56190000D01*
X112990000Y-56190000D02*
X112990000Y-56765000D01*
X112990000Y-56765000D02*
X111700000Y-56765000D01*
X100640000Y-57960000D02*
X100190000Y-57960000D01*
X100190000Y-57960000D02*
X100190000Y-58410000D01*
X104960000Y-57960000D02*
X105410000Y-57960000D01*
X105410000Y-57960000D02*
X105410000Y-58410000D01*
X100640000Y-63180000D02*
X100190000Y-63180000D01*
X100190000Y-63180000D02*
X100190000Y-62730000D01*
X104960000Y-63180000D02*
X105410000Y-63180000D01*
X105410000Y-63180000D02*
X105410000Y-62730000D01*
X105410000Y-62730000D02*
X106725000Y-62730000D01*
X103700000Y-69110000D02*
X101900000Y-69110000D01*
X101900000Y-72330000D02*
X104350000Y-72330000D01*
D10*
X118030000Y-71790000D02*
X118030000Y-70790000D01*
X117930000Y-71890000D02*
X118330000Y-71890000D01*
X117930000Y-69290000D02*
X118330000Y-69290000D01*
X103000000Y-68070000D02*
X102600000Y-68070000D01*
X103000000Y-65470000D02*
X102600000Y-65470000D01*
X102900000Y-65570000D02*
X102900000Y-66570000D01*
M02*
