G04 #@! TF.GenerationSoftware,KiCad,Pcbnew,(5.1.4)-1*
G04 #@! TF.CreationDate,2020-06-06T20:18:40+01:00*
G04 #@! TF.ProjectId,RF_R1_USB2USB_SPIPin_v1,52465f52-315f-4555-9342-325553425f53,rev?*
G04 #@! TF.SameCoordinates,Original*
G04 #@! TF.FileFunction,Copper,L2,Bot*
G04 #@! TF.FilePolarity,Positive*
%FSLAX46Y46*%
G04 Gerber Fmt 4.6, Leading zero omitted, Abs format (unit mm)*
G04 Created by KiCad (PCBNEW (5.1.4)-1) date 2020-06-06 20:18:40*
%MOMM*%
%LPD*%
G04 APERTURE LIST*
%ADD10R,0.500000X2.000000*%
%ADD11R,2.000000X1.700000*%
%ADD12C,0.100000*%
%ADD13C,1.700000*%
%ADD14O,1.950000X1.700000*%
%ADD15C,6.000000*%
%ADD16C,0.800000*%
%ADD17R,0.900000X0.500000*%
%ADD18C,0.600000*%
%ADD19C,0.200000*%
%ADD20C,0.254000*%
G04 APERTURE END LIST*
D10*
X142400000Y-59100000D03*
X143200000Y-59100000D03*
X144000000Y-59100000D03*
X144800000Y-59100000D03*
X145600000Y-59100000D03*
D11*
X139550000Y-59000000D03*
X139550000Y-53550000D03*
X148450000Y-59000000D03*
X148450000Y-53550000D03*
D12*
G36*
X132869504Y-64951204D02*
G01*
X132893773Y-64954804D01*
X132917571Y-64960765D01*
X132940671Y-64969030D01*
X132962849Y-64979520D01*
X132983893Y-64992133D01*
X133003598Y-65006747D01*
X133021777Y-65023223D01*
X133038253Y-65041402D01*
X133052867Y-65061107D01*
X133065480Y-65082151D01*
X133075970Y-65104329D01*
X133084235Y-65127429D01*
X133090196Y-65151227D01*
X133093796Y-65175496D01*
X133095000Y-65200000D01*
X133095000Y-66400000D01*
X133093796Y-66424504D01*
X133090196Y-66448773D01*
X133084235Y-66472571D01*
X133075970Y-66495671D01*
X133065480Y-66517849D01*
X133052867Y-66538893D01*
X133038253Y-66558598D01*
X133021777Y-66576777D01*
X133003598Y-66593253D01*
X132983893Y-66607867D01*
X132962849Y-66620480D01*
X132940671Y-66630970D01*
X132917571Y-66639235D01*
X132893773Y-66645196D01*
X132869504Y-66648796D01*
X132845000Y-66650000D01*
X131395000Y-66650000D01*
X131370496Y-66648796D01*
X131346227Y-66645196D01*
X131322429Y-66639235D01*
X131299329Y-66630970D01*
X131277151Y-66620480D01*
X131256107Y-66607867D01*
X131236402Y-66593253D01*
X131218223Y-66576777D01*
X131201747Y-66558598D01*
X131187133Y-66538893D01*
X131174520Y-66517849D01*
X131164030Y-66495671D01*
X131155765Y-66472571D01*
X131149804Y-66448773D01*
X131146204Y-66424504D01*
X131145000Y-66400000D01*
X131145000Y-65200000D01*
X131146204Y-65175496D01*
X131149804Y-65151227D01*
X131155765Y-65127429D01*
X131164030Y-65104329D01*
X131174520Y-65082151D01*
X131187133Y-65061107D01*
X131201747Y-65041402D01*
X131218223Y-65023223D01*
X131236402Y-65006747D01*
X131256107Y-64992133D01*
X131277151Y-64979520D01*
X131299329Y-64969030D01*
X131322429Y-64960765D01*
X131346227Y-64954804D01*
X131370496Y-64951204D01*
X131395000Y-64950000D01*
X132845000Y-64950000D01*
X132869504Y-64951204D01*
X132869504Y-64951204D01*
G37*
D13*
X132120000Y-65800000D03*
D14*
X132120000Y-68300000D03*
X132120000Y-70800000D03*
X132120000Y-73300000D03*
D15*
X158000000Y-57000000D03*
D16*
X160250000Y-57000000D03*
X159590990Y-58590990D03*
X158000000Y-59250000D03*
X156409010Y-58590990D03*
X155750000Y-57000000D03*
X156409010Y-55409010D03*
X158000000Y-54750000D03*
X159590990Y-55409010D03*
X131590990Y-55409010D03*
X130000000Y-54750000D03*
X128409010Y-55409010D03*
X127750000Y-57000000D03*
X128409010Y-58590990D03*
X130000000Y-59250000D03*
X131590990Y-58590990D03*
X132250000Y-57000000D03*
D15*
X130000000Y-57000000D03*
D17*
X144750000Y-61350000D03*
X144750000Y-62850000D03*
X143300000Y-61350000D03*
X143300000Y-62850000D03*
D18*
X115700000Y-61400000D03*
X116500000Y-66962500D03*
X105900000Y-67470000D03*
X105600000Y-70070000D03*
X99700000Y-67470000D03*
X100000000Y-69970000D03*
X112400000Y-70700000D03*
X110600000Y-67300000D03*
X97700000Y-63370000D03*
X101300000Y-60600000D03*
X110700000Y-62800000D03*
X107800000Y-60270000D03*
X123200000Y-73295011D03*
X124000000Y-66400000D03*
X123762500Y-57300000D03*
X97700000Y-57870000D03*
X97700000Y-61870000D03*
X107800000Y-61770000D03*
X107800000Y-66100000D03*
X103300000Y-59300000D03*
X102156734Y-61143266D03*
X112437500Y-59700000D03*
X112437500Y-58900000D03*
X114400000Y-60500000D03*
X97700000Y-59370000D03*
X109200000Y-63800000D03*
X109000000Y-70700000D03*
X109200000Y-68500000D03*
X113260000Y-68500000D03*
X113300000Y-74800000D03*
X103155264Y-60444736D03*
X107200000Y-65300000D03*
X117350000Y-74400000D03*
X115100000Y-65300000D03*
X115850000Y-74400000D03*
X114500000Y-64500000D03*
X114350000Y-74400000D03*
X113900000Y-63700000D03*
X132100000Y-62200000D03*
X119700000Y-62200000D03*
X108500000Y-66900000D03*
X112437500Y-62100000D03*
X112437500Y-58100000D03*
X105600000Y-71570000D03*
X105600000Y-73295011D03*
D19*
X144800000Y-59100000D02*
X145600000Y-59100000D01*
X147650000Y-61900000D02*
X145600000Y-59850000D01*
X145600000Y-59850000D02*
X145600000Y-59100000D01*
X153100000Y-61900000D02*
X147650000Y-61900000D01*
X158000000Y-57000000D02*
X153100000Y-61900000D01*
X115700000Y-61400000D02*
X116500000Y-62200000D01*
X116500000Y-62200000D02*
X116500000Y-66962500D01*
X105900000Y-67470000D02*
X105900000Y-69770000D01*
X105900000Y-69770000D02*
X105600000Y-70070000D01*
X99700000Y-67470000D02*
X99700000Y-69670000D01*
X99700000Y-69670000D02*
X100000000Y-69970000D01*
X112400000Y-70700000D02*
X112400000Y-69100000D01*
X112400000Y-69100000D02*
X110600000Y-67300000D01*
X105600000Y-70095000D02*
X107205000Y-71700000D01*
X105600000Y-70070000D02*
X105600000Y-70095000D01*
X111750000Y-70700000D02*
X112400000Y-70700000D01*
X110750000Y-71700000D02*
X111750000Y-70700000D01*
X107205000Y-71700000D02*
X110750000Y-71700000D01*
X97700000Y-63370000D02*
X100030000Y-63370000D01*
X100030000Y-63370000D02*
X101300000Y-62100000D01*
X101300000Y-62100000D02*
X101300000Y-60600000D01*
X110700000Y-67200000D02*
X110600000Y-67300000D01*
X110700000Y-62800000D02*
X110700000Y-67200000D01*
X115275736Y-61400000D02*
X115700000Y-61400000D01*
X109505000Y-61400000D02*
X115275736Y-61400000D01*
X108375000Y-60270000D02*
X109505000Y-61400000D01*
X107800000Y-60270000D02*
X108375000Y-60270000D01*
X123200000Y-73295011D02*
X123200000Y-67200000D01*
X123200000Y-67200000D02*
X124000000Y-66400000D01*
X130000000Y-57000000D02*
X124062500Y-57000000D01*
X124062500Y-57000000D02*
X123762500Y-57300000D01*
X97700000Y-58354302D02*
X96800000Y-59254301D01*
X97700000Y-57870000D02*
X97700000Y-58354302D01*
X96800000Y-59254301D02*
X96800000Y-60970000D01*
X96800000Y-60970000D02*
X97700000Y-61870000D01*
X107800000Y-66100000D02*
X107800000Y-61770000D01*
X102156734Y-60443266D02*
X103300000Y-59300000D01*
X102156734Y-61143266D02*
X102156734Y-60443266D01*
X143300000Y-59200000D02*
X143200000Y-59100000D01*
X143300000Y-61350000D02*
X143300000Y-59200000D01*
X144550000Y-61350000D02*
X144750000Y-61350000D01*
X144000000Y-60800000D02*
X144550000Y-61350000D01*
X144000000Y-59100000D02*
X144000000Y-60800000D01*
X143999995Y-63400004D02*
X119300004Y-63400004D01*
X115600000Y-59700000D02*
X112437500Y-59700000D01*
X119300004Y-63400004D02*
X115600000Y-59700000D01*
X144550000Y-62850000D02*
X143999995Y-63400004D01*
X144750000Y-62850000D02*
X144550000Y-62850000D01*
X142650000Y-62850000D02*
X143300000Y-62850000D01*
X119461998Y-62850000D02*
X142650000Y-62850000D01*
X115511998Y-58900000D02*
X119461998Y-62850000D01*
X112437500Y-58900000D02*
X115511998Y-58900000D01*
X109588002Y-60500000D02*
X114400000Y-60500000D01*
X107388001Y-58299999D02*
X109588002Y-60500000D01*
X98320001Y-58299999D02*
X107388001Y-58299999D01*
X97700000Y-58920000D02*
X98320001Y-58299999D01*
X97700000Y-59370000D02*
X97700000Y-58920000D01*
X109200000Y-70500000D02*
X109000000Y-70700000D01*
X109200000Y-63800000D02*
X109200000Y-68500000D01*
X109200000Y-68500000D02*
X109200000Y-70500000D01*
X113280000Y-72720000D02*
X113280000Y-68520000D01*
X113280000Y-68520000D02*
X113260000Y-68500000D01*
X113300000Y-72740000D02*
X113280000Y-72720000D01*
X113300000Y-74800000D02*
X113300000Y-72740000D01*
X103155264Y-60444736D02*
X107200000Y-64489472D01*
X107200000Y-64489472D02*
X107200000Y-65300000D01*
X115100000Y-72800000D02*
X115100000Y-65300000D01*
X116200001Y-73900001D02*
X115100000Y-72800000D01*
X116850001Y-73900001D02*
X116200001Y-73900001D01*
X117350000Y-74400000D02*
X116850001Y-73900001D01*
X114500000Y-73050000D02*
X114500000Y-73000000D01*
X115850000Y-74400000D02*
X114500000Y-73050000D01*
X114500000Y-73000000D02*
X114500000Y-64500000D01*
X114350000Y-73692894D02*
X113900000Y-73242894D01*
X114350000Y-74400000D02*
X114350000Y-73692894D01*
X113900000Y-73242894D02*
X113900000Y-63700000D01*
X142400000Y-59100000D02*
X142400000Y-60600000D01*
X142400000Y-60600000D02*
X140800000Y-62200000D01*
X140800000Y-62200000D02*
X132100000Y-62200000D01*
X132100000Y-62200000D02*
X119700000Y-62200000D01*
X112437500Y-62100000D02*
X109400000Y-62100000D01*
X108500000Y-63000000D02*
X108500000Y-64000000D01*
X109400000Y-62100000D02*
X108500000Y-63000000D01*
X108500000Y-66900000D02*
X108500000Y-64000000D01*
X119700000Y-62200000D02*
X115600000Y-58100000D01*
X115600000Y-58100000D02*
X112437500Y-58100000D01*
X105600000Y-73295011D02*
X105600000Y-71570000D01*
D20*
G36*
X137911928Y-52700000D02*
G01*
X137911928Y-54400000D01*
X137924188Y-54524482D01*
X137960498Y-54644180D01*
X138019463Y-54754494D01*
X138098815Y-54851185D01*
X138195506Y-54930537D01*
X138305820Y-54989502D01*
X138425518Y-55025812D01*
X138550000Y-55038072D01*
X140550000Y-55038072D01*
X140674482Y-55025812D01*
X140794180Y-54989502D01*
X140904494Y-54930537D01*
X141001185Y-54851185D01*
X141080537Y-54754494D01*
X141139502Y-54644180D01*
X141175812Y-54524482D01*
X141188072Y-54400000D01*
X141188072Y-52700000D01*
X141184132Y-52660000D01*
X146815868Y-52660000D01*
X146811928Y-52700000D01*
X146811928Y-54400000D01*
X146824188Y-54524482D01*
X146860498Y-54644180D01*
X146919463Y-54754494D01*
X146998815Y-54851185D01*
X147095506Y-54930537D01*
X147205820Y-54989502D01*
X147325518Y-55025812D01*
X147450000Y-55038072D01*
X149450000Y-55038072D01*
X149574482Y-55025812D01*
X149694180Y-54989502D01*
X149804494Y-54930537D01*
X149901185Y-54851185D01*
X149980537Y-54754494D01*
X150039502Y-54644180D01*
X150075812Y-54524482D01*
X150084003Y-54441314D01*
X155620919Y-54441314D01*
X158000000Y-56820395D01*
X160379081Y-54441314D01*
X160042894Y-53972132D01*
X159412932Y-53631763D01*
X158728673Y-53420834D01*
X158016411Y-53347450D01*
X157303518Y-53414431D01*
X156617391Y-53619204D01*
X155984397Y-53953898D01*
X155957106Y-53972132D01*
X155620919Y-54441314D01*
X150084003Y-54441314D01*
X150088072Y-54400000D01*
X150088072Y-52700000D01*
X150084132Y-52660000D01*
X163340000Y-52660000D01*
X163340001Y-61467711D01*
X163301853Y-61856776D01*
X163198238Y-62199964D01*
X163029939Y-62516489D01*
X162803365Y-62794296D01*
X162527146Y-63022805D01*
X162211803Y-63193310D01*
X161869344Y-63299319D01*
X161482288Y-63340000D01*
X145790770Y-63340000D01*
X145825812Y-63224482D01*
X145838072Y-63100000D01*
X145838072Y-62600000D01*
X145825812Y-62475518D01*
X145789502Y-62355820D01*
X145730537Y-62245506D01*
X145651185Y-62148815D01*
X145591704Y-62100000D01*
X145651185Y-62051185D01*
X145730537Y-61954494D01*
X145789502Y-61844180D01*
X145825812Y-61724482D01*
X145838072Y-61600000D01*
X145838072Y-61100000D01*
X145825812Y-60975518D01*
X145789502Y-60855820D01*
X145730537Y-60745506D01*
X145721915Y-60735000D01*
X145727002Y-60735000D01*
X145727002Y-60580252D01*
X145881750Y-60735000D01*
X145982013Y-60724266D01*
X146101264Y-60686517D01*
X146210860Y-60626228D01*
X146306588Y-60545716D01*
X146384770Y-60448076D01*
X146442401Y-60337059D01*
X146477266Y-60216933D01*
X146488026Y-60092312D01*
X146485000Y-59385750D01*
X146326250Y-59227000D01*
X145723000Y-59227000D01*
X145723000Y-59247000D01*
X145546250Y-59247000D01*
X145526250Y-59227000D01*
X145453000Y-59227000D01*
X145453000Y-58973000D01*
X145526250Y-58973000D01*
X145685000Y-58814250D01*
X145688026Y-58107688D01*
X145677266Y-57983067D01*
X145642401Y-57862941D01*
X145584770Y-57751924D01*
X145506588Y-57654284D01*
X145477000Y-57629399D01*
X145477000Y-57623750D01*
X145318250Y-57465000D01*
X145217987Y-57475734D01*
X145200000Y-57481428D01*
X145182013Y-57475734D01*
X145081750Y-57465000D01*
X144923000Y-57623750D01*
X144923000Y-57629399D01*
X144893412Y-57654284D01*
X144815230Y-57751924D01*
X144799827Y-57781595D01*
X144780537Y-57745506D01*
X144701185Y-57648815D01*
X144677000Y-57628967D01*
X144677000Y-57623750D01*
X144518250Y-57465000D01*
X144417987Y-57475734D01*
X144399192Y-57481684D01*
X144374482Y-57474188D01*
X144250000Y-57461928D01*
X143750000Y-57461928D01*
X143625518Y-57474188D01*
X143600000Y-57481929D01*
X143574482Y-57474188D01*
X143450000Y-57461928D01*
X142950000Y-57461928D01*
X142825518Y-57474188D01*
X142800000Y-57481929D01*
X142774482Y-57474188D01*
X142650000Y-57461928D01*
X142202177Y-57461928D01*
X142337624Y-57405824D01*
X142523520Y-57281612D01*
X142681612Y-57123520D01*
X142805824Y-56937624D01*
X142891383Y-56731067D01*
X142935000Y-56511788D01*
X142935000Y-56288212D01*
X145065000Y-56288212D01*
X145065000Y-56511788D01*
X145108617Y-56731067D01*
X145194176Y-56937624D01*
X145318388Y-57123520D01*
X145476480Y-57281612D01*
X145662376Y-57405824D01*
X145859340Y-57487410D01*
X145723000Y-57623750D01*
X145723000Y-58973000D01*
X146326250Y-58973000D01*
X146485000Y-58814250D01*
X146487844Y-58150000D01*
X146811928Y-58150000D01*
X146811928Y-59850000D01*
X146824188Y-59974482D01*
X146860498Y-60094180D01*
X146919463Y-60204494D01*
X146998815Y-60301185D01*
X147095506Y-60380537D01*
X147205820Y-60439502D01*
X147325518Y-60475812D01*
X147450000Y-60488072D01*
X149450000Y-60488072D01*
X149574482Y-60475812D01*
X149694180Y-60439502D01*
X149804494Y-60380537D01*
X149901185Y-60301185D01*
X149980537Y-60204494D01*
X150039502Y-60094180D01*
X150075812Y-59974482D01*
X150088072Y-59850000D01*
X150088072Y-59558686D01*
X155620919Y-59558686D01*
X155957106Y-60027868D01*
X156587068Y-60368237D01*
X157271327Y-60579166D01*
X157983589Y-60652550D01*
X158696482Y-60585569D01*
X159382609Y-60380796D01*
X160015603Y-60046102D01*
X160042894Y-60027868D01*
X160379081Y-59558686D01*
X158000000Y-57179605D01*
X155620919Y-59558686D01*
X150088072Y-59558686D01*
X150088072Y-58150000D01*
X150075812Y-58025518D01*
X150039502Y-57905820D01*
X149980537Y-57795506D01*
X149901185Y-57698815D01*
X149804494Y-57619463D01*
X149694180Y-57560498D01*
X149574482Y-57524188D01*
X149450000Y-57511928D01*
X147450000Y-57511928D01*
X147325518Y-57524188D01*
X147205820Y-57560498D01*
X147095506Y-57619463D01*
X146998815Y-57698815D01*
X146919463Y-57795506D01*
X146860498Y-57905820D01*
X146824188Y-58025518D01*
X146811928Y-58150000D01*
X146487844Y-58150000D01*
X146488026Y-58107688D01*
X146477266Y-57983067D01*
X146442401Y-57862941D01*
X146384770Y-57751924D01*
X146306588Y-57654284D01*
X146210860Y-57573772D01*
X146140379Y-57535000D01*
X146311788Y-57535000D01*
X146531067Y-57491383D01*
X146737624Y-57405824D01*
X146923520Y-57281612D01*
X147081612Y-57123520D01*
X147175111Y-56983589D01*
X154347450Y-56983589D01*
X154414431Y-57696482D01*
X154619204Y-58382609D01*
X154953898Y-59015603D01*
X154972132Y-59042894D01*
X155441314Y-59379081D01*
X157820395Y-57000000D01*
X158179605Y-57000000D01*
X160558686Y-59379081D01*
X161027868Y-59042894D01*
X161368237Y-58412932D01*
X161579166Y-57728673D01*
X161652550Y-57016411D01*
X161585569Y-56303518D01*
X161380796Y-55617391D01*
X161046102Y-54984397D01*
X161027868Y-54957106D01*
X160558686Y-54620919D01*
X158179605Y-57000000D01*
X157820395Y-57000000D01*
X155441314Y-54620919D01*
X154972132Y-54957106D01*
X154631763Y-55587068D01*
X154420834Y-56271327D01*
X154347450Y-56983589D01*
X147175111Y-56983589D01*
X147205824Y-56937624D01*
X147291383Y-56731067D01*
X147335000Y-56511788D01*
X147335000Y-56288212D01*
X147291383Y-56068933D01*
X147205824Y-55862376D01*
X147081612Y-55676480D01*
X146923520Y-55518388D01*
X146737624Y-55394176D01*
X146531067Y-55308617D01*
X146311788Y-55265000D01*
X146088212Y-55265000D01*
X145868933Y-55308617D01*
X145662376Y-55394176D01*
X145476480Y-55518388D01*
X145318388Y-55676480D01*
X145194176Y-55862376D01*
X145108617Y-56068933D01*
X145065000Y-56288212D01*
X142935000Y-56288212D01*
X142891383Y-56068933D01*
X142805824Y-55862376D01*
X142681612Y-55676480D01*
X142523520Y-55518388D01*
X142337624Y-55394176D01*
X142131067Y-55308617D01*
X141911788Y-55265000D01*
X141688212Y-55265000D01*
X141468933Y-55308617D01*
X141262376Y-55394176D01*
X141076480Y-55518388D01*
X140918388Y-55676480D01*
X140794176Y-55862376D01*
X140708617Y-56068933D01*
X140665000Y-56288212D01*
X140665000Y-56511788D01*
X140708617Y-56731067D01*
X140794176Y-56937624D01*
X140918388Y-57123520D01*
X141076480Y-57281612D01*
X141262376Y-57405824D01*
X141468933Y-57491383D01*
X141688212Y-57535000D01*
X141859981Y-57535000D01*
X141795506Y-57569463D01*
X141698815Y-57648815D01*
X141619463Y-57745506D01*
X141560498Y-57855820D01*
X141524188Y-57975518D01*
X141511928Y-58100000D01*
X141511928Y-60100000D01*
X141524188Y-60224482D01*
X141560498Y-60344180D01*
X141579961Y-60380592D01*
X140495554Y-61465000D01*
X132682951Y-61465000D01*
X132542889Y-61371414D01*
X132372729Y-61300932D01*
X132192089Y-61265000D01*
X132007911Y-61265000D01*
X131827271Y-61300932D01*
X131657111Y-61371414D01*
X131517049Y-61465000D01*
X120282951Y-61465000D01*
X120142889Y-61371414D01*
X119972729Y-61300932D01*
X119807515Y-61268069D01*
X118098132Y-59558686D01*
X127620919Y-59558686D01*
X127957106Y-60027868D01*
X128587068Y-60368237D01*
X129271327Y-60579166D01*
X129983589Y-60652550D01*
X130696482Y-60585569D01*
X131382609Y-60380796D01*
X132015603Y-60046102D01*
X132042894Y-60027868D01*
X132379081Y-59558686D01*
X130000000Y-57179605D01*
X127620919Y-59558686D01*
X118098132Y-59558686D01*
X116145259Y-57605813D01*
X116122238Y-57577762D01*
X116010320Y-57485913D01*
X115882633Y-57417663D01*
X115744085Y-57375635D01*
X115636105Y-57365000D01*
X115600000Y-57361444D01*
X115563895Y-57365000D01*
X113020451Y-57365000D01*
X112880389Y-57271414D01*
X112710229Y-57200932D01*
X112529589Y-57165000D01*
X112345411Y-57165000D01*
X112164771Y-57200932D01*
X111994611Y-57271414D01*
X111841472Y-57373738D01*
X111711238Y-57503972D01*
X111608914Y-57657111D01*
X111538432Y-57827271D01*
X111502500Y-58007911D01*
X111502500Y-58192089D01*
X111538432Y-58372729D01*
X111591149Y-58500000D01*
X111538432Y-58627271D01*
X111502500Y-58807911D01*
X111502500Y-58992089D01*
X111538432Y-59172729D01*
X111591149Y-59300000D01*
X111538432Y-59427271D01*
X111502500Y-59607911D01*
X111502500Y-59765000D01*
X109892449Y-59765000D01*
X107933259Y-57805811D01*
X107910239Y-57777761D01*
X107798321Y-57685912D01*
X107670634Y-57617662D01*
X107532086Y-57575634D01*
X107424106Y-57564999D01*
X107388001Y-57561443D01*
X107351896Y-57564999D01*
X98585701Y-57564999D01*
X98528586Y-57427111D01*
X98426262Y-57273972D01*
X98296028Y-57143738D01*
X98142889Y-57041414D01*
X98003286Y-56983589D01*
X126347450Y-56983589D01*
X126414431Y-57696482D01*
X126619204Y-58382609D01*
X126953898Y-59015603D01*
X126972132Y-59042894D01*
X127441314Y-59379081D01*
X129820395Y-57000000D01*
X130179605Y-57000000D01*
X132558686Y-59379081D01*
X133027868Y-59042894D01*
X133368237Y-58412932D01*
X133449288Y-58150000D01*
X137911928Y-58150000D01*
X137911928Y-59850000D01*
X137924188Y-59974482D01*
X137960498Y-60094180D01*
X138019463Y-60204494D01*
X138098815Y-60301185D01*
X138195506Y-60380537D01*
X138305820Y-60439502D01*
X138425518Y-60475812D01*
X138550000Y-60488072D01*
X140550000Y-60488072D01*
X140674482Y-60475812D01*
X140794180Y-60439502D01*
X140904494Y-60380537D01*
X141001185Y-60301185D01*
X141080537Y-60204494D01*
X141139502Y-60094180D01*
X141175812Y-59974482D01*
X141188072Y-59850000D01*
X141188072Y-58150000D01*
X141175812Y-58025518D01*
X141139502Y-57905820D01*
X141080537Y-57795506D01*
X141001185Y-57698815D01*
X140904494Y-57619463D01*
X140794180Y-57560498D01*
X140674482Y-57524188D01*
X140550000Y-57511928D01*
X138550000Y-57511928D01*
X138425518Y-57524188D01*
X138305820Y-57560498D01*
X138195506Y-57619463D01*
X138098815Y-57698815D01*
X138019463Y-57795506D01*
X137960498Y-57905820D01*
X137924188Y-58025518D01*
X137911928Y-58150000D01*
X133449288Y-58150000D01*
X133579166Y-57728673D01*
X133652550Y-57016411D01*
X133585569Y-56303518D01*
X133380796Y-55617391D01*
X133046102Y-54984397D01*
X133027868Y-54957106D01*
X132558686Y-54620919D01*
X130179605Y-57000000D01*
X129820395Y-57000000D01*
X127441314Y-54620919D01*
X126972132Y-54957106D01*
X126631763Y-55587068D01*
X126420834Y-56271327D01*
X126347450Y-56983589D01*
X98003286Y-56983589D01*
X97972729Y-56970932D01*
X97792089Y-56935000D01*
X97607911Y-56935000D01*
X97427271Y-56970932D01*
X97257111Y-57041414D01*
X97103972Y-57143738D01*
X96973738Y-57273972D01*
X96871414Y-57427111D01*
X96800932Y-57597271D01*
X96765000Y-57777911D01*
X96765000Y-57962089D01*
X96800932Y-58142729D01*
X96821784Y-58193071D01*
X96305808Y-58709047D01*
X96277762Y-58732064D01*
X96185913Y-58843982D01*
X96117663Y-58971669D01*
X96098452Y-59034999D01*
X96075635Y-59110216D01*
X96061444Y-59254301D01*
X96065000Y-59290406D01*
X96065001Y-60933885D01*
X96061444Y-60970000D01*
X96075635Y-61114085D01*
X96105971Y-61214087D01*
X96117664Y-61252633D01*
X96185914Y-61380320D01*
X96277763Y-61492238D01*
X96305808Y-61515254D01*
X96768068Y-61977515D01*
X96800932Y-62142729D01*
X96871414Y-62312889D01*
X96973738Y-62466028D01*
X97103972Y-62596262D01*
X97257111Y-62698586D01*
X97427271Y-62769068D01*
X97607911Y-62805000D01*
X97792089Y-62805000D01*
X97972729Y-62769068D01*
X98142889Y-62698586D01*
X98296028Y-62596262D01*
X98426262Y-62466028D01*
X98528586Y-62312889D01*
X98599068Y-62142729D01*
X98635000Y-61962089D01*
X98635000Y-61777911D01*
X98599068Y-61597271D01*
X98528586Y-61427111D01*
X98426262Y-61273972D01*
X98296028Y-61143738D01*
X98142889Y-61041414D01*
X97972729Y-60970932D01*
X97807515Y-60938068D01*
X97535000Y-60665554D01*
X97535000Y-60290497D01*
X97607911Y-60305000D01*
X97792089Y-60305000D01*
X97972729Y-60269068D01*
X98142889Y-60198586D01*
X98296028Y-60096262D01*
X98426262Y-59966028D01*
X98528586Y-59812889D01*
X98599068Y-59642729D01*
X98635000Y-59462089D01*
X98635000Y-59277911D01*
X98599068Y-59097271D01*
X98588263Y-59071184D01*
X98624448Y-59034999D01*
X102399395Y-59034999D01*
X102368068Y-59192485D01*
X101662542Y-59898012D01*
X101634497Y-59921028D01*
X101542648Y-60032946D01*
X101483882Y-60142889D01*
X101474398Y-60160633D01*
X101432369Y-60299181D01*
X101418178Y-60443266D01*
X101421734Y-60479371D01*
X101421734Y-60560315D01*
X101328148Y-60700377D01*
X101257666Y-60870537D01*
X101221734Y-61051177D01*
X101221734Y-61235355D01*
X101257666Y-61415995D01*
X101328148Y-61586155D01*
X101430472Y-61739294D01*
X101560706Y-61869528D01*
X101713845Y-61971852D01*
X101884005Y-62042334D01*
X102064645Y-62078266D01*
X102248823Y-62078266D01*
X102429463Y-62042334D01*
X102599623Y-61971852D01*
X102752762Y-61869528D01*
X102882996Y-61739294D01*
X102985320Y-61586155D01*
X103055802Y-61415995D01*
X103060991Y-61389909D01*
X106434210Y-64763129D01*
X106371414Y-64857111D01*
X106300932Y-65027271D01*
X106265000Y-65207911D01*
X106265000Y-65392089D01*
X106300932Y-65572729D01*
X106371414Y-65742889D01*
X106473738Y-65896028D01*
X106603972Y-66026262D01*
X106757111Y-66128586D01*
X106865000Y-66173275D01*
X106865000Y-66192089D01*
X106900932Y-66372729D01*
X106971414Y-66542889D01*
X107073738Y-66696028D01*
X107203972Y-66826262D01*
X107357111Y-66928586D01*
X107527271Y-66999068D01*
X107568000Y-67007170D01*
X107600932Y-67172729D01*
X107671414Y-67342889D01*
X107773738Y-67496028D01*
X107903972Y-67626262D01*
X108057111Y-67728586D01*
X108227271Y-67799068D01*
X108407911Y-67835000D01*
X108465001Y-67835000D01*
X108465001Y-67917048D01*
X108371414Y-68057111D01*
X108300932Y-68227271D01*
X108265000Y-68407911D01*
X108265000Y-68592089D01*
X108300932Y-68772729D01*
X108371414Y-68942889D01*
X108465000Y-69082951D01*
X108465001Y-69932960D01*
X108403972Y-69973738D01*
X108273738Y-70103972D01*
X108171414Y-70257111D01*
X108100932Y-70427271D01*
X108065000Y-70607911D01*
X108065000Y-70792089D01*
X108100932Y-70972729D01*
X108171414Y-71142889D01*
X108273738Y-71296028D01*
X108403972Y-71426262D01*
X108557111Y-71528586D01*
X108727271Y-71599068D01*
X108907911Y-71635000D01*
X109092089Y-71635000D01*
X109272729Y-71599068D01*
X109442889Y-71528586D01*
X109596028Y-71426262D01*
X109726262Y-71296028D01*
X109828586Y-71142889D01*
X109899068Y-70972729D01*
X109935000Y-70792089D01*
X109935000Y-70607911D01*
X109930270Y-70584131D01*
X109935000Y-70536105D01*
X109938556Y-70500000D01*
X109935000Y-70463895D01*
X109935000Y-69082951D01*
X110028586Y-68942889D01*
X110099068Y-68772729D01*
X110135000Y-68592089D01*
X110135000Y-68407911D01*
X110099068Y-68227271D01*
X110028586Y-68057111D01*
X109935000Y-67917049D01*
X109935000Y-64382951D01*
X110028586Y-64242889D01*
X110099068Y-64072729D01*
X110135000Y-63892089D01*
X110135000Y-63707911D01*
X110099068Y-63527271D01*
X110028586Y-63357111D01*
X109926262Y-63203972D01*
X109796028Y-63073738D01*
X109642889Y-62971414D01*
X109589957Y-62949489D01*
X109704447Y-62835000D01*
X111854549Y-62835000D01*
X111994611Y-62928586D01*
X112164771Y-62999068D01*
X112345411Y-63035000D01*
X112529589Y-63035000D01*
X112710229Y-62999068D01*
X112880389Y-62928586D01*
X113033528Y-62826262D01*
X113163762Y-62696028D01*
X113266086Y-62542889D01*
X113336568Y-62372729D01*
X113372500Y-62192089D01*
X113372500Y-62007911D01*
X113336568Y-61827271D01*
X113266086Y-61657111D01*
X113163762Y-61503972D01*
X113033528Y-61373738D01*
X112880389Y-61271414D01*
X112792477Y-61235000D01*
X113817049Y-61235000D01*
X113957111Y-61328586D01*
X114127271Y-61399068D01*
X114307911Y-61435000D01*
X114492089Y-61435000D01*
X114672729Y-61399068D01*
X114842889Y-61328586D01*
X114996028Y-61226262D01*
X115126262Y-61096028D01*
X115228586Y-60942889D01*
X115299068Y-60772729D01*
X115335000Y-60592089D01*
X115335000Y-60474446D01*
X118754750Y-63894197D01*
X118777766Y-63922242D01*
X118889684Y-64014091D01*
X119017371Y-64082341D01*
X119137234Y-64118701D01*
X119155919Y-64124369D01*
X119300004Y-64138560D01*
X119336109Y-64135004D01*
X138400975Y-64135004D01*
X138377692Y-64212119D01*
X138366067Y-64270826D01*
X138353635Y-64329316D01*
X138352673Y-64338470D01*
X138352672Y-64338476D01*
X138352672Y-64338481D01*
X138343195Y-64435142D01*
X138340000Y-64467582D01*
X138340001Y-75340000D01*
X114063699Y-75340000D01*
X114089432Y-75301487D01*
X114257911Y-75335000D01*
X114442089Y-75335000D01*
X114622729Y-75299068D01*
X114792889Y-75228586D01*
X114946028Y-75126262D01*
X115076262Y-74996028D01*
X115100000Y-74960502D01*
X115123738Y-74996028D01*
X115253972Y-75126262D01*
X115407111Y-75228586D01*
X115577271Y-75299068D01*
X115757911Y-75335000D01*
X115942089Y-75335000D01*
X116122729Y-75299068D01*
X116292889Y-75228586D01*
X116446028Y-75126262D01*
X116576262Y-74996028D01*
X116600000Y-74960502D01*
X116623738Y-74996028D01*
X116753972Y-75126262D01*
X116907111Y-75228586D01*
X117077271Y-75299068D01*
X117257911Y-75335000D01*
X117442089Y-75335000D01*
X117622729Y-75299068D01*
X117792889Y-75228586D01*
X117946028Y-75126262D01*
X118076262Y-74996028D01*
X118178586Y-74842889D01*
X118249068Y-74672729D01*
X118285000Y-74492089D01*
X118285000Y-74307911D01*
X118249068Y-74127271D01*
X118178586Y-73957111D01*
X118076262Y-73803972D01*
X117946028Y-73673738D01*
X117920814Y-73656890D01*
X130553524Y-73656890D01*
X130645648Y-73919858D01*
X130792504Y-74171193D01*
X130985571Y-74389049D01*
X131217430Y-74565053D01*
X131479170Y-74692442D01*
X131760733Y-74766320D01*
X131993000Y-74626165D01*
X131993000Y-73427000D01*
X132247000Y-73427000D01*
X132247000Y-74626165D01*
X132479267Y-74766320D01*
X132760830Y-74692442D01*
X133022570Y-74565053D01*
X133254429Y-74389049D01*
X133447496Y-74171193D01*
X133594352Y-73919858D01*
X133686476Y-73656890D01*
X133565155Y-73427000D01*
X132247000Y-73427000D01*
X131993000Y-73427000D01*
X130674845Y-73427000D01*
X130553524Y-73656890D01*
X117920814Y-73656890D01*
X117792889Y-73571414D01*
X117622729Y-73500932D01*
X117457515Y-73468068D01*
X117395259Y-73405813D01*
X117372239Y-73377763D01*
X117260321Y-73285914D01*
X117132634Y-73217664D01*
X116994086Y-73175636D01*
X116886106Y-73165001D01*
X116850001Y-73161445D01*
X116813896Y-73165001D01*
X116504448Y-73165001D01*
X115835000Y-72495554D01*
X115835000Y-68300000D01*
X130502815Y-68300000D01*
X130531487Y-68591111D01*
X130616401Y-68871034D01*
X130754294Y-69129014D01*
X130939866Y-69355134D01*
X131165986Y-69540706D01*
X131183374Y-69550000D01*
X131165986Y-69559294D01*
X130939866Y-69744866D01*
X130754294Y-69970986D01*
X130616401Y-70228966D01*
X130531487Y-70508889D01*
X130502815Y-70800000D01*
X130531487Y-71091111D01*
X130616401Y-71371034D01*
X130754294Y-71629014D01*
X130939866Y-71855134D01*
X131165986Y-72040706D01*
X131191722Y-72054462D01*
X130985571Y-72210951D01*
X130792504Y-72428807D01*
X130645648Y-72680142D01*
X130553524Y-72943110D01*
X130674845Y-73173000D01*
X131993000Y-73173000D01*
X131993000Y-73153000D01*
X132247000Y-73153000D01*
X132247000Y-73173000D01*
X133565155Y-73173000D01*
X133686476Y-72943110D01*
X133594352Y-72680142D01*
X133447496Y-72428807D01*
X133254429Y-72210951D01*
X133048278Y-72054462D01*
X133074014Y-72040706D01*
X133300134Y-71855134D01*
X133485706Y-71629014D01*
X133623599Y-71371034D01*
X133708513Y-71091111D01*
X133737185Y-70800000D01*
X133708513Y-70508889D01*
X133623599Y-70228966D01*
X133485706Y-69970986D01*
X133300134Y-69744866D01*
X133074014Y-69559294D01*
X133056626Y-69550000D01*
X133074014Y-69540706D01*
X133300134Y-69355134D01*
X133485706Y-69129014D01*
X133623599Y-68871034D01*
X133708513Y-68591111D01*
X133737185Y-68300000D01*
X133708513Y-68008889D01*
X133623599Y-67728966D01*
X133485706Y-67470986D01*
X133300134Y-67244866D01*
X133236663Y-67192777D01*
X133338386Y-67138405D01*
X133472962Y-67027962D01*
X133583405Y-66893386D01*
X133665472Y-66739850D01*
X133716008Y-66573254D01*
X133733072Y-66400000D01*
X133733072Y-65200000D01*
X133716008Y-65026746D01*
X133665472Y-64860150D01*
X133583405Y-64706614D01*
X133472962Y-64572038D01*
X133338386Y-64461595D01*
X133184850Y-64379528D01*
X133018254Y-64328992D01*
X132845000Y-64311928D01*
X131395000Y-64311928D01*
X131221746Y-64328992D01*
X131055150Y-64379528D01*
X130901614Y-64461595D01*
X130767038Y-64572038D01*
X130656595Y-64706614D01*
X130574528Y-64860150D01*
X130523992Y-65026746D01*
X130506928Y-65200000D01*
X130506928Y-66400000D01*
X130523992Y-66573254D01*
X130574528Y-66739850D01*
X130656595Y-66893386D01*
X130767038Y-67027962D01*
X130901614Y-67138405D01*
X131003337Y-67192777D01*
X130939866Y-67244866D01*
X130754294Y-67470986D01*
X130616401Y-67728966D01*
X130531487Y-68008889D01*
X130502815Y-68300000D01*
X115835000Y-68300000D01*
X115835000Y-65882951D01*
X115928586Y-65742889D01*
X115999068Y-65572729D01*
X116035000Y-65392089D01*
X116035000Y-65207911D01*
X115999068Y-65027271D01*
X115928586Y-64857111D01*
X115826262Y-64703972D01*
X115696028Y-64573738D01*
X115542889Y-64471414D01*
X115435000Y-64426725D01*
X115435000Y-64407911D01*
X115399068Y-64227271D01*
X115328586Y-64057111D01*
X115226262Y-63903972D01*
X115096028Y-63773738D01*
X114942889Y-63671414D01*
X114835000Y-63626725D01*
X114835000Y-63607911D01*
X114799068Y-63427271D01*
X114728586Y-63257111D01*
X114626262Y-63103972D01*
X114496028Y-62973738D01*
X114342889Y-62871414D01*
X114172729Y-62800932D01*
X113992089Y-62765000D01*
X113807911Y-62765000D01*
X113627271Y-62800932D01*
X113457111Y-62871414D01*
X113303972Y-62973738D01*
X113173738Y-63103972D01*
X113071414Y-63257111D01*
X113000932Y-63427271D01*
X112965000Y-63607911D01*
X112965000Y-63792089D01*
X113000932Y-63972729D01*
X113071414Y-64142889D01*
X113165001Y-64282952D01*
X113165001Y-67565579D01*
X112987271Y-67600932D01*
X112817111Y-67671414D01*
X112663972Y-67773738D01*
X112533738Y-67903972D01*
X112431414Y-68057111D01*
X112360932Y-68227271D01*
X112325000Y-68407911D01*
X112325000Y-68592089D01*
X112360932Y-68772729D01*
X112431414Y-68942889D01*
X112533738Y-69096028D01*
X112545001Y-69107291D01*
X112545000Y-72683895D01*
X112541444Y-72720000D01*
X112555292Y-72860603D01*
X112555635Y-72864084D01*
X112565001Y-72894959D01*
X112565000Y-74217049D01*
X112471414Y-74357111D01*
X112400932Y-74527271D01*
X112365000Y-74707911D01*
X112365000Y-74892089D01*
X112400932Y-75072729D01*
X112471414Y-75242889D01*
X112536301Y-75340000D01*
X97532279Y-75340000D01*
X97143224Y-75301853D01*
X96800036Y-75198238D01*
X96483511Y-75029939D01*
X96205704Y-74803365D01*
X95977195Y-74527146D01*
X95806690Y-74211803D01*
X95700681Y-73869344D01*
X95660000Y-73482288D01*
X95660000Y-71477911D01*
X104665000Y-71477911D01*
X104665000Y-71662089D01*
X104700932Y-71842729D01*
X104771414Y-72012889D01*
X104865001Y-72152952D01*
X104865000Y-72712060D01*
X104771414Y-72852122D01*
X104700932Y-73022282D01*
X104665000Y-73202922D01*
X104665000Y-73387100D01*
X104700932Y-73567740D01*
X104771414Y-73737900D01*
X104873738Y-73891039D01*
X105003972Y-74021273D01*
X105157111Y-74123597D01*
X105327271Y-74194079D01*
X105507911Y-74230011D01*
X105692089Y-74230011D01*
X105872729Y-74194079D01*
X106042889Y-74123597D01*
X106196028Y-74021273D01*
X106326262Y-73891039D01*
X106428586Y-73737900D01*
X106499068Y-73567740D01*
X106535000Y-73387100D01*
X106535000Y-73202922D01*
X106499068Y-73022282D01*
X106428586Y-72852122D01*
X106335000Y-72712060D01*
X106335000Y-72152951D01*
X106428586Y-72012889D01*
X106499068Y-71842729D01*
X106535000Y-71662089D01*
X106535000Y-71477911D01*
X106499068Y-71297271D01*
X106428586Y-71127111D01*
X106326262Y-70973972D01*
X106196028Y-70843738D01*
X106042889Y-70741414D01*
X105872729Y-70670932D01*
X105692089Y-70635000D01*
X105507911Y-70635000D01*
X105327271Y-70670932D01*
X105157111Y-70741414D01*
X105003972Y-70843738D01*
X104873738Y-70973972D01*
X104771414Y-71127111D01*
X104700932Y-71297271D01*
X104665000Y-71477911D01*
X95660000Y-71477911D01*
X95660000Y-54441314D01*
X127620919Y-54441314D01*
X130000000Y-56820395D01*
X132379081Y-54441314D01*
X132042894Y-53972132D01*
X131412932Y-53631763D01*
X130728673Y-53420834D01*
X130016411Y-53347450D01*
X129303518Y-53414431D01*
X128617391Y-53619204D01*
X127984397Y-53953898D01*
X127957106Y-53972132D01*
X127620919Y-54441314D01*
X95660000Y-54441314D01*
X95660000Y-52660000D01*
X137915868Y-52660000D01*
X137911928Y-52700000D01*
X137911928Y-52700000D01*
G37*
X137911928Y-52700000D02*
X137911928Y-54400000D01*
X137924188Y-54524482D01*
X137960498Y-54644180D01*
X138019463Y-54754494D01*
X138098815Y-54851185D01*
X138195506Y-54930537D01*
X138305820Y-54989502D01*
X138425518Y-55025812D01*
X138550000Y-55038072D01*
X140550000Y-55038072D01*
X140674482Y-55025812D01*
X140794180Y-54989502D01*
X140904494Y-54930537D01*
X141001185Y-54851185D01*
X141080537Y-54754494D01*
X141139502Y-54644180D01*
X141175812Y-54524482D01*
X141188072Y-54400000D01*
X141188072Y-52700000D01*
X141184132Y-52660000D01*
X146815868Y-52660000D01*
X146811928Y-52700000D01*
X146811928Y-54400000D01*
X146824188Y-54524482D01*
X146860498Y-54644180D01*
X146919463Y-54754494D01*
X146998815Y-54851185D01*
X147095506Y-54930537D01*
X147205820Y-54989502D01*
X147325518Y-55025812D01*
X147450000Y-55038072D01*
X149450000Y-55038072D01*
X149574482Y-55025812D01*
X149694180Y-54989502D01*
X149804494Y-54930537D01*
X149901185Y-54851185D01*
X149980537Y-54754494D01*
X150039502Y-54644180D01*
X150075812Y-54524482D01*
X150084003Y-54441314D01*
X155620919Y-54441314D01*
X158000000Y-56820395D01*
X160379081Y-54441314D01*
X160042894Y-53972132D01*
X159412932Y-53631763D01*
X158728673Y-53420834D01*
X158016411Y-53347450D01*
X157303518Y-53414431D01*
X156617391Y-53619204D01*
X155984397Y-53953898D01*
X155957106Y-53972132D01*
X155620919Y-54441314D01*
X150084003Y-54441314D01*
X150088072Y-54400000D01*
X150088072Y-52700000D01*
X150084132Y-52660000D01*
X163340000Y-52660000D01*
X163340001Y-61467711D01*
X163301853Y-61856776D01*
X163198238Y-62199964D01*
X163029939Y-62516489D01*
X162803365Y-62794296D01*
X162527146Y-63022805D01*
X162211803Y-63193310D01*
X161869344Y-63299319D01*
X161482288Y-63340000D01*
X145790770Y-63340000D01*
X145825812Y-63224482D01*
X145838072Y-63100000D01*
X145838072Y-62600000D01*
X145825812Y-62475518D01*
X145789502Y-62355820D01*
X145730537Y-62245506D01*
X145651185Y-62148815D01*
X145591704Y-62100000D01*
X145651185Y-62051185D01*
X145730537Y-61954494D01*
X145789502Y-61844180D01*
X145825812Y-61724482D01*
X145838072Y-61600000D01*
X145838072Y-61100000D01*
X145825812Y-60975518D01*
X145789502Y-60855820D01*
X145730537Y-60745506D01*
X145721915Y-60735000D01*
X145727002Y-60735000D01*
X145727002Y-60580252D01*
X145881750Y-60735000D01*
X145982013Y-60724266D01*
X146101264Y-60686517D01*
X146210860Y-60626228D01*
X146306588Y-60545716D01*
X146384770Y-60448076D01*
X146442401Y-60337059D01*
X146477266Y-60216933D01*
X146488026Y-60092312D01*
X146485000Y-59385750D01*
X146326250Y-59227000D01*
X145723000Y-59227000D01*
X145723000Y-59247000D01*
X145546250Y-59247000D01*
X145526250Y-59227000D01*
X145453000Y-59227000D01*
X145453000Y-58973000D01*
X145526250Y-58973000D01*
X145685000Y-58814250D01*
X145688026Y-58107688D01*
X145677266Y-57983067D01*
X145642401Y-57862941D01*
X145584770Y-57751924D01*
X145506588Y-57654284D01*
X145477000Y-57629399D01*
X145477000Y-57623750D01*
X145318250Y-57465000D01*
X145217987Y-57475734D01*
X145200000Y-57481428D01*
X145182013Y-57475734D01*
X145081750Y-57465000D01*
X144923000Y-57623750D01*
X144923000Y-57629399D01*
X144893412Y-57654284D01*
X144815230Y-57751924D01*
X144799827Y-57781595D01*
X144780537Y-57745506D01*
X144701185Y-57648815D01*
X144677000Y-57628967D01*
X144677000Y-57623750D01*
X144518250Y-57465000D01*
X144417987Y-57475734D01*
X144399192Y-57481684D01*
X144374482Y-57474188D01*
X144250000Y-57461928D01*
X143750000Y-57461928D01*
X143625518Y-57474188D01*
X143600000Y-57481929D01*
X143574482Y-57474188D01*
X143450000Y-57461928D01*
X142950000Y-57461928D01*
X142825518Y-57474188D01*
X142800000Y-57481929D01*
X142774482Y-57474188D01*
X142650000Y-57461928D01*
X142202177Y-57461928D01*
X142337624Y-57405824D01*
X142523520Y-57281612D01*
X142681612Y-57123520D01*
X142805824Y-56937624D01*
X142891383Y-56731067D01*
X142935000Y-56511788D01*
X142935000Y-56288212D01*
X145065000Y-56288212D01*
X145065000Y-56511788D01*
X145108617Y-56731067D01*
X145194176Y-56937624D01*
X145318388Y-57123520D01*
X145476480Y-57281612D01*
X145662376Y-57405824D01*
X145859340Y-57487410D01*
X145723000Y-57623750D01*
X145723000Y-58973000D01*
X146326250Y-58973000D01*
X146485000Y-58814250D01*
X146487844Y-58150000D01*
X146811928Y-58150000D01*
X146811928Y-59850000D01*
X146824188Y-59974482D01*
X146860498Y-60094180D01*
X146919463Y-60204494D01*
X146998815Y-60301185D01*
X147095506Y-60380537D01*
X147205820Y-60439502D01*
X147325518Y-60475812D01*
X147450000Y-60488072D01*
X149450000Y-60488072D01*
X149574482Y-60475812D01*
X149694180Y-60439502D01*
X149804494Y-60380537D01*
X149901185Y-60301185D01*
X149980537Y-60204494D01*
X150039502Y-60094180D01*
X150075812Y-59974482D01*
X150088072Y-59850000D01*
X150088072Y-59558686D01*
X155620919Y-59558686D01*
X155957106Y-60027868D01*
X156587068Y-60368237D01*
X157271327Y-60579166D01*
X157983589Y-60652550D01*
X158696482Y-60585569D01*
X159382609Y-60380796D01*
X160015603Y-60046102D01*
X160042894Y-60027868D01*
X160379081Y-59558686D01*
X158000000Y-57179605D01*
X155620919Y-59558686D01*
X150088072Y-59558686D01*
X150088072Y-58150000D01*
X150075812Y-58025518D01*
X150039502Y-57905820D01*
X149980537Y-57795506D01*
X149901185Y-57698815D01*
X149804494Y-57619463D01*
X149694180Y-57560498D01*
X149574482Y-57524188D01*
X149450000Y-57511928D01*
X147450000Y-57511928D01*
X147325518Y-57524188D01*
X147205820Y-57560498D01*
X147095506Y-57619463D01*
X146998815Y-57698815D01*
X146919463Y-57795506D01*
X146860498Y-57905820D01*
X146824188Y-58025518D01*
X146811928Y-58150000D01*
X146487844Y-58150000D01*
X146488026Y-58107688D01*
X146477266Y-57983067D01*
X146442401Y-57862941D01*
X146384770Y-57751924D01*
X146306588Y-57654284D01*
X146210860Y-57573772D01*
X146140379Y-57535000D01*
X146311788Y-57535000D01*
X146531067Y-57491383D01*
X146737624Y-57405824D01*
X146923520Y-57281612D01*
X147081612Y-57123520D01*
X147175111Y-56983589D01*
X154347450Y-56983589D01*
X154414431Y-57696482D01*
X154619204Y-58382609D01*
X154953898Y-59015603D01*
X154972132Y-59042894D01*
X155441314Y-59379081D01*
X157820395Y-57000000D01*
X158179605Y-57000000D01*
X160558686Y-59379081D01*
X161027868Y-59042894D01*
X161368237Y-58412932D01*
X161579166Y-57728673D01*
X161652550Y-57016411D01*
X161585569Y-56303518D01*
X161380796Y-55617391D01*
X161046102Y-54984397D01*
X161027868Y-54957106D01*
X160558686Y-54620919D01*
X158179605Y-57000000D01*
X157820395Y-57000000D01*
X155441314Y-54620919D01*
X154972132Y-54957106D01*
X154631763Y-55587068D01*
X154420834Y-56271327D01*
X154347450Y-56983589D01*
X147175111Y-56983589D01*
X147205824Y-56937624D01*
X147291383Y-56731067D01*
X147335000Y-56511788D01*
X147335000Y-56288212D01*
X147291383Y-56068933D01*
X147205824Y-55862376D01*
X147081612Y-55676480D01*
X146923520Y-55518388D01*
X146737624Y-55394176D01*
X146531067Y-55308617D01*
X146311788Y-55265000D01*
X146088212Y-55265000D01*
X145868933Y-55308617D01*
X145662376Y-55394176D01*
X145476480Y-55518388D01*
X145318388Y-55676480D01*
X145194176Y-55862376D01*
X145108617Y-56068933D01*
X145065000Y-56288212D01*
X142935000Y-56288212D01*
X142891383Y-56068933D01*
X142805824Y-55862376D01*
X142681612Y-55676480D01*
X142523520Y-55518388D01*
X142337624Y-55394176D01*
X142131067Y-55308617D01*
X141911788Y-55265000D01*
X141688212Y-55265000D01*
X141468933Y-55308617D01*
X141262376Y-55394176D01*
X141076480Y-55518388D01*
X140918388Y-55676480D01*
X140794176Y-55862376D01*
X140708617Y-56068933D01*
X140665000Y-56288212D01*
X140665000Y-56511788D01*
X140708617Y-56731067D01*
X140794176Y-56937624D01*
X140918388Y-57123520D01*
X141076480Y-57281612D01*
X141262376Y-57405824D01*
X141468933Y-57491383D01*
X141688212Y-57535000D01*
X141859981Y-57535000D01*
X141795506Y-57569463D01*
X141698815Y-57648815D01*
X141619463Y-57745506D01*
X141560498Y-57855820D01*
X141524188Y-57975518D01*
X141511928Y-58100000D01*
X141511928Y-60100000D01*
X141524188Y-60224482D01*
X141560498Y-60344180D01*
X141579961Y-60380592D01*
X140495554Y-61465000D01*
X132682951Y-61465000D01*
X132542889Y-61371414D01*
X132372729Y-61300932D01*
X132192089Y-61265000D01*
X132007911Y-61265000D01*
X131827271Y-61300932D01*
X131657111Y-61371414D01*
X131517049Y-61465000D01*
X120282951Y-61465000D01*
X120142889Y-61371414D01*
X119972729Y-61300932D01*
X119807515Y-61268069D01*
X118098132Y-59558686D01*
X127620919Y-59558686D01*
X127957106Y-60027868D01*
X128587068Y-60368237D01*
X129271327Y-60579166D01*
X129983589Y-60652550D01*
X130696482Y-60585569D01*
X131382609Y-60380796D01*
X132015603Y-60046102D01*
X132042894Y-60027868D01*
X132379081Y-59558686D01*
X130000000Y-57179605D01*
X127620919Y-59558686D01*
X118098132Y-59558686D01*
X116145259Y-57605813D01*
X116122238Y-57577762D01*
X116010320Y-57485913D01*
X115882633Y-57417663D01*
X115744085Y-57375635D01*
X115636105Y-57365000D01*
X115600000Y-57361444D01*
X115563895Y-57365000D01*
X113020451Y-57365000D01*
X112880389Y-57271414D01*
X112710229Y-57200932D01*
X112529589Y-57165000D01*
X112345411Y-57165000D01*
X112164771Y-57200932D01*
X111994611Y-57271414D01*
X111841472Y-57373738D01*
X111711238Y-57503972D01*
X111608914Y-57657111D01*
X111538432Y-57827271D01*
X111502500Y-58007911D01*
X111502500Y-58192089D01*
X111538432Y-58372729D01*
X111591149Y-58500000D01*
X111538432Y-58627271D01*
X111502500Y-58807911D01*
X111502500Y-58992089D01*
X111538432Y-59172729D01*
X111591149Y-59300000D01*
X111538432Y-59427271D01*
X111502500Y-59607911D01*
X111502500Y-59765000D01*
X109892449Y-59765000D01*
X107933259Y-57805811D01*
X107910239Y-57777761D01*
X107798321Y-57685912D01*
X107670634Y-57617662D01*
X107532086Y-57575634D01*
X107424106Y-57564999D01*
X107388001Y-57561443D01*
X107351896Y-57564999D01*
X98585701Y-57564999D01*
X98528586Y-57427111D01*
X98426262Y-57273972D01*
X98296028Y-57143738D01*
X98142889Y-57041414D01*
X98003286Y-56983589D01*
X126347450Y-56983589D01*
X126414431Y-57696482D01*
X126619204Y-58382609D01*
X126953898Y-59015603D01*
X126972132Y-59042894D01*
X127441314Y-59379081D01*
X129820395Y-57000000D01*
X130179605Y-57000000D01*
X132558686Y-59379081D01*
X133027868Y-59042894D01*
X133368237Y-58412932D01*
X133449288Y-58150000D01*
X137911928Y-58150000D01*
X137911928Y-59850000D01*
X137924188Y-59974482D01*
X137960498Y-60094180D01*
X138019463Y-60204494D01*
X138098815Y-60301185D01*
X138195506Y-60380537D01*
X138305820Y-60439502D01*
X138425518Y-60475812D01*
X138550000Y-60488072D01*
X140550000Y-60488072D01*
X140674482Y-60475812D01*
X140794180Y-60439502D01*
X140904494Y-60380537D01*
X141001185Y-60301185D01*
X141080537Y-60204494D01*
X141139502Y-60094180D01*
X141175812Y-59974482D01*
X141188072Y-59850000D01*
X141188072Y-58150000D01*
X141175812Y-58025518D01*
X141139502Y-57905820D01*
X141080537Y-57795506D01*
X141001185Y-57698815D01*
X140904494Y-57619463D01*
X140794180Y-57560498D01*
X140674482Y-57524188D01*
X140550000Y-57511928D01*
X138550000Y-57511928D01*
X138425518Y-57524188D01*
X138305820Y-57560498D01*
X138195506Y-57619463D01*
X138098815Y-57698815D01*
X138019463Y-57795506D01*
X137960498Y-57905820D01*
X137924188Y-58025518D01*
X137911928Y-58150000D01*
X133449288Y-58150000D01*
X133579166Y-57728673D01*
X133652550Y-57016411D01*
X133585569Y-56303518D01*
X133380796Y-55617391D01*
X133046102Y-54984397D01*
X133027868Y-54957106D01*
X132558686Y-54620919D01*
X130179605Y-57000000D01*
X129820395Y-57000000D01*
X127441314Y-54620919D01*
X126972132Y-54957106D01*
X126631763Y-55587068D01*
X126420834Y-56271327D01*
X126347450Y-56983589D01*
X98003286Y-56983589D01*
X97972729Y-56970932D01*
X97792089Y-56935000D01*
X97607911Y-56935000D01*
X97427271Y-56970932D01*
X97257111Y-57041414D01*
X97103972Y-57143738D01*
X96973738Y-57273972D01*
X96871414Y-57427111D01*
X96800932Y-57597271D01*
X96765000Y-57777911D01*
X96765000Y-57962089D01*
X96800932Y-58142729D01*
X96821784Y-58193071D01*
X96305808Y-58709047D01*
X96277762Y-58732064D01*
X96185913Y-58843982D01*
X96117663Y-58971669D01*
X96098452Y-59034999D01*
X96075635Y-59110216D01*
X96061444Y-59254301D01*
X96065000Y-59290406D01*
X96065001Y-60933885D01*
X96061444Y-60970000D01*
X96075635Y-61114085D01*
X96105971Y-61214087D01*
X96117664Y-61252633D01*
X96185914Y-61380320D01*
X96277763Y-61492238D01*
X96305808Y-61515254D01*
X96768068Y-61977515D01*
X96800932Y-62142729D01*
X96871414Y-62312889D01*
X96973738Y-62466028D01*
X97103972Y-62596262D01*
X97257111Y-62698586D01*
X97427271Y-62769068D01*
X97607911Y-62805000D01*
X97792089Y-62805000D01*
X97972729Y-62769068D01*
X98142889Y-62698586D01*
X98296028Y-62596262D01*
X98426262Y-62466028D01*
X98528586Y-62312889D01*
X98599068Y-62142729D01*
X98635000Y-61962089D01*
X98635000Y-61777911D01*
X98599068Y-61597271D01*
X98528586Y-61427111D01*
X98426262Y-61273972D01*
X98296028Y-61143738D01*
X98142889Y-61041414D01*
X97972729Y-60970932D01*
X97807515Y-60938068D01*
X97535000Y-60665554D01*
X97535000Y-60290497D01*
X97607911Y-60305000D01*
X97792089Y-60305000D01*
X97972729Y-60269068D01*
X98142889Y-60198586D01*
X98296028Y-60096262D01*
X98426262Y-59966028D01*
X98528586Y-59812889D01*
X98599068Y-59642729D01*
X98635000Y-59462089D01*
X98635000Y-59277911D01*
X98599068Y-59097271D01*
X98588263Y-59071184D01*
X98624448Y-59034999D01*
X102399395Y-59034999D01*
X102368068Y-59192485D01*
X101662542Y-59898012D01*
X101634497Y-59921028D01*
X101542648Y-60032946D01*
X101483882Y-60142889D01*
X101474398Y-60160633D01*
X101432369Y-60299181D01*
X101418178Y-60443266D01*
X101421734Y-60479371D01*
X101421734Y-60560315D01*
X101328148Y-60700377D01*
X101257666Y-60870537D01*
X101221734Y-61051177D01*
X101221734Y-61235355D01*
X101257666Y-61415995D01*
X101328148Y-61586155D01*
X101430472Y-61739294D01*
X101560706Y-61869528D01*
X101713845Y-61971852D01*
X101884005Y-62042334D01*
X102064645Y-62078266D01*
X102248823Y-62078266D01*
X102429463Y-62042334D01*
X102599623Y-61971852D01*
X102752762Y-61869528D01*
X102882996Y-61739294D01*
X102985320Y-61586155D01*
X103055802Y-61415995D01*
X103060991Y-61389909D01*
X106434210Y-64763129D01*
X106371414Y-64857111D01*
X106300932Y-65027271D01*
X106265000Y-65207911D01*
X106265000Y-65392089D01*
X106300932Y-65572729D01*
X106371414Y-65742889D01*
X106473738Y-65896028D01*
X106603972Y-66026262D01*
X106757111Y-66128586D01*
X106865000Y-66173275D01*
X106865000Y-66192089D01*
X106900932Y-66372729D01*
X106971414Y-66542889D01*
X107073738Y-66696028D01*
X107203972Y-66826262D01*
X107357111Y-66928586D01*
X107527271Y-66999068D01*
X107568000Y-67007170D01*
X107600932Y-67172729D01*
X107671414Y-67342889D01*
X107773738Y-67496028D01*
X107903972Y-67626262D01*
X108057111Y-67728586D01*
X108227271Y-67799068D01*
X108407911Y-67835000D01*
X108465001Y-67835000D01*
X108465001Y-67917048D01*
X108371414Y-68057111D01*
X108300932Y-68227271D01*
X108265000Y-68407911D01*
X108265000Y-68592089D01*
X108300932Y-68772729D01*
X108371414Y-68942889D01*
X108465000Y-69082951D01*
X108465001Y-69932960D01*
X108403972Y-69973738D01*
X108273738Y-70103972D01*
X108171414Y-70257111D01*
X108100932Y-70427271D01*
X108065000Y-70607911D01*
X108065000Y-70792089D01*
X108100932Y-70972729D01*
X108171414Y-71142889D01*
X108273738Y-71296028D01*
X108403972Y-71426262D01*
X108557111Y-71528586D01*
X108727271Y-71599068D01*
X108907911Y-71635000D01*
X109092089Y-71635000D01*
X109272729Y-71599068D01*
X109442889Y-71528586D01*
X109596028Y-71426262D01*
X109726262Y-71296028D01*
X109828586Y-71142889D01*
X109899068Y-70972729D01*
X109935000Y-70792089D01*
X109935000Y-70607911D01*
X109930270Y-70584131D01*
X109935000Y-70536105D01*
X109938556Y-70500000D01*
X109935000Y-70463895D01*
X109935000Y-69082951D01*
X110028586Y-68942889D01*
X110099068Y-68772729D01*
X110135000Y-68592089D01*
X110135000Y-68407911D01*
X110099068Y-68227271D01*
X110028586Y-68057111D01*
X109935000Y-67917049D01*
X109935000Y-64382951D01*
X110028586Y-64242889D01*
X110099068Y-64072729D01*
X110135000Y-63892089D01*
X110135000Y-63707911D01*
X110099068Y-63527271D01*
X110028586Y-63357111D01*
X109926262Y-63203972D01*
X109796028Y-63073738D01*
X109642889Y-62971414D01*
X109589957Y-62949489D01*
X109704447Y-62835000D01*
X111854549Y-62835000D01*
X111994611Y-62928586D01*
X112164771Y-62999068D01*
X112345411Y-63035000D01*
X112529589Y-63035000D01*
X112710229Y-62999068D01*
X112880389Y-62928586D01*
X113033528Y-62826262D01*
X113163762Y-62696028D01*
X113266086Y-62542889D01*
X113336568Y-62372729D01*
X113372500Y-62192089D01*
X113372500Y-62007911D01*
X113336568Y-61827271D01*
X113266086Y-61657111D01*
X113163762Y-61503972D01*
X113033528Y-61373738D01*
X112880389Y-61271414D01*
X112792477Y-61235000D01*
X113817049Y-61235000D01*
X113957111Y-61328586D01*
X114127271Y-61399068D01*
X114307911Y-61435000D01*
X114492089Y-61435000D01*
X114672729Y-61399068D01*
X114842889Y-61328586D01*
X114996028Y-61226262D01*
X115126262Y-61096028D01*
X115228586Y-60942889D01*
X115299068Y-60772729D01*
X115335000Y-60592089D01*
X115335000Y-60474446D01*
X118754750Y-63894197D01*
X118777766Y-63922242D01*
X118889684Y-64014091D01*
X119017371Y-64082341D01*
X119137234Y-64118701D01*
X119155919Y-64124369D01*
X119300004Y-64138560D01*
X119336109Y-64135004D01*
X138400975Y-64135004D01*
X138377692Y-64212119D01*
X138366067Y-64270826D01*
X138353635Y-64329316D01*
X138352673Y-64338470D01*
X138352672Y-64338476D01*
X138352672Y-64338481D01*
X138343195Y-64435142D01*
X138340000Y-64467582D01*
X138340001Y-75340000D01*
X114063699Y-75340000D01*
X114089432Y-75301487D01*
X114257911Y-75335000D01*
X114442089Y-75335000D01*
X114622729Y-75299068D01*
X114792889Y-75228586D01*
X114946028Y-75126262D01*
X115076262Y-74996028D01*
X115100000Y-74960502D01*
X115123738Y-74996028D01*
X115253972Y-75126262D01*
X115407111Y-75228586D01*
X115577271Y-75299068D01*
X115757911Y-75335000D01*
X115942089Y-75335000D01*
X116122729Y-75299068D01*
X116292889Y-75228586D01*
X116446028Y-75126262D01*
X116576262Y-74996028D01*
X116600000Y-74960502D01*
X116623738Y-74996028D01*
X116753972Y-75126262D01*
X116907111Y-75228586D01*
X117077271Y-75299068D01*
X117257911Y-75335000D01*
X117442089Y-75335000D01*
X117622729Y-75299068D01*
X117792889Y-75228586D01*
X117946028Y-75126262D01*
X118076262Y-74996028D01*
X118178586Y-74842889D01*
X118249068Y-74672729D01*
X118285000Y-74492089D01*
X118285000Y-74307911D01*
X118249068Y-74127271D01*
X118178586Y-73957111D01*
X118076262Y-73803972D01*
X117946028Y-73673738D01*
X117920814Y-73656890D01*
X130553524Y-73656890D01*
X130645648Y-73919858D01*
X130792504Y-74171193D01*
X130985571Y-74389049D01*
X131217430Y-74565053D01*
X131479170Y-74692442D01*
X131760733Y-74766320D01*
X131993000Y-74626165D01*
X131993000Y-73427000D01*
X132247000Y-73427000D01*
X132247000Y-74626165D01*
X132479267Y-74766320D01*
X132760830Y-74692442D01*
X133022570Y-74565053D01*
X133254429Y-74389049D01*
X133447496Y-74171193D01*
X133594352Y-73919858D01*
X133686476Y-73656890D01*
X133565155Y-73427000D01*
X132247000Y-73427000D01*
X131993000Y-73427000D01*
X130674845Y-73427000D01*
X130553524Y-73656890D01*
X117920814Y-73656890D01*
X117792889Y-73571414D01*
X117622729Y-73500932D01*
X117457515Y-73468068D01*
X117395259Y-73405813D01*
X117372239Y-73377763D01*
X117260321Y-73285914D01*
X117132634Y-73217664D01*
X116994086Y-73175636D01*
X116886106Y-73165001D01*
X116850001Y-73161445D01*
X116813896Y-73165001D01*
X116504448Y-73165001D01*
X115835000Y-72495554D01*
X115835000Y-68300000D01*
X130502815Y-68300000D01*
X130531487Y-68591111D01*
X130616401Y-68871034D01*
X130754294Y-69129014D01*
X130939866Y-69355134D01*
X131165986Y-69540706D01*
X131183374Y-69550000D01*
X131165986Y-69559294D01*
X130939866Y-69744866D01*
X130754294Y-69970986D01*
X130616401Y-70228966D01*
X130531487Y-70508889D01*
X130502815Y-70800000D01*
X130531487Y-71091111D01*
X130616401Y-71371034D01*
X130754294Y-71629014D01*
X130939866Y-71855134D01*
X131165986Y-72040706D01*
X131191722Y-72054462D01*
X130985571Y-72210951D01*
X130792504Y-72428807D01*
X130645648Y-72680142D01*
X130553524Y-72943110D01*
X130674845Y-73173000D01*
X131993000Y-73173000D01*
X131993000Y-73153000D01*
X132247000Y-73153000D01*
X132247000Y-73173000D01*
X133565155Y-73173000D01*
X133686476Y-72943110D01*
X133594352Y-72680142D01*
X133447496Y-72428807D01*
X133254429Y-72210951D01*
X133048278Y-72054462D01*
X133074014Y-72040706D01*
X133300134Y-71855134D01*
X133485706Y-71629014D01*
X133623599Y-71371034D01*
X133708513Y-71091111D01*
X133737185Y-70800000D01*
X133708513Y-70508889D01*
X133623599Y-70228966D01*
X133485706Y-69970986D01*
X133300134Y-69744866D01*
X133074014Y-69559294D01*
X133056626Y-69550000D01*
X133074014Y-69540706D01*
X133300134Y-69355134D01*
X133485706Y-69129014D01*
X133623599Y-68871034D01*
X133708513Y-68591111D01*
X133737185Y-68300000D01*
X133708513Y-68008889D01*
X133623599Y-67728966D01*
X133485706Y-67470986D01*
X133300134Y-67244866D01*
X133236663Y-67192777D01*
X133338386Y-67138405D01*
X133472962Y-67027962D01*
X133583405Y-66893386D01*
X133665472Y-66739850D01*
X133716008Y-66573254D01*
X133733072Y-66400000D01*
X133733072Y-65200000D01*
X133716008Y-65026746D01*
X133665472Y-64860150D01*
X133583405Y-64706614D01*
X133472962Y-64572038D01*
X133338386Y-64461595D01*
X133184850Y-64379528D01*
X133018254Y-64328992D01*
X132845000Y-64311928D01*
X131395000Y-64311928D01*
X131221746Y-64328992D01*
X131055150Y-64379528D01*
X130901614Y-64461595D01*
X130767038Y-64572038D01*
X130656595Y-64706614D01*
X130574528Y-64860150D01*
X130523992Y-65026746D01*
X130506928Y-65200000D01*
X130506928Y-66400000D01*
X130523992Y-66573254D01*
X130574528Y-66739850D01*
X130656595Y-66893386D01*
X130767038Y-67027962D01*
X130901614Y-67138405D01*
X131003337Y-67192777D01*
X130939866Y-67244866D01*
X130754294Y-67470986D01*
X130616401Y-67728966D01*
X130531487Y-68008889D01*
X130502815Y-68300000D01*
X115835000Y-68300000D01*
X115835000Y-65882951D01*
X115928586Y-65742889D01*
X115999068Y-65572729D01*
X116035000Y-65392089D01*
X116035000Y-65207911D01*
X115999068Y-65027271D01*
X115928586Y-64857111D01*
X115826262Y-64703972D01*
X115696028Y-64573738D01*
X115542889Y-64471414D01*
X115435000Y-64426725D01*
X115435000Y-64407911D01*
X115399068Y-64227271D01*
X115328586Y-64057111D01*
X115226262Y-63903972D01*
X115096028Y-63773738D01*
X114942889Y-63671414D01*
X114835000Y-63626725D01*
X114835000Y-63607911D01*
X114799068Y-63427271D01*
X114728586Y-63257111D01*
X114626262Y-63103972D01*
X114496028Y-62973738D01*
X114342889Y-62871414D01*
X114172729Y-62800932D01*
X113992089Y-62765000D01*
X113807911Y-62765000D01*
X113627271Y-62800932D01*
X113457111Y-62871414D01*
X113303972Y-62973738D01*
X113173738Y-63103972D01*
X113071414Y-63257111D01*
X113000932Y-63427271D01*
X112965000Y-63607911D01*
X112965000Y-63792089D01*
X113000932Y-63972729D01*
X113071414Y-64142889D01*
X113165001Y-64282952D01*
X113165001Y-67565579D01*
X112987271Y-67600932D01*
X112817111Y-67671414D01*
X112663972Y-67773738D01*
X112533738Y-67903972D01*
X112431414Y-68057111D01*
X112360932Y-68227271D01*
X112325000Y-68407911D01*
X112325000Y-68592089D01*
X112360932Y-68772729D01*
X112431414Y-68942889D01*
X112533738Y-69096028D01*
X112545001Y-69107291D01*
X112545000Y-72683895D01*
X112541444Y-72720000D01*
X112555292Y-72860603D01*
X112555635Y-72864084D01*
X112565001Y-72894959D01*
X112565000Y-74217049D01*
X112471414Y-74357111D01*
X112400932Y-74527271D01*
X112365000Y-74707911D01*
X112365000Y-74892089D01*
X112400932Y-75072729D01*
X112471414Y-75242889D01*
X112536301Y-75340000D01*
X97532279Y-75340000D01*
X97143224Y-75301853D01*
X96800036Y-75198238D01*
X96483511Y-75029939D01*
X96205704Y-74803365D01*
X95977195Y-74527146D01*
X95806690Y-74211803D01*
X95700681Y-73869344D01*
X95660000Y-73482288D01*
X95660000Y-71477911D01*
X104665000Y-71477911D01*
X104665000Y-71662089D01*
X104700932Y-71842729D01*
X104771414Y-72012889D01*
X104865001Y-72152952D01*
X104865000Y-72712060D01*
X104771414Y-72852122D01*
X104700932Y-73022282D01*
X104665000Y-73202922D01*
X104665000Y-73387100D01*
X104700932Y-73567740D01*
X104771414Y-73737900D01*
X104873738Y-73891039D01*
X105003972Y-74021273D01*
X105157111Y-74123597D01*
X105327271Y-74194079D01*
X105507911Y-74230011D01*
X105692089Y-74230011D01*
X105872729Y-74194079D01*
X106042889Y-74123597D01*
X106196028Y-74021273D01*
X106326262Y-73891039D01*
X106428586Y-73737900D01*
X106499068Y-73567740D01*
X106535000Y-73387100D01*
X106535000Y-73202922D01*
X106499068Y-73022282D01*
X106428586Y-72852122D01*
X106335000Y-72712060D01*
X106335000Y-72152951D01*
X106428586Y-72012889D01*
X106499068Y-71842729D01*
X106535000Y-71662089D01*
X106535000Y-71477911D01*
X106499068Y-71297271D01*
X106428586Y-71127111D01*
X106326262Y-70973972D01*
X106196028Y-70843738D01*
X106042889Y-70741414D01*
X105872729Y-70670932D01*
X105692089Y-70635000D01*
X105507911Y-70635000D01*
X105327271Y-70670932D01*
X105157111Y-70741414D01*
X105003972Y-70843738D01*
X104873738Y-70973972D01*
X104771414Y-71127111D01*
X104700932Y-71297271D01*
X104665000Y-71477911D01*
X95660000Y-71477911D01*
X95660000Y-54441314D01*
X127620919Y-54441314D01*
X130000000Y-56820395D01*
X132379081Y-54441314D01*
X132042894Y-53972132D01*
X131412932Y-53631763D01*
X130728673Y-53420834D01*
X130016411Y-53347450D01*
X129303518Y-53414431D01*
X128617391Y-53619204D01*
X127984397Y-53953898D01*
X127957106Y-53972132D01*
X127620919Y-54441314D01*
X95660000Y-54441314D01*
X95660000Y-52660000D01*
X137915868Y-52660000D01*
X137911928Y-52700000D01*
G36*
X109042748Y-60994193D02*
G01*
X109065764Y-61022238D01*
X109177682Y-61114087D01*
X109305369Y-61182337D01*
X109443917Y-61224365D01*
X109551897Y-61235000D01*
X109551906Y-61235000D01*
X109588001Y-61238555D01*
X109624096Y-61235000D01*
X112082523Y-61235000D01*
X111994611Y-61271414D01*
X111854549Y-61365000D01*
X109436094Y-61365000D01*
X109399999Y-61361445D01*
X109363904Y-61365000D01*
X109363895Y-61365000D01*
X109255915Y-61375635D01*
X109117367Y-61417663D01*
X108989680Y-61485913D01*
X108877762Y-61577762D01*
X108854746Y-61605807D01*
X108735000Y-61725553D01*
X108735000Y-61677911D01*
X108699068Y-61497271D01*
X108628586Y-61327111D01*
X108526262Y-61173972D01*
X108396028Y-61043738D01*
X108242889Y-60941414D01*
X108072729Y-60870932D01*
X107892089Y-60835000D01*
X107707911Y-60835000D01*
X107527271Y-60870932D01*
X107357111Y-60941414D01*
X107203972Y-61043738D01*
X107073738Y-61173972D01*
X106971414Y-61327111D01*
X106900932Y-61497271D01*
X106865000Y-61677911D01*
X106865000Y-61862089D01*
X106900932Y-62042729D01*
X106971414Y-62212889D01*
X107065001Y-62352952D01*
X107065001Y-63315026D01*
X104087196Y-60337222D01*
X104054332Y-60172007D01*
X103983850Y-60001847D01*
X103958453Y-59963837D01*
X104026262Y-59896028D01*
X104128586Y-59742889D01*
X104199068Y-59572729D01*
X104235000Y-59392089D01*
X104235000Y-59207911D01*
X104200605Y-59034999D01*
X107083555Y-59034999D01*
X109042748Y-60994193D01*
X109042748Y-60994193D01*
G37*
X109042748Y-60994193D02*
X109065764Y-61022238D01*
X109177682Y-61114087D01*
X109305369Y-61182337D01*
X109443917Y-61224365D01*
X109551897Y-61235000D01*
X109551906Y-61235000D01*
X109588001Y-61238555D01*
X109624096Y-61235000D01*
X112082523Y-61235000D01*
X111994611Y-61271414D01*
X111854549Y-61365000D01*
X109436094Y-61365000D01*
X109399999Y-61361445D01*
X109363904Y-61365000D01*
X109363895Y-61365000D01*
X109255915Y-61375635D01*
X109117367Y-61417663D01*
X108989680Y-61485913D01*
X108877762Y-61577762D01*
X108854746Y-61605807D01*
X108735000Y-61725553D01*
X108735000Y-61677911D01*
X108699068Y-61497271D01*
X108628586Y-61327111D01*
X108526262Y-61173972D01*
X108396028Y-61043738D01*
X108242889Y-60941414D01*
X108072729Y-60870932D01*
X107892089Y-60835000D01*
X107707911Y-60835000D01*
X107527271Y-60870932D01*
X107357111Y-60941414D01*
X107203972Y-61043738D01*
X107073738Y-61173972D01*
X106971414Y-61327111D01*
X106900932Y-61497271D01*
X106865000Y-61677911D01*
X106865000Y-61862089D01*
X106900932Y-62042729D01*
X106971414Y-62212889D01*
X107065001Y-62352952D01*
X107065001Y-63315026D01*
X104087196Y-60337222D01*
X104054332Y-60172007D01*
X103983850Y-60001847D01*
X103958453Y-59963837D01*
X104026262Y-59896028D01*
X104128586Y-59742889D01*
X104199068Y-59572729D01*
X104235000Y-59392089D01*
X104235000Y-59207911D01*
X104200605Y-59034999D01*
X107083555Y-59034999D01*
X109042748Y-60994193D01*
M02*
