G04 #@! TF.GenerationSoftware,KiCad,Pcbnew,(5.1.4)-1*
G04 #@! TF.CreationDate,2020-06-06T20:18:40+01:00*
G04 #@! TF.ProjectId,RF_R1_USB2USB_SPIPin_v1,52465f52-315f-4555-9342-325553425f53,rev?*
G04 #@! TF.SameCoordinates,Original*
G04 #@! TF.FileFunction,Soldermask,Bot*
G04 #@! TF.FilePolarity,Negative*
%FSLAX46Y46*%
G04 Gerber Fmt 4.6, Leading zero omitted, Abs format (unit mm)*
G04 Created by KiCad (PCBNEW (5.1.4)-1) date 2020-06-06 20:18:40*
%MOMM*%
%LPD*%
G04 APERTURE LIST*
%ADD10C,0.100000*%
G04 APERTURE END LIST*
D10*
G36*
X132355442Y-72405518D02*
G01*
X132421627Y-72412037D01*
X132591466Y-72463557D01*
X132747991Y-72547222D01*
X132783729Y-72576552D01*
X132885186Y-72659814D01*
X132968448Y-72761271D01*
X132997778Y-72797009D01*
X133081443Y-72953534D01*
X133132963Y-73123373D01*
X133150359Y-73300000D01*
X133132963Y-73476627D01*
X133081443Y-73646466D01*
X132997778Y-73802991D01*
X132968448Y-73838729D01*
X132885186Y-73940186D01*
X132783729Y-74023448D01*
X132747991Y-74052778D01*
X132591466Y-74136443D01*
X132421627Y-74187963D01*
X132355443Y-74194481D01*
X132289260Y-74201000D01*
X131950740Y-74201000D01*
X131884557Y-74194481D01*
X131818373Y-74187963D01*
X131648534Y-74136443D01*
X131492009Y-74052778D01*
X131456271Y-74023448D01*
X131354814Y-73940186D01*
X131271552Y-73838729D01*
X131242222Y-73802991D01*
X131158557Y-73646466D01*
X131107037Y-73476627D01*
X131089641Y-73300000D01*
X131107037Y-73123373D01*
X131158557Y-72953534D01*
X131242222Y-72797009D01*
X131271552Y-72761271D01*
X131354814Y-72659814D01*
X131456271Y-72576552D01*
X131492009Y-72547222D01*
X131648534Y-72463557D01*
X131818373Y-72412037D01*
X131884558Y-72405518D01*
X131950740Y-72399000D01*
X132289260Y-72399000D01*
X132355442Y-72405518D01*
X132355442Y-72405518D01*
G37*
G36*
X132355442Y-69905518D02*
G01*
X132421627Y-69912037D01*
X132591466Y-69963557D01*
X132747991Y-70047222D01*
X132783729Y-70076552D01*
X132885186Y-70159814D01*
X132968448Y-70261271D01*
X132997778Y-70297009D01*
X133081443Y-70453534D01*
X133132963Y-70623373D01*
X133150359Y-70800000D01*
X133132963Y-70976627D01*
X133081443Y-71146466D01*
X132997778Y-71302991D01*
X132968448Y-71338729D01*
X132885186Y-71440186D01*
X132783729Y-71523448D01*
X132747991Y-71552778D01*
X132591466Y-71636443D01*
X132421627Y-71687963D01*
X132355443Y-71694481D01*
X132289260Y-71701000D01*
X131950740Y-71701000D01*
X131884557Y-71694481D01*
X131818373Y-71687963D01*
X131648534Y-71636443D01*
X131492009Y-71552778D01*
X131456271Y-71523448D01*
X131354814Y-71440186D01*
X131271552Y-71338729D01*
X131242222Y-71302991D01*
X131158557Y-71146466D01*
X131107037Y-70976627D01*
X131089641Y-70800000D01*
X131107037Y-70623373D01*
X131158557Y-70453534D01*
X131242222Y-70297009D01*
X131271552Y-70261271D01*
X131354814Y-70159814D01*
X131456271Y-70076552D01*
X131492009Y-70047222D01*
X131648534Y-69963557D01*
X131818373Y-69912037D01*
X131884558Y-69905518D01*
X131950740Y-69899000D01*
X132289260Y-69899000D01*
X132355442Y-69905518D01*
X132355442Y-69905518D01*
G37*
G36*
X132355443Y-67405519D02*
G01*
X132421627Y-67412037D01*
X132591466Y-67463557D01*
X132747991Y-67547222D01*
X132783729Y-67576552D01*
X132885186Y-67659814D01*
X132968448Y-67761271D01*
X132997778Y-67797009D01*
X133081443Y-67953534D01*
X133132963Y-68123373D01*
X133150359Y-68300000D01*
X133132963Y-68476627D01*
X133081443Y-68646466D01*
X132997778Y-68802991D01*
X132968448Y-68838729D01*
X132885186Y-68940186D01*
X132783729Y-69023448D01*
X132747991Y-69052778D01*
X132591466Y-69136443D01*
X132421627Y-69187963D01*
X132355442Y-69194482D01*
X132289260Y-69201000D01*
X131950740Y-69201000D01*
X131884558Y-69194482D01*
X131818373Y-69187963D01*
X131648534Y-69136443D01*
X131492009Y-69052778D01*
X131456271Y-69023448D01*
X131354814Y-68940186D01*
X131271552Y-68838729D01*
X131242222Y-68802991D01*
X131158557Y-68646466D01*
X131107037Y-68476627D01*
X131089641Y-68300000D01*
X131107037Y-68123373D01*
X131158557Y-67953534D01*
X131242222Y-67797009D01*
X131271552Y-67761271D01*
X131354814Y-67659814D01*
X131456271Y-67576552D01*
X131492009Y-67547222D01*
X131648534Y-67463557D01*
X131818373Y-67412037D01*
X131884557Y-67405519D01*
X131950740Y-67399000D01*
X132289260Y-67399000D01*
X132355443Y-67405519D01*
X132355443Y-67405519D01*
G37*
G36*
X133003600Y-64902989D02*
G01*
X133036652Y-64913015D01*
X133067103Y-64929292D01*
X133093799Y-64951201D01*
X133115708Y-64977897D01*
X133131985Y-65008348D01*
X133142011Y-65041400D01*
X133146000Y-65081903D01*
X133146000Y-66518097D01*
X133142011Y-66558600D01*
X133131985Y-66591652D01*
X133115708Y-66622103D01*
X133093799Y-66648799D01*
X133067103Y-66670708D01*
X133036652Y-66686985D01*
X133003600Y-66697011D01*
X132963097Y-66701000D01*
X131276903Y-66701000D01*
X131236400Y-66697011D01*
X131203348Y-66686985D01*
X131172897Y-66670708D01*
X131146201Y-66648799D01*
X131124292Y-66622103D01*
X131108015Y-66591652D01*
X131097989Y-66558600D01*
X131094000Y-66518097D01*
X131094000Y-65081903D01*
X131097989Y-65041400D01*
X131108015Y-65008348D01*
X131124292Y-64977897D01*
X131146201Y-64951201D01*
X131172897Y-64929292D01*
X131203348Y-64913015D01*
X131236400Y-64902989D01*
X131276903Y-64899000D01*
X132963097Y-64899000D01*
X133003600Y-64902989D01*
X133003600Y-64902989D01*
G37*
G36*
X143801000Y-63151000D02*
G01*
X142799000Y-63151000D01*
X142799000Y-62549000D01*
X143801000Y-62549000D01*
X143801000Y-63151000D01*
X143801000Y-63151000D01*
G37*
G36*
X145251000Y-63151000D02*
G01*
X144249000Y-63151000D01*
X144249000Y-62549000D01*
X145251000Y-62549000D01*
X145251000Y-63151000D01*
X145251000Y-63151000D01*
G37*
G36*
X143801000Y-61651000D02*
G01*
X142799000Y-61651000D01*
X142799000Y-61049000D01*
X143801000Y-61049000D01*
X143801000Y-61651000D01*
X143801000Y-61651000D01*
G37*
G36*
X145251000Y-61651000D02*
G01*
X144249000Y-61651000D01*
X144249000Y-61049000D01*
X145251000Y-61049000D01*
X145251000Y-61651000D01*
X145251000Y-61651000D01*
G37*
G36*
X145901000Y-60151000D02*
G01*
X142099000Y-60151000D01*
X142099000Y-58049000D01*
X145901000Y-58049000D01*
X145901000Y-60151000D01*
X145901000Y-60151000D01*
G37*
G36*
X158889943Y-54066248D02*
G01*
X159445189Y-54296238D01*
X159676806Y-54451000D01*
X159944899Y-54630134D01*
X160369866Y-55055101D01*
X160518440Y-55277458D01*
X160703762Y-55554811D01*
X160933752Y-56110057D01*
X161051000Y-56699501D01*
X161051000Y-57300499D01*
X160933752Y-57889943D01*
X160703762Y-58445189D01*
X160703761Y-58445190D01*
X160369866Y-58944899D01*
X159944899Y-59369866D01*
X159804573Y-59463629D01*
X159445189Y-59703762D01*
X158889943Y-59933752D01*
X158300499Y-60051000D01*
X157699501Y-60051000D01*
X157110057Y-59933752D01*
X156554811Y-59703762D01*
X156195427Y-59463629D01*
X156055101Y-59369866D01*
X155630134Y-58944899D01*
X155296239Y-58445190D01*
X155296238Y-58445189D01*
X155066248Y-57889943D01*
X154949000Y-57300499D01*
X154949000Y-56699501D01*
X155066248Y-56110057D01*
X155296238Y-55554811D01*
X155481560Y-55277458D01*
X155630134Y-55055101D01*
X156055101Y-54630134D01*
X156323194Y-54451000D01*
X156554811Y-54296238D01*
X157110057Y-54066248D01*
X157699501Y-53949000D01*
X158300499Y-53949000D01*
X158889943Y-54066248D01*
X158889943Y-54066248D01*
G37*
G36*
X130889943Y-54066248D02*
G01*
X131445189Y-54296238D01*
X131676806Y-54451000D01*
X131944899Y-54630134D01*
X132369866Y-55055101D01*
X132518440Y-55277458D01*
X132703762Y-55554811D01*
X132933752Y-56110057D01*
X133051000Y-56699501D01*
X133051000Y-57300499D01*
X132933752Y-57889943D01*
X132703762Y-58445189D01*
X132703761Y-58445190D01*
X132369866Y-58944899D01*
X131944899Y-59369866D01*
X131804573Y-59463629D01*
X131445189Y-59703762D01*
X130889943Y-59933752D01*
X130300499Y-60051000D01*
X129699501Y-60051000D01*
X129110057Y-59933752D01*
X128554811Y-59703762D01*
X128195427Y-59463629D01*
X128055101Y-59369866D01*
X127630134Y-58944899D01*
X127296239Y-58445190D01*
X127296238Y-58445189D01*
X127066248Y-57889943D01*
X126949000Y-57300499D01*
X126949000Y-56699501D01*
X127066248Y-56110057D01*
X127296238Y-55554811D01*
X127481560Y-55277458D01*
X127630134Y-55055101D01*
X128055101Y-54630134D01*
X128323194Y-54451000D01*
X128554811Y-54296238D01*
X129110057Y-54066248D01*
X129699501Y-53949000D01*
X130300499Y-53949000D01*
X130889943Y-54066248D01*
X130889943Y-54066248D01*
G37*
G36*
X149501000Y-59901000D02*
G01*
X147399000Y-59901000D01*
X147399000Y-58099000D01*
X149501000Y-58099000D01*
X149501000Y-59901000D01*
X149501000Y-59901000D01*
G37*
G36*
X140601000Y-59901000D02*
G01*
X138499000Y-59901000D01*
X138499000Y-58099000D01*
X140601000Y-58099000D01*
X140601000Y-59901000D01*
X140601000Y-59901000D01*
G37*
G36*
X146360721Y-55870174D02*
G01*
X146460995Y-55911709D01*
X146460996Y-55911710D01*
X146551242Y-55972010D01*
X146627990Y-56048758D01*
X146627991Y-56048760D01*
X146688291Y-56139005D01*
X146729826Y-56239279D01*
X146751000Y-56345730D01*
X146751000Y-56454270D01*
X146729826Y-56560721D01*
X146688291Y-56660995D01*
X146688290Y-56660996D01*
X146627990Y-56751242D01*
X146551242Y-56827990D01*
X146505812Y-56858345D01*
X146460995Y-56888291D01*
X146360721Y-56929826D01*
X146254270Y-56951000D01*
X146145730Y-56951000D01*
X146039279Y-56929826D01*
X145939005Y-56888291D01*
X145894188Y-56858345D01*
X145848758Y-56827990D01*
X145772010Y-56751242D01*
X145711710Y-56660996D01*
X145711709Y-56660995D01*
X145670174Y-56560721D01*
X145649000Y-56454270D01*
X145649000Y-56345730D01*
X145670174Y-56239279D01*
X145711709Y-56139005D01*
X145772009Y-56048760D01*
X145772010Y-56048758D01*
X145848758Y-55972010D01*
X145939004Y-55911710D01*
X145939005Y-55911709D01*
X146039279Y-55870174D01*
X146145730Y-55849000D01*
X146254270Y-55849000D01*
X146360721Y-55870174D01*
X146360721Y-55870174D01*
G37*
G36*
X141960721Y-55870174D02*
G01*
X142060995Y-55911709D01*
X142060996Y-55911710D01*
X142151242Y-55972010D01*
X142227990Y-56048758D01*
X142227991Y-56048760D01*
X142288291Y-56139005D01*
X142329826Y-56239279D01*
X142351000Y-56345730D01*
X142351000Y-56454270D01*
X142329826Y-56560721D01*
X142288291Y-56660995D01*
X142288290Y-56660996D01*
X142227990Y-56751242D01*
X142151242Y-56827990D01*
X142105812Y-56858345D01*
X142060995Y-56888291D01*
X141960721Y-56929826D01*
X141854270Y-56951000D01*
X141745730Y-56951000D01*
X141639279Y-56929826D01*
X141539005Y-56888291D01*
X141494188Y-56858345D01*
X141448758Y-56827990D01*
X141372010Y-56751242D01*
X141311710Y-56660996D01*
X141311709Y-56660995D01*
X141270174Y-56560721D01*
X141249000Y-56454270D01*
X141249000Y-56345730D01*
X141270174Y-56239279D01*
X141311709Y-56139005D01*
X141372009Y-56048760D01*
X141372010Y-56048758D01*
X141448758Y-55972010D01*
X141539004Y-55911710D01*
X141539005Y-55911709D01*
X141639279Y-55870174D01*
X141745730Y-55849000D01*
X141854270Y-55849000D01*
X141960721Y-55870174D01*
X141960721Y-55870174D01*
G37*
G36*
X149501000Y-54451000D02*
G01*
X147399000Y-54451000D01*
X147399000Y-52649000D01*
X149501000Y-52649000D01*
X149501000Y-54451000D01*
X149501000Y-54451000D01*
G37*
G36*
X140601000Y-54451000D02*
G01*
X138499000Y-54451000D01*
X138499000Y-52649000D01*
X140601000Y-52649000D01*
X140601000Y-54451000D01*
X140601000Y-54451000D01*
G37*
M02*
