G04 #@! TF.GenerationSoftware,KiCad,Pcbnew,(5.1.4)-1*
G04 #@! TF.CreationDate,2020-06-06T20:18:40+01:00*
G04 #@! TF.ProjectId,RF_R1_USB2USB_SPIPin_v1,52465f52-315f-4555-9342-325553425f53,rev?*
G04 #@! TF.SameCoordinates,Original*
G04 #@! TF.FileFunction,Soldermask,Top*
G04 #@! TF.FilePolarity,Negative*
%FSLAX46Y46*%
G04 Gerber Fmt 4.6, Leading zero omitted, Abs format (unit mm)*
G04 Created by KiCad (PCBNEW (5.1.4)-1) date 2020-06-06 20:18:40*
%MOMM*%
%LPD*%
G04 APERTURE LIST*
%ADD10C,0.100000*%
G04 APERTURE END LIST*
D10*
G36*
X119010721Y-73870174D02*
G01*
X119110995Y-73911709D01*
X119110996Y-73911710D01*
X119201242Y-73972010D01*
X119277990Y-74048758D01*
X119308345Y-74094188D01*
X119338291Y-74139005D01*
X119379826Y-74239279D01*
X119401000Y-74345730D01*
X119401000Y-74454270D01*
X119379826Y-74560721D01*
X119338291Y-74660995D01*
X119338290Y-74660996D01*
X119277990Y-74751242D01*
X119201242Y-74827990D01*
X119155812Y-74858345D01*
X119110995Y-74888291D01*
X119010721Y-74929826D01*
X118904270Y-74951000D01*
X118795730Y-74951000D01*
X118689279Y-74929826D01*
X118589005Y-74888291D01*
X118544188Y-74858345D01*
X118498758Y-74827990D01*
X118422010Y-74751242D01*
X118361710Y-74660996D01*
X118361709Y-74660995D01*
X118320174Y-74560721D01*
X118299000Y-74454270D01*
X118299000Y-74345730D01*
X118320174Y-74239279D01*
X118361709Y-74139005D01*
X118391655Y-74094188D01*
X118422010Y-74048758D01*
X118498758Y-73972010D01*
X118589004Y-73911710D01*
X118589005Y-73911709D01*
X118689279Y-73870174D01*
X118795730Y-73849000D01*
X118904270Y-73849000D01*
X119010721Y-73870174D01*
X119010721Y-73870174D01*
G37*
G36*
X120510721Y-73870174D02*
G01*
X120610995Y-73911709D01*
X120610996Y-73911710D01*
X120701242Y-73972010D01*
X120777990Y-74048758D01*
X120808345Y-74094188D01*
X120838291Y-74139005D01*
X120879826Y-74239279D01*
X120901000Y-74345730D01*
X120901000Y-74454270D01*
X120879826Y-74560721D01*
X120838291Y-74660995D01*
X120838290Y-74660996D01*
X120777990Y-74751242D01*
X120701242Y-74827990D01*
X120655812Y-74858345D01*
X120610995Y-74888291D01*
X120510721Y-74929826D01*
X120404270Y-74951000D01*
X120295730Y-74951000D01*
X120189279Y-74929826D01*
X120089005Y-74888291D01*
X120044188Y-74858345D01*
X119998758Y-74827990D01*
X119922010Y-74751242D01*
X119861710Y-74660996D01*
X119861709Y-74660995D01*
X119820174Y-74560721D01*
X119799000Y-74454270D01*
X119799000Y-74345730D01*
X119820174Y-74239279D01*
X119861709Y-74139005D01*
X119891655Y-74094188D01*
X119922010Y-74048758D01*
X119998758Y-73972010D01*
X120089004Y-73911710D01*
X120089005Y-73911709D01*
X120189279Y-73870174D01*
X120295730Y-73849000D01*
X120404270Y-73849000D01*
X120510721Y-73870174D01*
X120510721Y-73870174D01*
G37*
G36*
X114510721Y-73870174D02*
G01*
X114610995Y-73911709D01*
X114610996Y-73911710D01*
X114701242Y-73972010D01*
X114777990Y-74048758D01*
X114808345Y-74094188D01*
X114838291Y-74139005D01*
X114879826Y-74239279D01*
X114901000Y-74345730D01*
X114901000Y-74454270D01*
X114879826Y-74560721D01*
X114838291Y-74660995D01*
X114838290Y-74660996D01*
X114777990Y-74751242D01*
X114701242Y-74827990D01*
X114655812Y-74858345D01*
X114610995Y-74888291D01*
X114510721Y-74929826D01*
X114404270Y-74951000D01*
X114295730Y-74951000D01*
X114189279Y-74929826D01*
X114089005Y-74888291D01*
X114044188Y-74858345D01*
X113998758Y-74827990D01*
X113922010Y-74751242D01*
X113861710Y-74660996D01*
X113861709Y-74660995D01*
X113820174Y-74560721D01*
X113799000Y-74454270D01*
X113799000Y-74345730D01*
X113820174Y-74239279D01*
X113861709Y-74139005D01*
X113891655Y-74094188D01*
X113922010Y-74048758D01*
X113998758Y-73972010D01*
X114089004Y-73911710D01*
X114089005Y-73911709D01*
X114189279Y-73870174D01*
X114295730Y-73849000D01*
X114404270Y-73849000D01*
X114510721Y-73870174D01*
X114510721Y-73870174D01*
G37*
G36*
X116010721Y-73870174D02*
G01*
X116110995Y-73911709D01*
X116110996Y-73911710D01*
X116201242Y-73972010D01*
X116277990Y-74048758D01*
X116308345Y-74094188D01*
X116338291Y-74139005D01*
X116379826Y-74239279D01*
X116401000Y-74345730D01*
X116401000Y-74454270D01*
X116379826Y-74560721D01*
X116338291Y-74660995D01*
X116338290Y-74660996D01*
X116277990Y-74751242D01*
X116201242Y-74827990D01*
X116155812Y-74858345D01*
X116110995Y-74888291D01*
X116010721Y-74929826D01*
X115904270Y-74951000D01*
X115795730Y-74951000D01*
X115689279Y-74929826D01*
X115589005Y-74888291D01*
X115544188Y-74858345D01*
X115498758Y-74827990D01*
X115422010Y-74751242D01*
X115361710Y-74660996D01*
X115361709Y-74660995D01*
X115320174Y-74560721D01*
X115299000Y-74454270D01*
X115299000Y-74345730D01*
X115320174Y-74239279D01*
X115361709Y-74139005D01*
X115391655Y-74094188D01*
X115422010Y-74048758D01*
X115498758Y-73972010D01*
X115589004Y-73911710D01*
X115589005Y-73911709D01*
X115689279Y-73870174D01*
X115795730Y-73849000D01*
X115904270Y-73849000D01*
X116010721Y-73870174D01*
X116010721Y-73870174D01*
G37*
G36*
X122010721Y-73870174D02*
G01*
X122110995Y-73911709D01*
X122110996Y-73911710D01*
X122201242Y-73972010D01*
X122277990Y-74048758D01*
X122308345Y-74094188D01*
X122338291Y-74139005D01*
X122379826Y-74239279D01*
X122401000Y-74345730D01*
X122401000Y-74454270D01*
X122379826Y-74560721D01*
X122338291Y-74660995D01*
X122338290Y-74660996D01*
X122277990Y-74751242D01*
X122201242Y-74827990D01*
X122155812Y-74858345D01*
X122110995Y-74888291D01*
X122010721Y-74929826D01*
X121904270Y-74951000D01*
X121795730Y-74951000D01*
X121689279Y-74929826D01*
X121589005Y-74888291D01*
X121544188Y-74858345D01*
X121498758Y-74827990D01*
X121422010Y-74751242D01*
X121361710Y-74660996D01*
X121361709Y-74660995D01*
X121320174Y-74560721D01*
X121299000Y-74454270D01*
X121299000Y-74345730D01*
X121320174Y-74239279D01*
X121361709Y-74139005D01*
X121391655Y-74094188D01*
X121422010Y-74048758D01*
X121498758Y-73972010D01*
X121589004Y-73911710D01*
X121589005Y-73911709D01*
X121689279Y-73870174D01*
X121795730Y-73849000D01*
X121904270Y-73849000D01*
X122010721Y-73870174D01*
X122010721Y-73870174D01*
G37*
G36*
X117510721Y-73870174D02*
G01*
X117610995Y-73911709D01*
X117610996Y-73911710D01*
X117701242Y-73972010D01*
X117777990Y-74048758D01*
X117808345Y-74094188D01*
X117838291Y-74139005D01*
X117879826Y-74239279D01*
X117901000Y-74345730D01*
X117901000Y-74454270D01*
X117879826Y-74560721D01*
X117838291Y-74660995D01*
X117838290Y-74660996D01*
X117777990Y-74751242D01*
X117701242Y-74827990D01*
X117655812Y-74858345D01*
X117610995Y-74888291D01*
X117510721Y-74929826D01*
X117404270Y-74951000D01*
X117295730Y-74951000D01*
X117189279Y-74929826D01*
X117089005Y-74888291D01*
X117044188Y-74858345D01*
X116998758Y-74827990D01*
X116922010Y-74751242D01*
X116861710Y-74660996D01*
X116861709Y-74660995D01*
X116820174Y-74560721D01*
X116799000Y-74454270D01*
X116799000Y-74345730D01*
X116820174Y-74239279D01*
X116861709Y-74139005D01*
X116891655Y-74094188D01*
X116922010Y-74048758D01*
X116998758Y-73972010D01*
X117089004Y-73911710D01*
X117089005Y-73911709D01*
X117189279Y-73870174D01*
X117295730Y-73849000D01*
X117404270Y-73849000D01*
X117510721Y-73870174D01*
X117510721Y-73870174D01*
G37*
G36*
X132355442Y-72405518D02*
G01*
X132421627Y-72412037D01*
X132591466Y-72463557D01*
X132747991Y-72547222D01*
X132783729Y-72576552D01*
X132885186Y-72659814D01*
X132968448Y-72761271D01*
X132997778Y-72797009D01*
X133081443Y-72953534D01*
X133132963Y-73123373D01*
X133150359Y-73300000D01*
X133132963Y-73476627D01*
X133081443Y-73646466D01*
X132997778Y-73802991D01*
X132968448Y-73838729D01*
X132885186Y-73940186D01*
X132783729Y-74023448D01*
X132747991Y-74052778D01*
X132591466Y-74136443D01*
X132421627Y-74187963D01*
X132355443Y-74194481D01*
X132289260Y-74201000D01*
X131950740Y-74201000D01*
X131884557Y-74194481D01*
X131818373Y-74187963D01*
X131648534Y-74136443D01*
X131492009Y-74052778D01*
X131456271Y-74023448D01*
X131354814Y-73940186D01*
X131271552Y-73838729D01*
X131242222Y-73802991D01*
X131158557Y-73646466D01*
X131107037Y-73476627D01*
X131089641Y-73300000D01*
X131107037Y-73123373D01*
X131158557Y-72953534D01*
X131242222Y-72797009D01*
X131271552Y-72761271D01*
X131354814Y-72659814D01*
X131456271Y-72576552D01*
X131492009Y-72547222D01*
X131648534Y-72463557D01*
X131818373Y-72412037D01*
X131884558Y-72405518D01*
X131950740Y-72399000D01*
X132289260Y-72399000D01*
X132355442Y-72405518D01*
X132355442Y-72405518D01*
G37*
G36*
X104481000Y-72046000D02*
G01*
X103319000Y-72046000D01*
X103319000Y-69394000D01*
X104481000Y-69394000D01*
X104481000Y-72046000D01*
X104481000Y-72046000D01*
G37*
G36*
X102281000Y-72046000D02*
G01*
X101119000Y-72046000D01*
X101119000Y-71294000D01*
X102281000Y-71294000D01*
X102281000Y-72046000D01*
X102281000Y-72046000D01*
G37*
G36*
X119981000Y-72041000D02*
G01*
X118479000Y-72041000D01*
X118479000Y-70739000D01*
X119981000Y-70739000D01*
X119981000Y-72041000D01*
X119981000Y-72041000D01*
G37*
G36*
X117781000Y-72041000D02*
G01*
X116279000Y-72041000D01*
X116279000Y-70739000D01*
X117781000Y-70739000D01*
X117781000Y-72041000D01*
X117781000Y-72041000D01*
G37*
G36*
X106026000Y-72021000D02*
G01*
X105174000Y-72021000D01*
X105174000Y-71119000D01*
X106026000Y-71119000D01*
X106026000Y-72021000D01*
X106026000Y-72021000D01*
G37*
G36*
X100426000Y-71921000D02*
G01*
X99574000Y-71921000D01*
X99574000Y-71019000D01*
X100426000Y-71019000D01*
X100426000Y-71921000D01*
X100426000Y-71921000D01*
G37*
G36*
X115726000Y-71851000D02*
G01*
X114874000Y-71851000D01*
X114874000Y-70949000D01*
X115726000Y-70949000D01*
X115726000Y-71851000D01*
X115726000Y-71851000D01*
G37*
G36*
X121326000Y-71851000D02*
G01*
X120474000Y-71851000D01*
X120474000Y-70949000D01*
X121326000Y-70949000D01*
X121326000Y-71851000D01*
X121326000Y-71851000D01*
G37*
G36*
X132355442Y-69905518D02*
G01*
X132421627Y-69912037D01*
X132591466Y-69963557D01*
X132747991Y-70047222D01*
X132783729Y-70076552D01*
X132885186Y-70159814D01*
X132968448Y-70261271D01*
X132997778Y-70297009D01*
X133081443Y-70453534D01*
X133132963Y-70623373D01*
X133150359Y-70800000D01*
X133132963Y-70976627D01*
X133081443Y-71146466D01*
X132997778Y-71302991D01*
X132968448Y-71338729D01*
X132885186Y-71440186D01*
X132783729Y-71523448D01*
X132747991Y-71552778D01*
X132591466Y-71636443D01*
X132421627Y-71687963D01*
X132355443Y-71694481D01*
X132289260Y-71701000D01*
X131950740Y-71701000D01*
X131884557Y-71694481D01*
X131818373Y-71687963D01*
X131648534Y-71636443D01*
X131492009Y-71552778D01*
X131456271Y-71523448D01*
X131354814Y-71440186D01*
X131271552Y-71338729D01*
X131242222Y-71302991D01*
X131158557Y-71146466D01*
X131107037Y-70976627D01*
X131089641Y-70800000D01*
X131107037Y-70623373D01*
X131158557Y-70453534D01*
X131242222Y-70297009D01*
X131271552Y-70261271D01*
X131354814Y-70159814D01*
X131456271Y-70076552D01*
X131492009Y-70047222D01*
X131648534Y-69963557D01*
X131818373Y-69912037D01*
X131884558Y-69905518D01*
X131950740Y-69899000D01*
X132289260Y-69899000D01*
X132355442Y-69905518D01*
X132355442Y-69905518D01*
G37*
G36*
X109501000Y-71601000D02*
G01*
X108499000Y-71601000D01*
X108499000Y-69799000D01*
X109501000Y-69799000D01*
X109501000Y-71601000D01*
X109501000Y-71601000D01*
G37*
G36*
X112901000Y-71601000D02*
G01*
X111899000Y-71601000D01*
X111899000Y-69799000D01*
X112901000Y-69799000D01*
X112901000Y-71601000D01*
X112901000Y-71601000D01*
G37*
G36*
X128101000Y-71301000D02*
G01*
X127499000Y-71301000D01*
X127499000Y-70299000D01*
X128101000Y-70299000D01*
X128101000Y-71301000D01*
X128101000Y-71301000D01*
G37*
G36*
X129601000Y-71301000D02*
G01*
X128999000Y-71301000D01*
X128999000Y-70299000D01*
X129601000Y-70299000D01*
X129601000Y-71301000D01*
X129601000Y-71301000D01*
G37*
G36*
X106026000Y-70521000D02*
G01*
X105174000Y-70521000D01*
X105174000Y-69619000D01*
X106026000Y-69619000D01*
X106026000Y-70521000D01*
X106026000Y-70521000D01*
G37*
G36*
X117781000Y-70441000D02*
G01*
X116279000Y-70441000D01*
X116279000Y-69139000D01*
X117781000Y-69139000D01*
X117781000Y-70441000D01*
X117781000Y-70441000D01*
G37*
G36*
X119981000Y-70441000D02*
G01*
X118479000Y-70441000D01*
X118479000Y-69139000D01*
X119981000Y-69139000D01*
X119981000Y-70441000D01*
X119981000Y-70441000D01*
G37*
G36*
X100426000Y-70421000D02*
G01*
X99574000Y-70421000D01*
X99574000Y-69519000D01*
X100426000Y-69519000D01*
X100426000Y-70421000D01*
X100426000Y-70421000D01*
G37*
G36*
X121326000Y-70351000D02*
G01*
X120474000Y-70351000D01*
X120474000Y-69449000D01*
X121326000Y-69449000D01*
X121326000Y-70351000D01*
X121326000Y-70351000D01*
G37*
G36*
X115726000Y-70351000D02*
G01*
X114874000Y-70351000D01*
X114874000Y-69449000D01*
X115726000Y-69449000D01*
X115726000Y-70351000D01*
X115726000Y-70351000D01*
G37*
G36*
X102281000Y-70146000D02*
G01*
X101119000Y-70146000D01*
X101119000Y-69394000D01*
X102281000Y-69394000D01*
X102281000Y-70146000D01*
X102281000Y-70146000D01*
G37*
G36*
X132355443Y-67405519D02*
G01*
X132421627Y-67412037D01*
X132591466Y-67463557D01*
X132747991Y-67547222D01*
X132783729Y-67576552D01*
X132885186Y-67659814D01*
X132957449Y-67747868D01*
X132997778Y-67797009D01*
X133081443Y-67953534D01*
X133132963Y-68123373D01*
X133150359Y-68300000D01*
X133132963Y-68476627D01*
X133081443Y-68646466D01*
X132997778Y-68802991D01*
X132968448Y-68838729D01*
X132885186Y-68940186D01*
X132783729Y-69023448D01*
X132747991Y-69052778D01*
X132591466Y-69136443D01*
X132421627Y-69187963D01*
X132355442Y-69194482D01*
X132289260Y-69201000D01*
X131950740Y-69201000D01*
X131884558Y-69194482D01*
X131818373Y-69187963D01*
X131648534Y-69136443D01*
X131492009Y-69052778D01*
X131456271Y-69023448D01*
X131354814Y-68940186D01*
X131271552Y-68838729D01*
X131242222Y-68802991D01*
X131158557Y-68646466D01*
X131107037Y-68476627D01*
X131089641Y-68300000D01*
X131107037Y-68123373D01*
X131158557Y-67953534D01*
X131242222Y-67797009D01*
X131282551Y-67747868D01*
X131354814Y-67659814D01*
X131456271Y-67576552D01*
X131492009Y-67547222D01*
X131648534Y-67463557D01*
X131818373Y-67412037D01*
X131884557Y-67405519D01*
X131950740Y-67399000D01*
X132289260Y-67399000D01*
X132355443Y-67405519D01*
X132355443Y-67405519D01*
G37*
G36*
X128101000Y-68801000D02*
G01*
X127499000Y-68801000D01*
X127499000Y-67799000D01*
X128101000Y-67799000D01*
X128101000Y-68801000D01*
X128101000Y-68801000D01*
G37*
G36*
X129601000Y-68801000D02*
G01*
X128999000Y-68801000D01*
X128999000Y-67799000D01*
X129601000Y-67799000D01*
X129601000Y-68801000D01*
X129601000Y-68801000D01*
G37*
G36*
X102451000Y-68221000D02*
G01*
X100949000Y-68221000D01*
X100949000Y-66919000D01*
X102451000Y-66919000D01*
X102451000Y-68221000D01*
X102451000Y-68221000D01*
G37*
G36*
X104651000Y-68221000D02*
G01*
X103149000Y-68221000D01*
X103149000Y-66919000D01*
X104651000Y-66919000D01*
X104651000Y-68221000D01*
X104651000Y-68221000D01*
G37*
G36*
X100126000Y-67921000D02*
G01*
X99274000Y-67921000D01*
X99274000Y-67019000D01*
X100126000Y-67019000D01*
X100126000Y-67921000D01*
X100126000Y-67921000D01*
G37*
G36*
X106326000Y-67921000D02*
G01*
X105474000Y-67921000D01*
X105474000Y-67019000D01*
X106326000Y-67019000D01*
X106326000Y-67921000D01*
X106326000Y-67921000D01*
G37*
G36*
X114344987Y-66176524D02*
G01*
X114363730Y-66182210D01*
X114380997Y-66191439D01*
X114396138Y-66203865D01*
X114403375Y-66212683D01*
X114420702Y-66230010D01*
X114441076Y-66243623D01*
X114463715Y-66253001D01*
X114487748Y-66257781D01*
X114512252Y-66257781D01*
X114536285Y-66253001D01*
X114558924Y-66243623D01*
X114579299Y-66230009D01*
X114596625Y-66212683D01*
X114603862Y-66203865D01*
X114619003Y-66191439D01*
X114636270Y-66182210D01*
X114655013Y-66176524D01*
X114680640Y-66174000D01*
X115119360Y-66174000D01*
X115144987Y-66176524D01*
X115163730Y-66182210D01*
X115180997Y-66191439D01*
X115196138Y-66203865D01*
X115203375Y-66212683D01*
X115220702Y-66230010D01*
X115241076Y-66243623D01*
X115263715Y-66253001D01*
X115287748Y-66257781D01*
X115312252Y-66257781D01*
X115336285Y-66253001D01*
X115358924Y-66243623D01*
X115379299Y-66230009D01*
X115396625Y-66212683D01*
X115403862Y-66203865D01*
X115419003Y-66191439D01*
X115436270Y-66182210D01*
X115455013Y-66176524D01*
X115480640Y-66174000D01*
X115919360Y-66174000D01*
X115944987Y-66176524D01*
X115963730Y-66182210D01*
X115980997Y-66191439D01*
X115996138Y-66203865D01*
X116003375Y-66212683D01*
X116020702Y-66230010D01*
X116041076Y-66243623D01*
X116063715Y-66253001D01*
X116087748Y-66257781D01*
X116112252Y-66257781D01*
X116136285Y-66253001D01*
X116158924Y-66243623D01*
X116179299Y-66230009D01*
X116196625Y-66212683D01*
X116203862Y-66203865D01*
X116219003Y-66191439D01*
X116236270Y-66182210D01*
X116255013Y-66176524D01*
X116280640Y-66174000D01*
X116719360Y-66174000D01*
X116744987Y-66176524D01*
X116763730Y-66182210D01*
X116780997Y-66191439D01*
X116796138Y-66203865D01*
X116803375Y-66212683D01*
X116820702Y-66230010D01*
X116841076Y-66243623D01*
X116863715Y-66253001D01*
X116887748Y-66257781D01*
X116912252Y-66257781D01*
X116936285Y-66253001D01*
X116958924Y-66243623D01*
X116979299Y-66230009D01*
X116996625Y-66212683D01*
X117003862Y-66203865D01*
X117019003Y-66191439D01*
X117036270Y-66182210D01*
X117055013Y-66176524D01*
X117080640Y-66174000D01*
X117519360Y-66174000D01*
X117544987Y-66176524D01*
X117563730Y-66182210D01*
X117580997Y-66191439D01*
X117596138Y-66203865D01*
X117603375Y-66212683D01*
X117620702Y-66230010D01*
X117641076Y-66243623D01*
X117663715Y-66253001D01*
X117687748Y-66257781D01*
X117712252Y-66257781D01*
X117736285Y-66253001D01*
X117758924Y-66243623D01*
X117779299Y-66230009D01*
X117796625Y-66212683D01*
X117803862Y-66203865D01*
X117819003Y-66191439D01*
X117836270Y-66182210D01*
X117855013Y-66176524D01*
X117880640Y-66174000D01*
X118319360Y-66174000D01*
X118344987Y-66176524D01*
X118363730Y-66182210D01*
X118380997Y-66191439D01*
X118396138Y-66203865D01*
X118403375Y-66212683D01*
X118420702Y-66230010D01*
X118441076Y-66243623D01*
X118463715Y-66253001D01*
X118487748Y-66257781D01*
X118512252Y-66257781D01*
X118536285Y-66253001D01*
X118558924Y-66243623D01*
X118579299Y-66230009D01*
X118596625Y-66212683D01*
X118603862Y-66203865D01*
X118619003Y-66191439D01*
X118636270Y-66182210D01*
X118655013Y-66176524D01*
X118680640Y-66174000D01*
X119119360Y-66174000D01*
X119144987Y-66176524D01*
X119163730Y-66182210D01*
X119180997Y-66191439D01*
X119196138Y-66203865D01*
X119203375Y-66212683D01*
X119220702Y-66230010D01*
X119241076Y-66243623D01*
X119263715Y-66253001D01*
X119287748Y-66257781D01*
X119312252Y-66257781D01*
X119336285Y-66253001D01*
X119358924Y-66243623D01*
X119379299Y-66230009D01*
X119396625Y-66212683D01*
X119403862Y-66203865D01*
X119419003Y-66191439D01*
X119436270Y-66182210D01*
X119455013Y-66176524D01*
X119480640Y-66174000D01*
X119919360Y-66174000D01*
X119944987Y-66176524D01*
X119963730Y-66182210D01*
X119980997Y-66191439D01*
X119996138Y-66203865D01*
X120003375Y-66212683D01*
X120020702Y-66230010D01*
X120041076Y-66243623D01*
X120063715Y-66253001D01*
X120087748Y-66257781D01*
X120112252Y-66257781D01*
X120136285Y-66253001D01*
X120158924Y-66243623D01*
X120179299Y-66230009D01*
X120196625Y-66212683D01*
X120203862Y-66203865D01*
X120219003Y-66191439D01*
X120236270Y-66182210D01*
X120255013Y-66176524D01*
X120280640Y-66174000D01*
X120719360Y-66174000D01*
X120744987Y-66176524D01*
X120763730Y-66182210D01*
X120780997Y-66191439D01*
X120796138Y-66203865D01*
X120803375Y-66212683D01*
X120820702Y-66230010D01*
X120841076Y-66243623D01*
X120863715Y-66253001D01*
X120887748Y-66257781D01*
X120912252Y-66257781D01*
X120936285Y-66253001D01*
X120958924Y-66243623D01*
X120979299Y-66230009D01*
X120996625Y-66212683D01*
X121003862Y-66203865D01*
X121019003Y-66191439D01*
X121036270Y-66182210D01*
X121055013Y-66176524D01*
X121080640Y-66174000D01*
X121519360Y-66174000D01*
X121544987Y-66176524D01*
X121563730Y-66182210D01*
X121580997Y-66191439D01*
X121596138Y-66203865D01*
X121603375Y-66212683D01*
X121620702Y-66230010D01*
X121641076Y-66243623D01*
X121663715Y-66253001D01*
X121687748Y-66257781D01*
X121712252Y-66257781D01*
X121736285Y-66253001D01*
X121758924Y-66243623D01*
X121779299Y-66230009D01*
X121796625Y-66212683D01*
X121803862Y-66203865D01*
X121819003Y-66191439D01*
X121836270Y-66182210D01*
X121855013Y-66176524D01*
X121880640Y-66174000D01*
X122319360Y-66174000D01*
X122344987Y-66176524D01*
X122363730Y-66182210D01*
X122380997Y-66191439D01*
X122396136Y-66203864D01*
X122408561Y-66219003D01*
X122417790Y-66236270D01*
X122423476Y-66255013D01*
X122426000Y-66280640D01*
X122426000Y-67644360D01*
X122423476Y-67669987D01*
X122417790Y-67688730D01*
X122408561Y-67705997D01*
X122396136Y-67721136D01*
X122380997Y-67733561D01*
X122363730Y-67742790D01*
X122344987Y-67748476D01*
X122319360Y-67751000D01*
X121880640Y-67751000D01*
X121855013Y-67748476D01*
X121836270Y-67742790D01*
X121819003Y-67733561D01*
X121803862Y-67721135D01*
X121796625Y-67712317D01*
X121779298Y-67694990D01*
X121758924Y-67681377D01*
X121736285Y-67671999D01*
X121712252Y-67667219D01*
X121687748Y-67667219D01*
X121663715Y-67671999D01*
X121641076Y-67681377D01*
X121620701Y-67694991D01*
X121603375Y-67712317D01*
X121596138Y-67721135D01*
X121580997Y-67733561D01*
X121563730Y-67742790D01*
X121544987Y-67748476D01*
X121519360Y-67751000D01*
X121080640Y-67751000D01*
X121055013Y-67748476D01*
X121036270Y-67742790D01*
X121019003Y-67733561D01*
X121003862Y-67721135D01*
X120996625Y-67712317D01*
X120979298Y-67694990D01*
X120958924Y-67681377D01*
X120936285Y-67671999D01*
X120912252Y-67667219D01*
X120887748Y-67667219D01*
X120863715Y-67671999D01*
X120841076Y-67681377D01*
X120820701Y-67694991D01*
X120803375Y-67712317D01*
X120796138Y-67721135D01*
X120780997Y-67733561D01*
X120763730Y-67742790D01*
X120744987Y-67748476D01*
X120719360Y-67751000D01*
X120280640Y-67751000D01*
X120255013Y-67748476D01*
X120236270Y-67742790D01*
X120219003Y-67733561D01*
X120203862Y-67721135D01*
X120196625Y-67712317D01*
X120179298Y-67694990D01*
X120158924Y-67681377D01*
X120136285Y-67671999D01*
X120112252Y-67667219D01*
X120087748Y-67667219D01*
X120063715Y-67671999D01*
X120041076Y-67681377D01*
X120020701Y-67694991D01*
X120003375Y-67712317D01*
X119996138Y-67721135D01*
X119980997Y-67733561D01*
X119963730Y-67742790D01*
X119944987Y-67748476D01*
X119919360Y-67751000D01*
X119480640Y-67751000D01*
X119455013Y-67748476D01*
X119436270Y-67742790D01*
X119419003Y-67733561D01*
X119403862Y-67721135D01*
X119396625Y-67712317D01*
X119379298Y-67694990D01*
X119358924Y-67681377D01*
X119336285Y-67671999D01*
X119312252Y-67667219D01*
X119287748Y-67667219D01*
X119263715Y-67671999D01*
X119241076Y-67681377D01*
X119220701Y-67694991D01*
X119203375Y-67712317D01*
X119196138Y-67721135D01*
X119180997Y-67733561D01*
X119163730Y-67742790D01*
X119144987Y-67748476D01*
X119119360Y-67751000D01*
X118680640Y-67751000D01*
X118655013Y-67748476D01*
X118636270Y-67742790D01*
X118619003Y-67733561D01*
X118603862Y-67721135D01*
X118596625Y-67712317D01*
X118579298Y-67694990D01*
X118558924Y-67681377D01*
X118536285Y-67671999D01*
X118512252Y-67667219D01*
X118487748Y-67667219D01*
X118463715Y-67671999D01*
X118441076Y-67681377D01*
X118420701Y-67694991D01*
X118403375Y-67712317D01*
X118396138Y-67721135D01*
X118380997Y-67733561D01*
X118363730Y-67742790D01*
X118344987Y-67748476D01*
X118319360Y-67751000D01*
X117880640Y-67751000D01*
X117855013Y-67748476D01*
X117836270Y-67742790D01*
X117819003Y-67733561D01*
X117803862Y-67721135D01*
X117796625Y-67712317D01*
X117779298Y-67694990D01*
X117758924Y-67681377D01*
X117736285Y-67671999D01*
X117712252Y-67667219D01*
X117687748Y-67667219D01*
X117663715Y-67671999D01*
X117641076Y-67681377D01*
X117620701Y-67694991D01*
X117603375Y-67712317D01*
X117596138Y-67721135D01*
X117580997Y-67733561D01*
X117563730Y-67742790D01*
X117544987Y-67748476D01*
X117519360Y-67751000D01*
X117080640Y-67751000D01*
X117055013Y-67748476D01*
X117036270Y-67742790D01*
X117019003Y-67733561D01*
X117003862Y-67721135D01*
X116996625Y-67712317D01*
X116979298Y-67694990D01*
X116958924Y-67681377D01*
X116936285Y-67671999D01*
X116912252Y-67667219D01*
X116887748Y-67667219D01*
X116863715Y-67671999D01*
X116841076Y-67681377D01*
X116820701Y-67694991D01*
X116803375Y-67712317D01*
X116796138Y-67721135D01*
X116780997Y-67733561D01*
X116763730Y-67742790D01*
X116744987Y-67748476D01*
X116719360Y-67751000D01*
X116280640Y-67751000D01*
X116255013Y-67748476D01*
X116236270Y-67742790D01*
X116219003Y-67733561D01*
X116203862Y-67721135D01*
X116196625Y-67712317D01*
X116179298Y-67694990D01*
X116158924Y-67681377D01*
X116136285Y-67671999D01*
X116112252Y-67667219D01*
X116087748Y-67667219D01*
X116063715Y-67671999D01*
X116041076Y-67681377D01*
X116020701Y-67694991D01*
X116003375Y-67712317D01*
X115996138Y-67721135D01*
X115980997Y-67733561D01*
X115963730Y-67742790D01*
X115944987Y-67748476D01*
X115919360Y-67751000D01*
X115480640Y-67751000D01*
X115455013Y-67748476D01*
X115436270Y-67742790D01*
X115419003Y-67733561D01*
X115403862Y-67721135D01*
X115396625Y-67712317D01*
X115379298Y-67694990D01*
X115358924Y-67681377D01*
X115336285Y-67671999D01*
X115312252Y-67667219D01*
X115287748Y-67667219D01*
X115263715Y-67671999D01*
X115241076Y-67681377D01*
X115220701Y-67694991D01*
X115203375Y-67712317D01*
X115196138Y-67721135D01*
X115180997Y-67733561D01*
X115163730Y-67742790D01*
X115144987Y-67748476D01*
X115119360Y-67751000D01*
X114680640Y-67751000D01*
X114655013Y-67748476D01*
X114636270Y-67742790D01*
X114619003Y-67733561D01*
X114603862Y-67721135D01*
X114596625Y-67712317D01*
X114579298Y-67694990D01*
X114558924Y-67681377D01*
X114536285Y-67671999D01*
X114512252Y-67667219D01*
X114487748Y-67667219D01*
X114463715Y-67671999D01*
X114441076Y-67681377D01*
X114420701Y-67694991D01*
X114403375Y-67712317D01*
X114396138Y-67721135D01*
X114380997Y-67733561D01*
X114363730Y-67742790D01*
X114344987Y-67748476D01*
X114319360Y-67751000D01*
X113880640Y-67751000D01*
X113855013Y-67748476D01*
X113836270Y-67742790D01*
X113819003Y-67733561D01*
X113803864Y-67721136D01*
X113791439Y-67705997D01*
X113782210Y-67688730D01*
X113776524Y-67669987D01*
X113774000Y-67644360D01*
X113774000Y-66280640D01*
X113776524Y-66255013D01*
X113782210Y-66236270D01*
X113791439Y-66219003D01*
X113803864Y-66203864D01*
X113819003Y-66191439D01*
X113836270Y-66182210D01*
X113855013Y-66176524D01*
X113880640Y-66174000D01*
X114319360Y-66174000D01*
X114344987Y-66176524D01*
X114344987Y-66176524D01*
G37*
G36*
X112551000Y-67726000D02*
G01*
X111649000Y-67726000D01*
X111649000Y-66874000D01*
X112551000Y-66874000D01*
X112551000Y-67726000D01*
X112551000Y-67726000D01*
G37*
G36*
X111051000Y-67726000D02*
G01*
X110149000Y-67726000D01*
X110149000Y-66874000D01*
X111051000Y-66874000D01*
X111051000Y-67726000D01*
X111051000Y-67726000D01*
G37*
G36*
X133003600Y-64902989D02*
G01*
X133036652Y-64913015D01*
X133067103Y-64929292D01*
X133093799Y-64951201D01*
X133115708Y-64977897D01*
X133131985Y-65008348D01*
X133142011Y-65041400D01*
X133146000Y-65081903D01*
X133146000Y-66518097D01*
X133142011Y-66558600D01*
X133131985Y-66591652D01*
X133115708Y-66622103D01*
X133093799Y-66648799D01*
X133067103Y-66670708D01*
X133036652Y-66686985D01*
X133003600Y-66697011D01*
X132963097Y-66701000D01*
X131276903Y-66701000D01*
X131236400Y-66697011D01*
X131203348Y-66686985D01*
X131172897Y-66670708D01*
X131146201Y-66648799D01*
X131124292Y-66622103D01*
X131108015Y-66591652D01*
X131097989Y-66558600D01*
X131094000Y-66518097D01*
X131094000Y-65081903D01*
X131097989Y-65041400D01*
X131108015Y-65008348D01*
X131124292Y-64977897D01*
X131146201Y-64951201D01*
X131172897Y-64929292D01*
X131203348Y-64913015D01*
X131236400Y-64902989D01*
X131276903Y-64899000D01*
X132963097Y-64899000D01*
X133003600Y-64902989D01*
X133003600Y-64902989D01*
G37*
G36*
X104651000Y-66621000D02*
G01*
X103149000Y-66621000D01*
X103149000Y-65319000D01*
X104651000Y-65319000D01*
X104651000Y-66621000D01*
X104651000Y-66621000D01*
G37*
G36*
X102451000Y-66621000D02*
G01*
X100949000Y-66621000D01*
X100949000Y-65319000D01*
X102451000Y-65319000D01*
X102451000Y-66621000D01*
X102451000Y-66621000D01*
G37*
G36*
X106326000Y-66421000D02*
G01*
X105474000Y-66421000D01*
X105474000Y-65519000D01*
X106326000Y-65519000D01*
X106326000Y-66421000D01*
X106326000Y-66421000D01*
G37*
G36*
X100126000Y-66421000D02*
G01*
X99274000Y-66421000D01*
X99274000Y-65519000D01*
X100126000Y-65519000D01*
X100126000Y-66421000D01*
X100126000Y-66421000D01*
G37*
G36*
X128261000Y-66226000D02*
G01*
X127359000Y-66226000D01*
X127359000Y-65374000D01*
X128261000Y-65374000D01*
X128261000Y-66226000D01*
X128261000Y-66226000D01*
G37*
G36*
X129761000Y-66226000D02*
G01*
X128859000Y-66226000D01*
X128859000Y-65374000D01*
X129761000Y-65374000D01*
X129761000Y-66226000D01*
X129761000Y-66226000D01*
G37*
G36*
X124469987Y-56976524D02*
G01*
X124488730Y-56982210D01*
X124505997Y-56991439D01*
X124521136Y-57003864D01*
X124533561Y-57019003D01*
X124542790Y-57036270D01*
X124548476Y-57055013D01*
X124551000Y-57080640D01*
X124551000Y-57519360D01*
X124548476Y-57544987D01*
X124542790Y-57563730D01*
X124533561Y-57580997D01*
X124521135Y-57596138D01*
X124512317Y-57603375D01*
X124494990Y-57620702D01*
X124481377Y-57641076D01*
X124471999Y-57663715D01*
X124467219Y-57687748D01*
X124467219Y-57712252D01*
X124471999Y-57736285D01*
X124481377Y-57758924D01*
X124494991Y-57779299D01*
X124512317Y-57796625D01*
X124521135Y-57803862D01*
X124533561Y-57819003D01*
X124542790Y-57836270D01*
X124548476Y-57855013D01*
X124551000Y-57880640D01*
X124551000Y-58319360D01*
X124548476Y-58344987D01*
X124542790Y-58363730D01*
X124533561Y-58380997D01*
X124521135Y-58396138D01*
X124512317Y-58403375D01*
X124494990Y-58420702D01*
X124481377Y-58441076D01*
X124471999Y-58463715D01*
X124467219Y-58487748D01*
X124467219Y-58512252D01*
X124471999Y-58536285D01*
X124481377Y-58558924D01*
X124494991Y-58579299D01*
X124512317Y-58596625D01*
X124521135Y-58603862D01*
X124533561Y-58619003D01*
X124542790Y-58636270D01*
X124548476Y-58655013D01*
X124551000Y-58680640D01*
X124551000Y-59119360D01*
X124548476Y-59144987D01*
X124542790Y-59163730D01*
X124533561Y-59180997D01*
X124521135Y-59196138D01*
X124512317Y-59203375D01*
X124494990Y-59220702D01*
X124481377Y-59241076D01*
X124471999Y-59263715D01*
X124467219Y-59287748D01*
X124467219Y-59312252D01*
X124471999Y-59336285D01*
X124481377Y-59358924D01*
X124494991Y-59379299D01*
X124512317Y-59396625D01*
X124521135Y-59403862D01*
X124533561Y-59419003D01*
X124542790Y-59436270D01*
X124548476Y-59455013D01*
X124551000Y-59480640D01*
X124551000Y-59919360D01*
X124548476Y-59944987D01*
X124542790Y-59963730D01*
X124533561Y-59980997D01*
X124521135Y-59996138D01*
X124512317Y-60003375D01*
X124494990Y-60020702D01*
X124481377Y-60041076D01*
X124471999Y-60063715D01*
X124467219Y-60087748D01*
X124467219Y-60112252D01*
X124471999Y-60136285D01*
X124481377Y-60158924D01*
X124494991Y-60179299D01*
X124512317Y-60196625D01*
X124521135Y-60203862D01*
X124533561Y-60219003D01*
X124542790Y-60236270D01*
X124548476Y-60255013D01*
X124551000Y-60280640D01*
X124551000Y-60719360D01*
X124548476Y-60744987D01*
X124542790Y-60763730D01*
X124533561Y-60780997D01*
X124521135Y-60796138D01*
X124512317Y-60803375D01*
X124494990Y-60820702D01*
X124481377Y-60841076D01*
X124471999Y-60863715D01*
X124467219Y-60887748D01*
X124467219Y-60912252D01*
X124471999Y-60936285D01*
X124481377Y-60958924D01*
X124494991Y-60979299D01*
X124512317Y-60996625D01*
X124521135Y-61003862D01*
X124533561Y-61019003D01*
X124542790Y-61036270D01*
X124548476Y-61055013D01*
X124551000Y-61080640D01*
X124551000Y-61519360D01*
X124548476Y-61544987D01*
X124542790Y-61563730D01*
X124533561Y-61580997D01*
X124521135Y-61596138D01*
X124512317Y-61603375D01*
X124494990Y-61620702D01*
X124481377Y-61641076D01*
X124471999Y-61663715D01*
X124467219Y-61687748D01*
X124467219Y-61712252D01*
X124471999Y-61736285D01*
X124481377Y-61758924D01*
X124494991Y-61779299D01*
X124512317Y-61796625D01*
X124521135Y-61803862D01*
X124533561Y-61819003D01*
X124542790Y-61836270D01*
X124548476Y-61855013D01*
X124551000Y-61880640D01*
X124551000Y-62319360D01*
X124548476Y-62344987D01*
X124542790Y-62363730D01*
X124533561Y-62380997D01*
X124521135Y-62396138D01*
X124512317Y-62403375D01*
X124494990Y-62420702D01*
X124481377Y-62441076D01*
X124471999Y-62463715D01*
X124467219Y-62487748D01*
X124467219Y-62512252D01*
X124471999Y-62536285D01*
X124481377Y-62558924D01*
X124494991Y-62579299D01*
X124512317Y-62596625D01*
X124521135Y-62603862D01*
X124533561Y-62619003D01*
X124542790Y-62636270D01*
X124548476Y-62655013D01*
X124551000Y-62680640D01*
X124551000Y-63119360D01*
X124548476Y-63144987D01*
X124542790Y-63163730D01*
X124533561Y-63180997D01*
X124521135Y-63196138D01*
X124512317Y-63203375D01*
X124494990Y-63220702D01*
X124481377Y-63241076D01*
X124471999Y-63263715D01*
X124467219Y-63287748D01*
X124467219Y-63312252D01*
X124471999Y-63336285D01*
X124481377Y-63358924D01*
X124494991Y-63379299D01*
X124512317Y-63396625D01*
X124521135Y-63403862D01*
X124533561Y-63419003D01*
X124542790Y-63436270D01*
X124548476Y-63455013D01*
X124551000Y-63480640D01*
X124551000Y-63919360D01*
X124548476Y-63944987D01*
X124542790Y-63963730D01*
X124533561Y-63980997D01*
X124521135Y-63996138D01*
X124512317Y-64003375D01*
X124494990Y-64020702D01*
X124481377Y-64041076D01*
X124471999Y-64063715D01*
X124467219Y-64087748D01*
X124467219Y-64112252D01*
X124471999Y-64136285D01*
X124481377Y-64158924D01*
X124494991Y-64179299D01*
X124512317Y-64196625D01*
X124521135Y-64203862D01*
X124533561Y-64219003D01*
X124542790Y-64236270D01*
X124548476Y-64255013D01*
X124551000Y-64280640D01*
X124551000Y-64719360D01*
X124548476Y-64744987D01*
X124542790Y-64763730D01*
X124533561Y-64780997D01*
X124521135Y-64796138D01*
X124512317Y-64803375D01*
X124494990Y-64820702D01*
X124481377Y-64841076D01*
X124471999Y-64863715D01*
X124467219Y-64887748D01*
X124467219Y-64912252D01*
X124471999Y-64936285D01*
X124481377Y-64958924D01*
X124494991Y-64979299D01*
X124512317Y-64996625D01*
X124521135Y-65003862D01*
X124533561Y-65019003D01*
X124542790Y-65036270D01*
X124548476Y-65055013D01*
X124551000Y-65080640D01*
X124551000Y-65519360D01*
X124548476Y-65544987D01*
X124542790Y-65563730D01*
X124533561Y-65580997D01*
X124521136Y-65596136D01*
X124505997Y-65608561D01*
X124488730Y-65617790D01*
X124469987Y-65623476D01*
X124444360Y-65626000D01*
X123080640Y-65626000D01*
X123055013Y-65623476D01*
X123036270Y-65617790D01*
X123019003Y-65608561D01*
X123003864Y-65596136D01*
X122991439Y-65580997D01*
X122982210Y-65563730D01*
X122976524Y-65544987D01*
X122974000Y-65519360D01*
X122974000Y-65080640D01*
X122976524Y-65055013D01*
X122982210Y-65036270D01*
X122991439Y-65019003D01*
X123003865Y-65003862D01*
X123012683Y-64996625D01*
X123030010Y-64979298D01*
X123043623Y-64958924D01*
X123053001Y-64936285D01*
X123057781Y-64912252D01*
X123057781Y-64887748D01*
X123053001Y-64863715D01*
X123043623Y-64841076D01*
X123030009Y-64820701D01*
X123012683Y-64803375D01*
X123003865Y-64796138D01*
X122991439Y-64780997D01*
X122982210Y-64763730D01*
X122976524Y-64744987D01*
X122974000Y-64719360D01*
X122974000Y-64280640D01*
X122976524Y-64255013D01*
X122982210Y-64236270D01*
X122991439Y-64219003D01*
X123003865Y-64203862D01*
X123012683Y-64196625D01*
X123030010Y-64179298D01*
X123043623Y-64158924D01*
X123053001Y-64136285D01*
X123057781Y-64112252D01*
X123057781Y-64087748D01*
X123053001Y-64063715D01*
X123043623Y-64041076D01*
X123030009Y-64020701D01*
X123012683Y-64003375D01*
X123003865Y-63996138D01*
X122991439Y-63980997D01*
X122982210Y-63963730D01*
X122976524Y-63944987D01*
X122974000Y-63919360D01*
X122974000Y-63480640D01*
X122976524Y-63455013D01*
X122982210Y-63436270D01*
X122991439Y-63419003D01*
X123003865Y-63403862D01*
X123012683Y-63396625D01*
X123030010Y-63379298D01*
X123043623Y-63358924D01*
X123053001Y-63336285D01*
X123057781Y-63312252D01*
X123057781Y-63287748D01*
X123053001Y-63263715D01*
X123043623Y-63241076D01*
X123030009Y-63220701D01*
X123012683Y-63203375D01*
X123003865Y-63196138D01*
X122991439Y-63180997D01*
X122982210Y-63163730D01*
X122976524Y-63144987D01*
X122974000Y-63119360D01*
X122974000Y-62680640D01*
X122976524Y-62655013D01*
X122982210Y-62636270D01*
X122991439Y-62619003D01*
X123003865Y-62603862D01*
X123012683Y-62596625D01*
X123030010Y-62579298D01*
X123043623Y-62558924D01*
X123053001Y-62536285D01*
X123057781Y-62512252D01*
X123057781Y-62487748D01*
X123053001Y-62463715D01*
X123043623Y-62441076D01*
X123030009Y-62420701D01*
X123012683Y-62403375D01*
X123003865Y-62396138D01*
X122991439Y-62380997D01*
X122982210Y-62363730D01*
X122976524Y-62344987D01*
X122974000Y-62319360D01*
X122974000Y-61880640D01*
X122976524Y-61855013D01*
X122982210Y-61836270D01*
X122991439Y-61819003D01*
X123003865Y-61803862D01*
X123012683Y-61796625D01*
X123030010Y-61779298D01*
X123043623Y-61758924D01*
X123053001Y-61736285D01*
X123057781Y-61712252D01*
X123057781Y-61687748D01*
X123053001Y-61663715D01*
X123043623Y-61641076D01*
X123030009Y-61620701D01*
X123012683Y-61603375D01*
X123003865Y-61596138D01*
X122991439Y-61580997D01*
X122982210Y-61563730D01*
X122976524Y-61544987D01*
X122974000Y-61519360D01*
X122974000Y-61080640D01*
X122976524Y-61055013D01*
X122982210Y-61036270D01*
X122991439Y-61019003D01*
X123003865Y-61003862D01*
X123012683Y-60996625D01*
X123030010Y-60979298D01*
X123043623Y-60958924D01*
X123053001Y-60936285D01*
X123057781Y-60912252D01*
X123057781Y-60887748D01*
X123053001Y-60863715D01*
X123043623Y-60841076D01*
X123030009Y-60820701D01*
X123012683Y-60803375D01*
X123003865Y-60796138D01*
X122991439Y-60780997D01*
X122982210Y-60763730D01*
X122976524Y-60744987D01*
X122974000Y-60719360D01*
X122974000Y-60280640D01*
X122976524Y-60255013D01*
X122982210Y-60236270D01*
X122991439Y-60219003D01*
X123003865Y-60203862D01*
X123012683Y-60196625D01*
X123030010Y-60179298D01*
X123043623Y-60158924D01*
X123053001Y-60136285D01*
X123057781Y-60112252D01*
X123057781Y-60087748D01*
X123053001Y-60063715D01*
X123043623Y-60041076D01*
X123030009Y-60020701D01*
X123012683Y-60003375D01*
X123003865Y-59996138D01*
X122991439Y-59980997D01*
X122982210Y-59963730D01*
X122976524Y-59944987D01*
X122974000Y-59919360D01*
X122974000Y-59480640D01*
X122976524Y-59455013D01*
X122982210Y-59436270D01*
X122991439Y-59419003D01*
X123003865Y-59403862D01*
X123012683Y-59396625D01*
X123030010Y-59379298D01*
X123043623Y-59358924D01*
X123053001Y-59336285D01*
X123057781Y-59312252D01*
X123057781Y-59287748D01*
X123053001Y-59263715D01*
X123043623Y-59241076D01*
X123030009Y-59220701D01*
X123012683Y-59203375D01*
X123003865Y-59196138D01*
X122991439Y-59180997D01*
X122982210Y-59163730D01*
X122976524Y-59144987D01*
X122974000Y-59119360D01*
X122974000Y-58680640D01*
X122976524Y-58655013D01*
X122982210Y-58636270D01*
X122991439Y-58619003D01*
X123003865Y-58603862D01*
X123012683Y-58596625D01*
X123030010Y-58579298D01*
X123043623Y-58558924D01*
X123053001Y-58536285D01*
X123057781Y-58512252D01*
X123057781Y-58487748D01*
X123053001Y-58463715D01*
X123043623Y-58441076D01*
X123030009Y-58420701D01*
X123012683Y-58403375D01*
X123003865Y-58396138D01*
X122991439Y-58380997D01*
X122982210Y-58363730D01*
X122976524Y-58344987D01*
X122974000Y-58319360D01*
X122974000Y-57880640D01*
X122976524Y-57855013D01*
X122982210Y-57836270D01*
X122991439Y-57819003D01*
X123003865Y-57803862D01*
X123012683Y-57796625D01*
X123030010Y-57779298D01*
X123043623Y-57758924D01*
X123053001Y-57736285D01*
X123057781Y-57712252D01*
X123057781Y-57687748D01*
X123053001Y-57663715D01*
X123043623Y-57641076D01*
X123030009Y-57620701D01*
X123012683Y-57603375D01*
X123003865Y-57596138D01*
X122991439Y-57580997D01*
X122982210Y-57563730D01*
X122976524Y-57544987D01*
X122974000Y-57519360D01*
X122974000Y-57080640D01*
X122976524Y-57055013D01*
X122982210Y-57036270D01*
X122991439Y-57019003D01*
X123003864Y-57003864D01*
X123019003Y-56991439D01*
X123036270Y-56982210D01*
X123055013Y-56976524D01*
X123080640Y-56974000D01*
X124444360Y-56974000D01*
X124469987Y-56976524D01*
X124469987Y-56976524D01*
G37*
G36*
X113144987Y-56976524D02*
G01*
X113163730Y-56982210D01*
X113180997Y-56991439D01*
X113196136Y-57003864D01*
X113208561Y-57019003D01*
X113217790Y-57036270D01*
X113223476Y-57055013D01*
X113226000Y-57080640D01*
X113226000Y-57519360D01*
X113223476Y-57544987D01*
X113217790Y-57563730D01*
X113208561Y-57580997D01*
X113196135Y-57596138D01*
X113187317Y-57603375D01*
X113169990Y-57620702D01*
X113156377Y-57641076D01*
X113146999Y-57663715D01*
X113142219Y-57687748D01*
X113142219Y-57712252D01*
X113146999Y-57736285D01*
X113156377Y-57758924D01*
X113169991Y-57779299D01*
X113187317Y-57796625D01*
X113196135Y-57803862D01*
X113208561Y-57819003D01*
X113217790Y-57836270D01*
X113223476Y-57855013D01*
X113226000Y-57880640D01*
X113226000Y-58319360D01*
X113223476Y-58344987D01*
X113217790Y-58363730D01*
X113208561Y-58380997D01*
X113196135Y-58396138D01*
X113187317Y-58403375D01*
X113169990Y-58420702D01*
X113156377Y-58441076D01*
X113146999Y-58463715D01*
X113142219Y-58487748D01*
X113142219Y-58512252D01*
X113146999Y-58536285D01*
X113156377Y-58558924D01*
X113169991Y-58579299D01*
X113187317Y-58596625D01*
X113196135Y-58603862D01*
X113208561Y-58619003D01*
X113217790Y-58636270D01*
X113223476Y-58655013D01*
X113226000Y-58680640D01*
X113226000Y-59119360D01*
X113223476Y-59144987D01*
X113217790Y-59163730D01*
X113208561Y-59180997D01*
X113196135Y-59196138D01*
X113187317Y-59203375D01*
X113169990Y-59220702D01*
X113156377Y-59241076D01*
X113146999Y-59263715D01*
X113142219Y-59287748D01*
X113142219Y-59312252D01*
X113146999Y-59336285D01*
X113156377Y-59358924D01*
X113169991Y-59379299D01*
X113187317Y-59396625D01*
X113196135Y-59403862D01*
X113208561Y-59419003D01*
X113217790Y-59436270D01*
X113223476Y-59455013D01*
X113226000Y-59480640D01*
X113226000Y-59919360D01*
X113223476Y-59944987D01*
X113217790Y-59963730D01*
X113208561Y-59980997D01*
X113196135Y-59996138D01*
X113187317Y-60003375D01*
X113169990Y-60020702D01*
X113156377Y-60041076D01*
X113146999Y-60063715D01*
X113142219Y-60087748D01*
X113142219Y-60112252D01*
X113146999Y-60136285D01*
X113156377Y-60158924D01*
X113169991Y-60179299D01*
X113187317Y-60196625D01*
X113196135Y-60203862D01*
X113208561Y-60219003D01*
X113217790Y-60236270D01*
X113223476Y-60255013D01*
X113226000Y-60280640D01*
X113226000Y-60719360D01*
X113223476Y-60744987D01*
X113217790Y-60763730D01*
X113208561Y-60780997D01*
X113196135Y-60796138D01*
X113187317Y-60803375D01*
X113169990Y-60820702D01*
X113156377Y-60841076D01*
X113146999Y-60863715D01*
X113142219Y-60887748D01*
X113142219Y-60912252D01*
X113146999Y-60936285D01*
X113156377Y-60958924D01*
X113169991Y-60979299D01*
X113187317Y-60996625D01*
X113196135Y-61003862D01*
X113208561Y-61019003D01*
X113217790Y-61036270D01*
X113223476Y-61055013D01*
X113226000Y-61080640D01*
X113226000Y-61519360D01*
X113223476Y-61544987D01*
X113217790Y-61563730D01*
X113208561Y-61580997D01*
X113196135Y-61596138D01*
X113187317Y-61603375D01*
X113169990Y-61620702D01*
X113156377Y-61641076D01*
X113146999Y-61663715D01*
X113142219Y-61687748D01*
X113142219Y-61712252D01*
X113146999Y-61736285D01*
X113156377Y-61758924D01*
X113169991Y-61779299D01*
X113187317Y-61796625D01*
X113196135Y-61803862D01*
X113208561Y-61819003D01*
X113217790Y-61836270D01*
X113223476Y-61855013D01*
X113226000Y-61880640D01*
X113226000Y-62319360D01*
X113223476Y-62344987D01*
X113217790Y-62363730D01*
X113208561Y-62380997D01*
X113196135Y-62396138D01*
X113187317Y-62403375D01*
X113169990Y-62420702D01*
X113156377Y-62441076D01*
X113146999Y-62463715D01*
X113142219Y-62487748D01*
X113142219Y-62512252D01*
X113146999Y-62536285D01*
X113156377Y-62558924D01*
X113169991Y-62579299D01*
X113187317Y-62596625D01*
X113196135Y-62603862D01*
X113208561Y-62619003D01*
X113217790Y-62636270D01*
X113223476Y-62655013D01*
X113226000Y-62680640D01*
X113226000Y-63119360D01*
X113223476Y-63144987D01*
X113217790Y-63163730D01*
X113208561Y-63180997D01*
X113196135Y-63196138D01*
X113187317Y-63203375D01*
X113169990Y-63220702D01*
X113156377Y-63241076D01*
X113146999Y-63263715D01*
X113142219Y-63287748D01*
X113142219Y-63312252D01*
X113146999Y-63336285D01*
X113156377Y-63358924D01*
X113169991Y-63379299D01*
X113187317Y-63396625D01*
X113196135Y-63403862D01*
X113208561Y-63419003D01*
X113217790Y-63436270D01*
X113223476Y-63455013D01*
X113226000Y-63480640D01*
X113226000Y-63919360D01*
X113223476Y-63944987D01*
X113217790Y-63963730D01*
X113208561Y-63980997D01*
X113196135Y-63996138D01*
X113187317Y-64003375D01*
X113169990Y-64020702D01*
X113156377Y-64041076D01*
X113146999Y-64063715D01*
X113142219Y-64087748D01*
X113142219Y-64112252D01*
X113146999Y-64136285D01*
X113156377Y-64158924D01*
X113169991Y-64179299D01*
X113187317Y-64196625D01*
X113196135Y-64203862D01*
X113208561Y-64219003D01*
X113217790Y-64236270D01*
X113223476Y-64255013D01*
X113226000Y-64280640D01*
X113226000Y-64719360D01*
X113223476Y-64744987D01*
X113217790Y-64763730D01*
X113208561Y-64780997D01*
X113196135Y-64796138D01*
X113187317Y-64803375D01*
X113169990Y-64820702D01*
X113156377Y-64841076D01*
X113146999Y-64863715D01*
X113142219Y-64887748D01*
X113142219Y-64912252D01*
X113146999Y-64936285D01*
X113156377Y-64958924D01*
X113169991Y-64979299D01*
X113187317Y-64996625D01*
X113196135Y-65003862D01*
X113208561Y-65019003D01*
X113217790Y-65036270D01*
X113223476Y-65055013D01*
X113226000Y-65080640D01*
X113226000Y-65519360D01*
X113223476Y-65544987D01*
X113217790Y-65563730D01*
X113208561Y-65580997D01*
X113196136Y-65596136D01*
X113180997Y-65608561D01*
X113163730Y-65617790D01*
X113144987Y-65623476D01*
X113119360Y-65626000D01*
X111755640Y-65626000D01*
X111730013Y-65623476D01*
X111711270Y-65617790D01*
X111694003Y-65608561D01*
X111678864Y-65596136D01*
X111666439Y-65580997D01*
X111657210Y-65563730D01*
X111651524Y-65544987D01*
X111649000Y-65519360D01*
X111649000Y-65080640D01*
X111651524Y-65055013D01*
X111657210Y-65036270D01*
X111666439Y-65019003D01*
X111678865Y-65003862D01*
X111687683Y-64996625D01*
X111705010Y-64979298D01*
X111718623Y-64958924D01*
X111728001Y-64936285D01*
X111732781Y-64912252D01*
X111732781Y-64887748D01*
X111728001Y-64863715D01*
X111718623Y-64841076D01*
X111705009Y-64820701D01*
X111687683Y-64803375D01*
X111678865Y-64796138D01*
X111666439Y-64780997D01*
X111657210Y-64763730D01*
X111651524Y-64744987D01*
X111649000Y-64719360D01*
X111649000Y-64280640D01*
X111651524Y-64255013D01*
X111657210Y-64236270D01*
X111666439Y-64219003D01*
X111678865Y-64203862D01*
X111687683Y-64196625D01*
X111705010Y-64179298D01*
X111718623Y-64158924D01*
X111728001Y-64136285D01*
X111732781Y-64112252D01*
X111732781Y-64087748D01*
X111728001Y-64063715D01*
X111718623Y-64041076D01*
X111705009Y-64020701D01*
X111687683Y-64003375D01*
X111678865Y-63996138D01*
X111666439Y-63980997D01*
X111657210Y-63963730D01*
X111651524Y-63944987D01*
X111649000Y-63919360D01*
X111649000Y-63480640D01*
X111651524Y-63455013D01*
X111657210Y-63436270D01*
X111666439Y-63419003D01*
X111678865Y-63403862D01*
X111687683Y-63396625D01*
X111705010Y-63379298D01*
X111718623Y-63358924D01*
X111728001Y-63336285D01*
X111732781Y-63312252D01*
X111732781Y-63287748D01*
X111728001Y-63263715D01*
X111718623Y-63241076D01*
X111705009Y-63220701D01*
X111687683Y-63203375D01*
X111678865Y-63196138D01*
X111666439Y-63180997D01*
X111657210Y-63163730D01*
X111651524Y-63144987D01*
X111649000Y-63119360D01*
X111649000Y-62680640D01*
X111651524Y-62655013D01*
X111657210Y-62636270D01*
X111666439Y-62619003D01*
X111678865Y-62603862D01*
X111687683Y-62596625D01*
X111705010Y-62579298D01*
X111718623Y-62558924D01*
X111728001Y-62536285D01*
X111732781Y-62512252D01*
X111732781Y-62487748D01*
X111728001Y-62463715D01*
X111718623Y-62441076D01*
X111705009Y-62420701D01*
X111687683Y-62403375D01*
X111678865Y-62396138D01*
X111666439Y-62380997D01*
X111657210Y-62363730D01*
X111651524Y-62344987D01*
X111649000Y-62319360D01*
X111649000Y-61880640D01*
X111651524Y-61855013D01*
X111657210Y-61836270D01*
X111666439Y-61819003D01*
X111678865Y-61803862D01*
X111687683Y-61796625D01*
X111705010Y-61779298D01*
X111718623Y-61758924D01*
X111728001Y-61736285D01*
X111732781Y-61712252D01*
X111732781Y-61687748D01*
X111728001Y-61663715D01*
X111718623Y-61641076D01*
X111705009Y-61620701D01*
X111687683Y-61603375D01*
X111678865Y-61596138D01*
X111666439Y-61580997D01*
X111657210Y-61563730D01*
X111651524Y-61544987D01*
X111649000Y-61519360D01*
X111649000Y-61080640D01*
X111651524Y-61055013D01*
X111657210Y-61036270D01*
X111666439Y-61019003D01*
X111678865Y-61003862D01*
X111687683Y-60996625D01*
X111705010Y-60979298D01*
X111718623Y-60958924D01*
X111728001Y-60936285D01*
X111732781Y-60912252D01*
X111732781Y-60887748D01*
X111728001Y-60863715D01*
X111718623Y-60841076D01*
X111705009Y-60820701D01*
X111687683Y-60803375D01*
X111678865Y-60796138D01*
X111666439Y-60780997D01*
X111657210Y-60763730D01*
X111651524Y-60744987D01*
X111649000Y-60719360D01*
X111649000Y-60280640D01*
X111651524Y-60255013D01*
X111657210Y-60236270D01*
X111666439Y-60219003D01*
X111678865Y-60203862D01*
X111687683Y-60196625D01*
X111705010Y-60179298D01*
X111718623Y-60158924D01*
X111728001Y-60136285D01*
X111732781Y-60112252D01*
X111732781Y-60087748D01*
X111728001Y-60063715D01*
X111718623Y-60041076D01*
X111705009Y-60020701D01*
X111687683Y-60003375D01*
X111678865Y-59996138D01*
X111666439Y-59980997D01*
X111657210Y-59963730D01*
X111651524Y-59944987D01*
X111649000Y-59919360D01*
X111649000Y-59480640D01*
X111651524Y-59455013D01*
X111657210Y-59436270D01*
X111666439Y-59419003D01*
X111678865Y-59403862D01*
X111687683Y-59396625D01*
X111705010Y-59379298D01*
X111718623Y-59358924D01*
X111728001Y-59336285D01*
X111732781Y-59312252D01*
X111732781Y-59287748D01*
X111728001Y-59263715D01*
X111718623Y-59241076D01*
X111705009Y-59220701D01*
X111687683Y-59203375D01*
X111678865Y-59196138D01*
X111666439Y-59180997D01*
X111657210Y-59163730D01*
X111651524Y-59144987D01*
X111649000Y-59119360D01*
X111649000Y-58680640D01*
X111651524Y-58655013D01*
X111657210Y-58636270D01*
X111666439Y-58619003D01*
X111678865Y-58603862D01*
X111687683Y-58596625D01*
X111705010Y-58579298D01*
X111718623Y-58558924D01*
X111728001Y-58536285D01*
X111732781Y-58512252D01*
X111732781Y-58487748D01*
X111728001Y-58463715D01*
X111718623Y-58441076D01*
X111705009Y-58420701D01*
X111687683Y-58403375D01*
X111678865Y-58396138D01*
X111666439Y-58380997D01*
X111657210Y-58363730D01*
X111651524Y-58344987D01*
X111649000Y-58319360D01*
X111649000Y-57880640D01*
X111651524Y-57855013D01*
X111657210Y-57836270D01*
X111666439Y-57819003D01*
X111678865Y-57803862D01*
X111687683Y-57796625D01*
X111705010Y-57779298D01*
X111718623Y-57758924D01*
X111728001Y-57736285D01*
X111732781Y-57712252D01*
X111732781Y-57687748D01*
X111728001Y-57663715D01*
X111718623Y-57641076D01*
X111705009Y-57620701D01*
X111687683Y-57603375D01*
X111678865Y-57596138D01*
X111666439Y-57580997D01*
X111657210Y-57563730D01*
X111651524Y-57544987D01*
X111649000Y-57519360D01*
X111649000Y-57080640D01*
X111651524Y-57055013D01*
X111657210Y-57036270D01*
X111666439Y-57019003D01*
X111678864Y-57003864D01*
X111694003Y-56991439D01*
X111711270Y-56982210D01*
X111730013Y-56976524D01*
X111755640Y-56974000D01*
X113119360Y-56974000D01*
X113144987Y-56976524D01*
X113144987Y-56976524D01*
G37*
G36*
X101220295Y-62945323D02*
G01*
X101227309Y-62947451D01*
X101241077Y-62954810D01*
X101263716Y-62964187D01*
X101287749Y-62968967D01*
X101312253Y-62968967D01*
X101336286Y-62964186D01*
X101358923Y-62954810D01*
X101372691Y-62947451D01*
X101379705Y-62945323D01*
X101393140Y-62944000D01*
X101706860Y-62944000D01*
X101720295Y-62945323D01*
X101727309Y-62947451D01*
X101741077Y-62954810D01*
X101763716Y-62964187D01*
X101787749Y-62968967D01*
X101812253Y-62968967D01*
X101836286Y-62964186D01*
X101858923Y-62954810D01*
X101872691Y-62947451D01*
X101879705Y-62945323D01*
X101893140Y-62944000D01*
X102206860Y-62944000D01*
X102220295Y-62945323D01*
X102227309Y-62947451D01*
X102241077Y-62954810D01*
X102263716Y-62964187D01*
X102287749Y-62968967D01*
X102312253Y-62968967D01*
X102336286Y-62964186D01*
X102358923Y-62954810D01*
X102372691Y-62947451D01*
X102379705Y-62945323D01*
X102393140Y-62944000D01*
X102706860Y-62944000D01*
X102720295Y-62945323D01*
X102727309Y-62947451D01*
X102741077Y-62954810D01*
X102763716Y-62964187D01*
X102787749Y-62968967D01*
X102812253Y-62968967D01*
X102836286Y-62964186D01*
X102858923Y-62954810D01*
X102872691Y-62947451D01*
X102879705Y-62945323D01*
X102893140Y-62944000D01*
X103206860Y-62944000D01*
X103220295Y-62945323D01*
X103227309Y-62947451D01*
X103241077Y-62954810D01*
X103263716Y-62964187D01*
X103287749Y-62968967D01*
X103312253Y-62968967D01*
X103336286Y-62964186D01*
X103358923Y-62954810D01*
X103372691Y-62947451D01*
X103379705Y-62945323D01*
X103393140Y-62944000D01*
X103706860Y-62944000D01*
X103720295Y-62945323D01*
X103727309Y-62947451D01*
X103741077Y-62954810D01*
X103763716Y-62964187D01*
X103787749Y-62968967D01*
X103812253Y-62968967D01*
X103836286Y-62964186D01*
X103858923Y-62954810D01*
X103872691Y-62947451D01*
X103879705Y-62945323D01*
X103893140Y-62944000D01*
X104206860Y-62944000D01*
X104220295Y-62945323D01*
X104227309Y-62947451D01*
X104241077Y-62954810D01*
X104263716Y-62964187D01*
X104287749Y-62968967D01*
X104312253Y-62968967D01*
X104336286Y-62964186D01*
X104358923Y-62954810D01*
X104372691Y-62947451D01*
X104379705Y-62945323D01*
X104393140Y-62944000D01*
X104706860Y-62944000D01*
X104720295Y-62945323D01*
X104727310Y-62947451D01*
X104733776Y-62950908D01*
X104739442Y-62955558D01*
X104744092Y-62961224D01*
X104747549Y-62967690D01*
X104749677Y-62974705D01*
X104751000Y-62988140D01*
X104751000Y-64501860D01*
X104749677Y-64515295D01*
X104747549Y-64522310D01*
X104744092Y-64528776D01*
X104739442Y-64534442D01*
X104733776Y-64539092D01*
X104727310Y-64542549D01*
X104720295Y-64544677D01*
X104706860Y-64546000D01*
X104393140Y-64546000D01*
X104379705Y-64544677D01*
X104372691Y-64542549D01*
X104358923Y-64535190D01*
X104336284Y-64525813D01*
X104312251Y-64521033D01*
X104287747Y-64521033D01*
X104263714Y-64525814D01*
X104241077Y-64535190D01*
X104227309Y-64542549D01*
X104220295Y-64544677D01*
X104206860Y-64546000D01*
X103893140Y-64546000D01*
X103879705Y-64544677D01*
X103872691Y-64542549D01*
X103858923Y-64535190D01*
X103836284Y-64525813D01*
X103812251Y-64521033D01*
X103787747Y-64521033D01*
X103763714Y-64525814D01*
X103741077Y-64535190D01*
X103727309Y-64542549D01*
X103720295Y-64544677D01*
X103706860Y-64546000D01*
X103393140Y-64546000D01*
X103379705Y-64544677D01*
X103372691Y-64542549D01*
X103358923Y-64535190D01*
X103336284Y-64525813D01*
X103312251Y-64521033D01*
X103287747Y-64521033D01*
X103263714Y-64525814D01*
X103241077Y-64535190D01*
X103227309Y-64542549D01*
X103220295Y-64544677D01*
X103206860Y-64546000D01*
X102893140Y-64546000D01*
X102879705Y-64544677D01*
X102872691Y-64542549D01*
X102858923Y-64535190D01*
X102836284Y-64525813D01*
X102812251Y-64521033D01*
X102787747Y-64521033D01*
X102763714Y-64525814D01*
X102741077Y-64535190D01*
X102727309Y-64542549D01*
X102720295Y-64544677D01*
X102706860Y-64546000D01*
X102393140Y-64546000D01*
X102379705Y-64544677D01*
X102372691Y-64542549D01*
X102358923Y-64535190D01*
X102336284Y-64525813D01*
X102312251Y-64521033D01*
X102287747Y-64521033D01*
X102263714Y-64525814D01*
X102241077Y-64535190D01*
X102227309Y-64542549D01*
X102220295Y-64544677D01*
X102206860Y-64546000D01*
X101893140Y-64546000D01*
X101879705Y-64544677D01*
X101872691Y-64542549D01*
X101858923Y-64535190D01*
X101836284Y-64525813D01*
X101812251Y-64521033D01*
X101787747Y-64521033D01*
X101763714Y-64525814D01*
X101741077Y-64535190D01*
X101727309Y-64542549D01*
X101720295Y-64544677D01*
X101706860Y-64546000D01*
X101393140Y-64546000D01*
X101379705Y-64544677D01*
X101372691Y-64542549D01*
X101358923Y-64535190D01*
X101336284Y-64525813D01*
X101312251Y-64521033D01*
X101287747Y-64521033D01*
X101263714Y-64525814D01*
X101241077Y-64535190D01*
X101227309Y-64542549D01*
X101220295Y-64544677D01*
X101206860Y-64546000D01*
X100893140Y-64546000D01*
X100879705Y-64544677D01*
X100872690Y-64542549D01*
X100866224Y-64539092D01*
X100860558Y-64534442D01*
X100855908Y-64528776D01*
X100852451Y-64522310D01*
X100850323Y-64515295D01*
X100849000Y-64501860D01*
X100849000Y-62988140D01*
X100850323Y-62974705D01*
X100852451Y-62967690D01*
X100855908Y-62961224D01*
X100860558Y-62955558D01*
X100866224Y-62950908D01*
X100872690Y-62947451D01*
X100879705Y-62945323D01*
X100893140Y-62944000D01*
X101206860Y-62944000D01*
X101220295Y-62945323D01*
X101220295Y-62945323D01*
G37*
G36*
X98126000Y-63821000D02*
G01*
X97274000Y-63821000D01*
X97274000Y-62919000D01*
X98126000Y-62919000D01*
X98126000Y-63821000D01*
X98126000Y-63821000D01*
G37*
G36*
X111126000Y-63251000D02*
G01*
X110274000Y-63251000D01*
X110274000Y-62349000D01*
X111126000Y-62349000D01*
X111126000Y-63251000D01*
X111126000Y-63251000D01*
G37*
G36*
X106745295Y-58620323D02*
G01*
X106752310Y-58622451D01*
X106758776Y-58625908D01*
X106764442Y-58630558D01*
X106769092Y-58636224D01*
X106772549Y-58642690D01*
X106774677Y-58649705D01*
X106776000Y-58663140D01*
X106776000Y-58976860D01*
X106774677Y-58990295D01*
X106772549Y-58997309D01*
X106765190Y-59011077D01*
X106755813Y-59033716D01*
X106751033Y-59057749D01*
X106751033Y-59082253D01*
X106755814Y-59106286D01*
X106765190Y-59128923D01*
X106772549Y-59142691D01*
X106774677Y-59149705D01*
X106776000Y-59163140D01*
X106776000Y-59476860D01*
X106774677Y-59490295D01*
X106772549Y-59497309D01*
X106765190Y-59511077D01*
X106755813Y-59533716D01*
X106751033Y-59557749D01*
X106751033Y-59582253D01*
X106755814Y-59606286D01*
X106765190Y-59628923D01*
X106772549Y-59642691D01*
X106774677Y-59649705D01*
X106776000Y-59663140D01*
X106776000Y-59976860D01*
X106774677Y-59990295D01*
X106772549Y-59997309D01*
X106765190Y-60011077D01*
X106755813Y-60033716D01*
X106751033Y-60057749D01*
X106751033Y-60082253D01*
X106755814Y-60106286D01*
X106765190Y-60128923D01*
X106772549Y-60142691D01*
X106774677Y-60149705D01*
X106776000Y-60163140D01*
X106776000Y-60476860D01*
X106774677Y-60490295D01*
X106772549Y-60497309D01*
X106765190Y-60511077D01*
X106755813Y-60533716D01*
X106751033Y-60557749D01*
X106751033Y-60582253D01*
X106755814Y-60606286D01*
X106765190Y-60628923D01*
X106772549Y-60642691D01*
X106774677Y-60649705D01*
X106776000Y-60663140D01*
X106776000Y-60976860D01*
X106774677Y-60990295D01*
X106772549Y-60997309D01*
X106765190Y-61011077D01*
X106755813Y-61033716D01*
X106751033Y-61057749D01*
X106751033Y-61082253D01*
X106755814Y-61106286D01*
X106765190Y-61128923D01*
X106772549Y-61142691D01*
X106774677Y-61149705D01*
X106776000Y-61163140D01*
X106776000Y-61476860D01*
X106774677Y-61490295D01*
X106772549Y-61497309D01*
X106765190Y-61511077D01*
X106755813Y-61533716D01*
X106751033Y-61557749D01*
X106751033Y-61582253D01*
X106755814Y-61606286D01*
X106765190Y-61628923D01*
X106772549Y-61642691D01*
X106774677Y-61649705D01*
X106776000Y-61663140D01*
X106776000Y-61976860D01*
X106774677Y-61990295D01*
X106772549Y-61997309D01*
X106765190Y-62011077D01*
X106755813Y-62033716D01*
X106751033Y-62057749D01*
X106751033Y-62082253D01*
X106755814Y-62106286D01*
X106765190Y-62128923D01*
X106772549Y-62142691D01*
X106774677Y-62149705D01*
X106776000Y-62163140D01*
X106776000Y-62476860D01*
X106774677Y-62490295D01*
X106772549Y-62497310D01*
X106769092Y-62503776D01*
X106764442Y-62509442D01*
X106758776Y-62514092D01*
X106752310Y-62517549D01*
X106745295Y-62519677D01*
X106731860Y-62521000D01*
X105218140Y-62521000D01*
X105204705Y-62519677D01*
X105197690Y-62517549D01*
X105191224Y-62514092D01*
X105185558Y-62509442D01*
X105180908Y-62503776D01*
X105177451Y-62497310D01*
X105175323Y-62490295D01*
X105174000Y-62476860D01*
X105174000Y-62163140D01*
X105175323Y-62149705D01*
X105177451Y-62142691D01*
X105184810Y-62128923D01*
X105194187Y-62106284D01*
X105198967Y-62082251D01*
X105198967Y-62057747D01*
X105194186Y-62033714D01*
X105184810Y-62011077D01*
X105177451Y-61997309D01*
X105175323Y-61990295D01*
X105174000Y-61976860D01*
X105174000Y-61663140D01*
X105175323Y-61649705D01*
X105177451Y-61642691D01*
X105184810Y-61628923D01*
X105194187Y-61606284D01*
X105198967Y-61582251D01*
X105198967Y-61557747D01*
X105194186Y-61533714D01*
X105184810Y-61511077D01*
X105177451Y-61497309D01*
X105175323Y-61490295D01*
X105174000Y-61476860D01*
X105174000Y-61163140D01*
X105175323Y-61149705D01*
X105177451Y-61142691D01*
X105184810Y-61128923D01*
X105194187Y-61106284D01*
X105198967Y-61082251D01*
X105198967Y-61057747D01*
X105194186Y-61033714D01*
X105184810Y-61011077D01*
X105177451Y-60997309D01*
X105175323Y-60990295D01*
X105174000Y-60976860D01*
X105174000Y-60663140D01*
X105175323Y-60649705D01*
X105177451Y-60642691D01*
X105184810Y-60628923D01*
X105194187Y-60606284D01*
X105198967Y-60582251D01*
X105198967Y-60557747D01*
X105194186Y-60533714D01*
X105184810Y-60511077D01*
X105177451Y-60497309D01*
X105175323Y-60490295D01*
X105174000Y-60476860D01*
X105174000Y-60163140D01*
X105175323Y-60149705D01*
X105177451Y-60142691D01*
X105184810Y-60128923D01*
X105194187Y-60106284D01*
X105198967Y-60082251D01*
X105198967Y-60057747D01*
X105194186Y-60033714D01*
X105184810Y-60011077D01*
X105177451Y-59997309D01*
X105175323Y-59990295D01*
X105174000Y-59976860D01*
X105174000Y-59663140D01*
X105175323Y-59649705D01*
X105177451Y-59642691D01*
X105184810Y-59628923D01*
X105194187Y-59606284D01*
X105198967Y-59582251D01*
X105198967Y-59557747D01*
X105194186Y-59533714D01*
X105184810Y-59511077D01*
X105177451Y-59497309D01*
X105175323Y-59490295D01*
X105174000Y-59476860D01*
X105174000Y-59163140D01*
X105175323Y-59149705D01*
X105177451Y-59142691D01*
X105184810Y-59128923D01*
X105194187Y-59106284D01*
X105198967Y-59082251D01*
X105198967Y-59057747D01*
X105194186Y-59033714D01*
X105184810Y-59011077D01*
X105177451Y-58997309D01*
X105175323Y-58990295D01*
X105174000Y-58976860D01*
X105174000Y-58663140D01*
X105175323Y-58649705D01*
X105177451Y-58642690D01*
X105180908Y-58636224D01*
X105185558Y-58630558D01*
X105191224Y-58625908D01*
X105197690Y-58622451D01*
X105204705Y-58620323D01*
X105218140Y-58619000D01*
X106731860Y-58619000D01*
X106745295Y-58620323D01*
X106745295Y-58620323D01*
G37*
G36*
X100395295Y-58620323D02*
G01*
X100402310Y-58622451D01*
X100408776Y-58625908D01*
X100414442Y-58630558D01*
X100419092Y-58636224D01*
X100422549Y-58642690D01*
X100424677Y-58649705D01*
X100426000Y-58663140D01*
X100426000Y-58976860D01*
X100424677Y-58990295D01*
X100422549Y-58997309D01*
X100415190Y-59011077D01*
X100405813Y-59033716D01*
X100401033Y-59057749D01*
X100401033Y-59082253D01*
X100405814Y-59106286D01*
X100415190Y-59128923D01*
X100422549Y-59142691D01*
X100424677Y-59149705D01*
X100426000Y-59163140D01*
X100426000Y-59476860D01*
X100424677Y-59490295D01*
X100422549Y-59497309D01*
X100415190Y-59511077D01*
X100405813Y-59533716D01*
X100401033Y-59557749D01*
X100401033Y-59582253D01*
X100405814Y-59606286D01*
X100415190Y-59628923D01*
X100422549Y-59642691D01*
X100424677Y-59649705D01*
X100426000Y-59663140D01*
X100426000Y-59976860D01*
X100424677Y-59990295D01*
X100422549Y-59997309D01*
X100415190Y-60011077D01*
X100405813Y-60033716D01*
X100401033Y-60057749D01*
X100401033Y-60082253D01*
X100405814Y-60106286D01*
X100415190Y-60128923D01*
X100422549Y-60142691D01*
X100424677Y-60149705D01*
X100426000Y-60163140D01*
X100426000Y-60476860D01*
X100424677Y-60490295D01*
X100422549Y-60497309D01*
X100415190Y-60511077D01*
X100405813Y-60533716D01*
X100401033Y-60557749D01*
X100401033Y-60582253D01*
X100405814Y-60606286D01*
X100415190Y-60628923D01*
X100422549Y-60642691D01*
X100424677Y-60649705D01*
X100426000Y-60663140D01*
X100426000Y-60976860D01*
X100424677Y-60990295D01*
X100422549Y-60997309D01*
X100415190Y-61011077D01*
X100405813Y-61033716D01*
X100401033Y-61057749D01*
X100401033Y-61082253D01*
X100405814Y-61106286D01*
X100415190Y-61128923D01*
X100422549Y-61142691D01*
X100424677Y-61149705D01*
X100426000Y-61163140D01*
X100426000Y-61476860D01*
X100424677Y-61490295D01*
X100422549Y-61497309D01*
X100415190Y-61511077D01*
X100405813Y-61533716D01*
X100401033Y-61557749D01*
X100401033Y-61582253D01*
X100405814Y-61606286D01*
X100415190Y-61628923D01*
X100422549Y-61642691D01*
X100424677Y-61649705D01*
X100426000Y-61663140D01*
X100426000Y-61976860D01*
X100424677Y-61990295D01*
X100422549Y-61997309D01*
X100415190Y-62011077D01*
X100405813Y-62033716D01*
X100401033Y-62057749D01*
X100401033Y-62082253D01*
X100405814Y-62106286D01*
X100415190Y-62128923D01*
X100422549Y-62142691D01*
X100424677Y-62149705D01*
X100426000Y-62163140D01*
X100426000Y-62476860D01*
X100424677Y-62490295D01*
X100422549Y-62497310D01*
X100419092Y-62503776D01*
X100414442Y-62509442D01*
X100408776Y-62514092D01*
X100402310Y-62517549D01*
X100395295Y-62519677D01*
X100381860Y-62521000D01*
X98868140Y-62521000D01*
X98854705Y-62519677D01*
X98847690Y-62517549D01*
X98841224Y-62514092D01*
X98835558Y-62509442D01*
X98830908Y-62503776D01*
X98827451Y-62497310D01*
X98825323Y-62490295D01*
X98824000Y-62476860D01*
X98824000Y-62163140D01*
X98825323Y-62149705D01*
X98827451Y-62142691D01*
X98834810Y-62128923D01*
X98844187Y-62106284D01*
X98848967Y-62082251D01*
X98848967Y-62057747D01*
X98844186Y-62033714D01*
X98834810Y-62011077D01*
X98827451Y-61997309D01*
X98825323Y-61990295D01*
X98824000Y-61976860D01*
X98824000Y-61663140D01*
X98825323Y-61649705D01*
X98827451Y-61642691D01*
X98834810Y-61628923D01*
X98844187Y-61606284D01*
X98848967Y-61582251D01*
X98848967Y-61557747D01*
X98844186Y-61533714D01*
X98834810Y-61511077D01*
X98827451Y-61497309D01*
X98825323Y-61490295D01*
X98824000Y-61476860D01*
X98824000Y-61163140D01*
X98825323Y-61149705D01*
X98827451Y-61142691D01*
X98834810Y-61128923D01*
X98844187Y-61106284D01*
X98848967Y-61082251D01*
X98848967Y-61057747D01*
X98844186Y-61033714D01*
X98834810Y-61011077D01*
X98827451Y-60997309D01*
X98825323Y-60990295D01*
X98824000Y-60976860D01*
X98824000Y-60663140D01*
X98825323Y-60649705D01*
X98827451Y-60642691D01*
X98834810Y-60628923D01*
X98844187Y-60606284D01*
X98848967Y-60582251D01*
X98848967Y-60557747D01*
X98844186Y-60533714D01*
X98834810Y-60511077D01*
X98827451Y-60497309D01*
X98825323Y-60490295D01*
X98824000Y-60476860D01*
X98824000Y-60163140D01*
X98825323Y-60149705D01*
X98827451Y-60142691D01*
X98834810Y-60128923D01*
X98844187Y-60106284D01*
X98848967Y-60082251D01*
X98848967Y-60057747D01*
X98844186Y-60033714D01*
X98834810Y-60011077D01*
X98827451Y-59997309D01*
X98825323Y-59990295D01*
X98824000Y-59976860D01*
X98824000Y-59663140D01*
X98825323Y-59649705D01*
X98827451Y-59642691D01*
X98834810Y-59628923D01*
X98844187Y-59606284D01*
X98848967Y-59582251D01*
X98848967Y-59557747D01*
X98844186Y-59533714D01*
X98834810Y-59511077D01*
X98827451Y-59497309D01*
X98825323Y-59490295D01*
X98824000Y-59476860D01*
X98824000Y-59163140D01*
X98825323Y-59149705D01*
X98827451Y-59142691D01*
X98834810Y-59128923D01*
X98844187Y-59106284D01*
X98848967Y-59082251D01*
X98848967Y-59057747D01*
X98844186Y-59033714D01*
X98834810Y-59011077D01*
X98827451Y-58997309D01*
X98825323Y-58990295D01*
X98824000Y-58976860D01*
X98824000Y-58663140D01*
X98825323Y-58649705D01*
X98827451Y-58642690D01*
X98830908Y-58636224D01*
X98835558Y-58630558D01*
X98841224Y-58625908D01*
X98847690Y-58622451D01*
X98854705Y-58620323D01*
X98868140Y-58619000D01*
X100381860Y-58619000D01*
X100395295Y-58620323D01*
X100395295Y-58620323D01*
G37*
G36*
X98126000Y-62321000D02*
G01*
X97274000Y-62321000D01*
X97274000Y-61419000D01*
X98126000Y-61419000D01*
X98126000Y-62321000D01*
X98126000Y-62321000D01*
G37*
G36*
X108226000Y-62221000D02*
G01*
X107374000Y-62221000D01*
X107374000Y-61319000D01*
X108226000Y-61319000D01*
X108226000Y-62221000D01*
X108226000Y-62221000D01*
G37*
G36*
X111126000Y-61751000D02*
G01*
X110274000Y-61751000D01*
X110274000Y-60849000D01*
X111126000Y-60849000D01*
X111126000Y-61751000D01*
X111126000Y-61751000D01*
G37*
G36*
X108226000Y-60721000D02*
G01*
X107374000Y-60721000D01*
X107374000Y-59819000D01*
X108226000Y-59819000D01*
X108226000Y-60721000D01*
X108226000Y-60721000D01*
G37*
G36*
X111126000Y-60051000D02*
G01*
X110274000Y-60051000D01*
X110274000Y-59149000D01*
X111126000Y-59149000D01*
X111126000Y-60051000D01*
X111126000Y-60051000D01*
G37*
G36*
X158889943Y-54066248D02*
G01*
X159445189Y-54296238D01*
X159693347Y-54462052D01*
X159944899Y-54630134D01*
X160369866Y-55055101D01*
X160518440Y-55277458D01*
X160703762Y-55554811D01*
X160933752Y-56110057D01*
X161051000Y-56699501D01*
X161051000Y-57300499D01*
X160933752Y-57889943D01*
X160703762Y-58445189D01*
X160617693Y-58574000D01*
X160369866Y-58944899D01*
X159944899Y-59369866D01*
X159811560Y-59458960D01*
X159445189Y-59703762D01*
X158889943Y-59933752D01*
X158300499Y-60051000D01*
X157699501Y-60051000D01*
X157110057Y-59933752D01*
X156554811Y-59703762D01*
X156188440Y-59458960D01*
X156055101Y-59369866D01*
X155630134Y-58944899D01*
X155382307Y-58574000D01*
X155296238Y-58445189D01*
X155066248Y-57889943D01*
X154949000Y-57300499D01*
X154949000Y-56699501D01*
X155066248Y-56110057D01*
X155296238Y-55554811D01*
X155481560Y-55277458D01*
X155630134Y-55055101D01*
X156055101Y-54630134D01*
X156306653Y-54462052D01*
X156554811Y-54296238D01*
X157110057Y-54066248D01*
X157699501Y-53949000D01*
X158300499Y-53949000D01*
X158889943Y-54066248D01*
X158889943Y-54066248D01*
G37*
G36*
X130889943Y-54066248D02*
G01*
X131445189Y-54296238D01*
X131693347Y-54462052D01*
X131944899Y-54630134D01*
X132369866Y-55055101D01*
X132518440Y-55277458D01*
X132703762Y-55554811D01*
X132933752Y-56110057D01*
X133051000Y-56699501D01*
X133051000Y-57300499D01*
X132933752Y-57889943D01*
X132703762Y-58445189D01*
X132617693Y-58574000D01*
X132369866Y-58944899D01*
X131944899Y-59369866D01*
X131811560Y-59458960D01*
X131445189Y-59703762D01*
X130889943Y-59933752D01*
X130300499Y-60051000D01*
X129699501Y-60051000D01*
X129110057Y-59933752D01*
X128554811Y-59703762D01*
X128188440Y-59458960D01*
X128055101Y-59369866D01*
X127630134Y-58944899D01*
X127382307Y-58574000D01*
X127296238Y-58445189D01*
X127066248Y-57889943D01*
X126949000Y-57300499D01*
X126949000Y-56699501D01*
X127066248Y-56110057D01*
X127296238Y-55554811D01*
X127481560Y-55277458D01*
X127630134Y-55055101D01*
X128055101Y-54630134D01*
X128306653Y-54462052D01*
X128554811Y-54296238D01*
X129110057Y-54066248D01*
X129699501Y-53949000D01*
X130300499Y-53949000D01*
X130889943Y-54066248D01*
X130889943Y-54066248D01*
G37*
G36*
X98201000Y-59671000D02*
G01*
X97199000Y-59671000D01*
X97199000Y-59069000D01*
X98201000Y-59069000D01*
X98201000Y-59671000D01*
X98201000Y-59671000D01*
G37*
G36*
X111126000Y-58551000D02*
G01*
X110274000Y-58551000D01*
X110274000Y-57649000D01*
X111126000Y-57649000D01*
X111126000Y-58551000D01*
X111126000Y-58551000D01*
G37*
G36*
X101220295Y-56595323D02*
G01*
X101227309Y-56597451D01*
X101241077Y-56604810D01*
X101263716Y-56614187D01*
X101287749Y-56618967D01*
X101312253Y-56618967D01*
X101336286Y-56614186D01*
X101358923Y-56604810D01*
X101372691Y-56597451D01*
X101379705Y-56595323D01*
X101393140Y-56594000D01*
X101706860Y-56594000D01*
X101720295Y-56595323D01*
X101727309Y-56597451D01*
X101741077Y-56604810D01*
X101763716Y-56614187D01*
X101787749Y-56618967D01*
X101812253Y-56618967D01*
X101836286Y-56614186D01*
X101858923Y-56604810D01*
X101872691Y-56597451D01*
X101879705Y-56595323D01*
X101893140Y-56594000D01*
X102206860Y-56594000D01*
X102220295Y-56595323D01*
X102227309Y-56597451D01*
X102241077Y-56604810D01*
X102263716Y-56614187D01*
X102287749Y-56618967D01*
X102312253Y-56618967D01*
X102336286Y-56614186D01*
X102358923Y-56604810D01*
X102372691Y-56597451D01*
X102379705Y-56595323D01*
X102393140Y-56594000D01*
X102706860Y-56594000D01*
X102720295Y-56595323D01*
X102727309Y-56597451D01*
X102741077Y-56604810D01*
X102763716Y-56614187D01*
X102787749Y-56618967D01*
X102812253Y-56618967D01*
X102836286Y-56614186D01*
X102858923Y-56604810D01*
X102872691Y-56597451D01*
X102879705Y-56595323D01*
X102893140Y-56594000D01*
X103206860Y-56594000D01*
X103220295Y-56595323D01*
X103227309Y-56597451D01*
X103241077Y-56604810D01*
X103263716Y-56614187D01*
X103287749Y-56618967D01*
X103312253Y-56618967D01*
X103336286Y-56614186D01*
X103358923Y-56604810D01*
X103372691Y-56597451D01*
X103379705Y-56595323D01*
X103393140Y-56594000D01*
X103706860Y-56594000D01*
X103720295Y-56595323D01*
X103727309Y-56597451D01*
X103741077Y-56604810D01*
X103763716Y-56614187D01*
X103787749Y-56618967D01*
X103812253Y-56618967D01*
X103836286Y-56614186D01*
X103858923Y-56604810D01*
X103872691Y-56597451D01*
X103879705Y-56595323D01*
X103893140Y-56594000D01*
X104206860Y-56594000D01*
X104220295Y-56595323D01*
X104227309Y-56597451D01*
X104241077Y-56604810D01*
X104263716Y-56614187D01*
X104287749Y-56618967D01*
X104312253Y-56618967D01*
X104336286Y-56614186D01*
X104358923Y-56604810D01*
X104372691Y-56597451D01*
X104379705Y-56595323D01*
X104393140Y-56594000D01*
X104706860Y-56594000D01*
X104720295Y-56595323D01*
X104727310Y-56597451D01*
X104733776Y-56600908D01*
X104739442Y-56605558D01*
X104744092Y-56611224D01*
X104747549Y-56617690D01*
X104749677Y-56624705D01*
X104751000Y-56638140D01*
X104751000Y-58151860D01*
X104749677Y-58165295D01*
X104747549Y-58172310D01*
X104744092Y-58178776D01*
X104739442Y-58184442D01*
X104733776Y-58189092D01*
X104727310Y-58192549D01*
X104720295Y-58194677D01*
X104706860Y-58196000D01*
X104393140Y-58196000D01*
X104379705Y-58194677D01*
X104372691Y-58192549D01*
X104358923Y-58185190D01*
X104336284Y-58175813D01*
X104312251Y-58171033D01*
X104287747Y-58171033D01*
X104263714Y-58175814D01*
X104241077Y-58185190D01*
X104227309Y-58192549D01*
X104220295Y-58194677D01*
X104206860Y-58196000D01*
X103893140Y-58196000D01*
X103879705Y-58194677D01*
X103872691Y-58192549D01*
X103858923Y-58185190D01*
X103836284Y-58175813D01*
X103812251Y-58171033D01*
X103787747Y-58171033D01*
X103763714Y-58175814D01*
X103741077Y-58185190D01*
X103727309Y-58192549D01*
X103720295Y-58194677D01*
X103706860Y-58196000D01*
X103393140Y-58196000D01*
X103379705Y-58194677D01*
X103372691Y-58192549D01*
X103358923Y-58185190D01*
X103336284Y-58175813D01*
X103312251Y-58171033D01*
X103287747Y-58171033D01*
X103263714Y-58175814D01*
X103241077Y-58185190D01*
X103227309Y-58192549D01*
X103220295Y-58194677D01*
X103206860Y-58196000D01*
X102893140Y-58196000D01*
X102879705Y-58194677D01*
X102872691Y-58192549D01*
X102858923Y-58185190D01*
X102836284Y-58175813D01*
X102812251Y-58171033D01*
X102787747Y-58171033D01*
X102763714Y-58175814D01*
X102741077Y-58185190D01*
X102727309Y-58192549D01*
X102720295Y-58194677D01*
X102706860Y-58196000D01*
X102393140Y-58196000D01*
X102379705Y-58194677D01*
X102372691Y-58192549D01*
X102358923Y-58185190D01*
X102336284Y-58175813D01*
X102312251Y-58171033D01*
X102287747Y-58171033D01*
X102263714Y-58175814D01*
X102241077Y-58185190D01*
X102227309Y-58192549D01*
X102220295Y-58194677D01*
X102206860Y-58196000D01*
X101893140Y-58196000D01*
X101879705Y-58194677D01*
X101872691Y-58192549D01*
X101858923Y-58185190D01*
X101836284Y-58175813D01*
X101812251Y-58171033D01*
X101787747Y-58171033D01*
X101763714Y-58175814D01*
X101741077Y-58185190D01*
X101727309Y-58192549D01*
X101720295Y-58194677D01*
X101706860Y-58196000D01*
X101393140Y-58196000D01*
X101379705Y-58194677D01*
X101372691Y-58192549D01*
X101358923Y-58185190D01*
X101336284Y-58175813D01*
X101312251Y-58171033D01*
X101287747Y-58171033D01*
X101263714Y-58175814D01*
X101241077Y-58185190D01*
X101227309Y-58192549D01*
X101220295Y-58194677D01*
X101206860Y-58196000D01*
X100893140Y-58196000D01*
X100879705Y-58194677D01*
X100872690Y-58192549D01*
X100866224Y-58189092D01*
X100860558Y-58184442D01*
X100855908Y-58178776D01*
X100852451Y-58172310D01*
X100850323Y-58165295D01*
X100849000Y-58151860D01*
X100849000Y-56638140D01*
X100850323Y-56624705D01*
X100852451Y-56617690D01*
X100855908Y-56611224D01*
X100860558Y-56605558D01*
X100866224Y-56600908D01*
X100872690Y-56597451D01*
X100879705Y-56595323D01*
X100893140Y-56594000D01*
X101206860Y-56594000D01*
X101220295Y-56595323D01*
X101220295Y-56595323D01*
G37*
G36*
X98201000Y-58171000D02*
G01*
X97199000Y-58171000D01*
X97199000Y-57569000D01*
X98201000Y-57569000D01*
X98201000Y-58171000D01*
X98201000Y-58171000D01*
G37*
G36*
X141960721Y-55870174D02*
G01*
X142060995Y-55911709D01*
X142060996Y-55911710D01*
X142151242Y-55972010D01*
X142227990Y-56048758D01*
X142227991Y-56048760D01*
X142288291Y-56139005D01*
X142329826Y-56239279D01*
X142351000Y-56345730D01*
X142351000Y-56454270D01*
X142329826Y-56560721D01*
X142288291Y-56660995D01*
X142265904Y-56694500D01*
X142227990Y-56751242D01*
X142151242Y-56827990D01*
X142105812Y-56858345D01*
X142060995Y-56888291D01*
X141960721Y-56929826D01*
X141854270Y-56951000D01*
X141745730Y-56951000D01*
X141639279Y-56929826D01*
X141539005Y-56888291D01*
X141494188Y-56858345D01*
X141448758Y-56827990D01*
X141372010Y-56751242D01*
X141334096Y-56694500D01*
X141311709Y-56660995D01*
X141270174Y-56560721D01*
X141249000Y-56454270D01*
X141249000Y-56345730D01*
X141270174Y-56239279D01*
X141311709Y-56139005D01*
X141372009Y-56048760D01*
X141372010Y-56048758D01*
X141448758Y-55972010D01*
X141539004Y-55911710D01*
X141539005Y-55911709D01*
X141639279Y-55870174D01*
X141745730Y-55849000D01*
X141854270Y-55849000D01*
X141960721Y-55870174D01*
X141960721Y-55870174D01*
G37*
G36*
X146360721Y-55870174D02*
G01*
X146460995Y-55911709D01*
X146460996Y-55911710D01*
X146551242Y-55972010D01*
X146627990Y-56048758D01*
X146627991Y-56048760D01*
X146688291Y-56139005D01*
X146729826Y-56239279D01*
X146751000Y-56345730D01*
X146751000Y-56454270D01*
X146729826Y-56560721D01*
X146688291Y-56660995D01*
X146665904Y-56694500D01*
X146627990Y-56751242D01*
X146551242Y-56827990D01*
X146505812Y-56858345D01*
X146460995Y-56888291D01*
X146360721Y-56929826D01*
X146254270Y-56951000D01*
X146145730Y-56951000D01*
X146039279Y-56929826D01*
X145939005Y-56888291D01*
X145894188Y-56858345D01*
X145848758Y-56827990D01*
X145772010Y-56751242D01*
X145734096Y-56694500D01*
X145711709Y-56660995D01*
X145670174Y-56560721D01*
X145649000Y-56454270D01*
X145649000Y-56345730D01*
X145670174Y-56239279D01*
X145711709Y-56139005D01*
X145772009Y-56048760D01*
X145772010Y-56048758D01*
X145848758Y-55972010D01*
X145939004Y-55911710D01*
X145939005Y-55911709D01*
X146039279Y-55870174D01*
X146145730Y-55849000D01*
X146254270Y-55849000D01*
X146360721Y-55870174D01*
X146360721Y-55870174D01*
G37*
G36*
X114344987Y-54851524D02*
G01*
X114363730Y-54857210D01*
X114380997Y-54866439D01*
X114396138Y-54878865D01*
X114403375Y-54887683D01*
X114420702Y-54905010D01*
X114441076Y-54918623D01*
X114463715Y-54928001D01*
X114487748Y-54932781D01*
X114512252Y-54932781D01*
X114536285Y-54928001D01*
X114558924Y-54918623D01*
X114579299Y-54905009D01*
X114596625Y-54887683D01*
X114603862Y-54878865D01*
X114619003Y-54866439D01*
X114636270Y-54857210D01*
X114655013Y-54851524D01*
X114680640Y-54849000D01*
X115119360Y-54849000D01*
X115144987Y-54851524D01*
X115163730Y-54857210D01*
X115180997Y-54866439D01*
X115196138Y-54878865D01*
X115203375Y-54887683D01*
X115220702Y-54905010D01*
X115241076Y-54918623D01*
X115263715Y-54928001D01*
X115287748Y-54932781D01*
X115312252Y-54932781D01*
X115336285Y-54928001D01*
X115358924Y-54918623D01*
X115379299Y-54905009D01*
X115396625Y-54887683D01*
X115403862Y-54878865D01*
X115419003Y-54866439D01*
X115436270Y-54857210D01*
X115455013Y-54851524D01*
X115480640Y-54849000D01*
X115919360Y-54849000D01*
X115944987Y-54851524D01*
X115963730Y-54857210D01*
X115980997Y-54866439D01*
X115996138Y-54878865D01*
X116003375Y-54887683D01*
X116020702Y-54905010D01*
X116041076Y-54918623D01*
X116063715Y-54928001D01*
X116087748Y-54932781D01*
X116112252Y-54932781D01*
X116136285Y-54928001D01*
X116158924Y-54918623D01*
X116179299Y-54905009D01*
X116196625Y-54887683D01*
X116203862Y-54878865D01*
X116219003Y-54866439D01*
X116236270Y-54857210D01*
X116255013Y-54851524D01*
X116280640Y-54849000D01*
X116719360Y-54849000D01*
X116744987Y-54851524D01*
X116763730Y-54857210D01*
X116780997Y-54866439D01*
X116796138Y-54878865D01*
X116803375Y-54887683D01*
X116820702Y-54905010D01*
X116841076Y-54918623D01*
X116863715Y-54928001D01*
X116887748Y-54932781D01*
X116912252Y-54932781D01*
X116936285Y-54928001D01*
X116958924Y-54918623D01*
X116979299Y-54905009D01*
X116996625Y-54887683D01*
X117003862Y-54878865D01*
X117019003Y-54866439D01*
X117036270Y-54857210D01*
X117055013Y-54851524D01*
X117080640Y-54849000D01*
X117519360Y-54849000D01*
X117544987Y-54851524D01*
X117563730Y-54857210D01*
X117580997Y-54866439D01*
X117596138Y-54878865D01*
X117603375Y-54887683D01*
X117620702Y-54905010D01*
X117641076Y-54918623D01*
X117663715Y-54928001D01*
X117687748Y-54932781D01*
X117712252Y-54932781D01*
X117736285Y-54928001D01*
X117758924Y-54918623D01*
X117779299Y-54905009D01*
X117796625Y-54887683D01*
X117803862Y-54878865D01*
X117819003Y-54866439D01*
X117836270Y-54857210D01*
X117855013Y-54851524D01*
X117880640Y-54849000D01*
X118319360Y-54849000D01*
X118344987Y-54851524D01*
X118363730Y-54857210D01*
X118380997Y-54866439D01*
X118396138Y-54878865D01*
X118403375Y-54887683D01*
X118420702Y-54905010D01*
X118441076Y-54918623D01*
X118463715Y-54928001D01*
X118487748Y-54932781D01*
X118512252Y-54932781D01*
X118536285Y-54928001D01*
X118558924Y-54918623D01*
X118579299Y-54905009D01*
X118596625Y-54887683D01*
X118603862Y-54878865D01*
X118619003Y-54866439D01*
X118636270Y-54857210D01*
X118655013Y-54851524D01*
X118680640Y-54849000D01*
X119119360Y-54849000D01*
X119144987Y-54851524D01*
X119163730Y-54857210D01*
X119180997Y-54866439D01*
X119196138Y-54878865D01*
X119203375Y-54887683D01*
X119220702Y-54905010D01*
X119241076Y-54918623D01*
X119263715Y-54928001D01*
X119287748Y-54932781D01*
X119312252Y-54932781D01*
X119336285Y-54928001D01*
X119358924Y-54918623D01*
X119379299Y-54905009D01*
X119396625Y-54887683D01*
X119403862Y-54878865D01*
X119419003Y-54866439D01*
X119436270Y-54857210D01*
X119455013Y-54851524D01*
X119480640Y-54849000D01*
X119919360Y-54849000D01*
X119944987Y-54851524D01*
X119963730Y-54857210D01*
X119980997Y-54866439D01*
X119996138Y-54878865D01*
X120003375Y-54887683D01*
X120020702Y-54905010D01*
X120041076Y-54918623D01*
X120063715Y-54928001D01*
X120087748Y-54932781D01*
X120112252Y-54932781D01*
X120136285Y-54928001D01*
X120158924Y-54918623D01*
X120179299Y-54905009D01*
X120196625Y-54887683D01*
X120203862Y-54878865D01*
X120219003Y-54866439D01*
X120236270Y-54857210D01*
X120255013Y-54851524D01*
X120280640Y-54849000D01*
X120719360Y-54849000D01*
X120744987Y-54851524D01*
X120763730Y-54857210D01*
X120780997Y-54866439D01*
X120796138Y-54878865D01*
X120803375Y-54887683D01*
X120820702Y-54905010D01*
X120841076Y-54918623D01*
X120863715Y-54928001D01*
X120887748Y-54932781D01*
X120912252Y-54932781D01*
X120936285Y-54928001D01*
X120958924Y-54918623D01*
X120979299Y-54905009D01*
X120996625Y-54887683D01*
X121003862Y-54878865D01*
X121019003Y-54866439D01*
X121036270Y-54857210D01*
X121055013Y-54851524D01*
X121080640Y-54849000D01*
X121519360Y-54849000D01*
X121544987Y-54851524D01*
X121563730Y-54857210D01*
X121580997Y-54866439D01*
X121596138Y-54878865D01*
X121603375Y-54887683D01*
X121620702Y-54905010D01*
X121641076Y-54918623D01*
X121663715Y-54928001D01*
X121687748Y-54932781D01*
X121712252Y-54932781D01*
X121736285Y-54928001D01*
X121758924Y-54918623D01*
X121779299Y-54905009D01*
X121796625Y-54887683D01*
X121803862Y-54878865D01*
X121819003Y-54866439D01*
X121836270Y-54857210D01*
X121855013Y-54851524D01*
X121880640Y-54849000D01*
X122319360Y-54849000D01*
X122344987Y-54851524D01*
X122363730Y-54857210D01*
X122380997Y-54866439D01*
X122396136Y-54878864D01*
X122408561Y-54894003D01*
X122417790Y-54911270D01*
X122423476Y-54930013D01*
X122426000Y-54955640D01*
X122426000Y-56319360D01*
X122423476Y-56344987D01*
X122417790Y-56363730D01*
X122408561Y-56380997D01*
X122396136Y-56396136D01*
X122380997Y-56408561D01*
X122363730Y-56417790D01*
X122344987Y-56423476D01*
X122319360Y-56426000D01*
X121880640Y-56426000D01*
X121855013Y-56423476D01*
X121836270Y-56417790D01*
X121819003Y-56408561D01*
X121803862Y-56396135D01*
X121796625Y-56387317D01*
X121779298Y-56369990D01*
X121758924Y-56356377D01*
X121736285Y-56346999D01*
X121712252Y-56342219D01*
X121687748Y-56342219D01*
X121663715Y-56346999D01*
X121641076Y-56356377D01*
X121620701Y-56369991D01*
X121603375Y-56387317D01*
X121596138Y-56396135D01*
X121580997Y-56408561D01*
X121563730Y-56417790D01*
X121544987Y-56423476D01*
X121519360Y-56426000D01*
X121080640Y-56426000D01*
X121055013Y-56423476D01*
X121036270Y-56417790D01*
X121019003Y-56408561D01*
X121003862Y-56396135D01*
X120996625Y-56387317D01*
X120979298Y-56369990D01*
X120958924Y-56356377D01*
X120936285Y-56346999D01*
X120912252Y-56342219D01*
X120887748Y-56342219D01*
X120863715Y-56346999D01*
X120841076Y-56356377D01*
X120820701Y-56369991D01*
X120803375Y-56387317D01*
X120796138Y-56396135D01*
X120780997Y-56408561D01*
X120763730Y-56417790D01*
X120744987Y-56423476D01*
X120719360Y-56426000D01*
X120280640Y-56426000D01*
X120255013Y-56423476D01*
X120236270Y-56417790D01*
X120219003Y-56408561D01*
X120203862Y-56396135D01*
X120196625Y-56387317D01*
X120179298Y-56369990D01*
X120158924Y-56356377D01*
X120136285Y-56346999D01*
X120112252Y-56342219D01*
X120087748Y-56342219D01*
X120063715Y-56346999D01*
X120041076Y-56356377D01*
X120020701Y-56369991D01*
X120003375Y-56387317D01*
X119996138Y-56396135D01*
X119980997Y-56408561D01*
X119963730Y-56417790D01*
X119944987Y-56423476D01*
X119919360Y-56426000D01*
X119480640Y-56426000D01*
X119455013Y-56423476D01*
X119436270Y-56417790D01*
X119419003Y-56408561D01*
X119403862Y-56396135D01*
X119396625Y-56387317D01*
X119379298Y-56369990D01*
X119358924Y-56356377D01*
X119336285Y-56346999D01*
X119312252Y-56342219D01*
X119287748Y-56342219D01*
X119263715Y-56346999D01*
X119241076Y-56356377D01*
X119220701Y-56369991D01*
X119203375Y-56387317D01*
X119196138Y-56396135D01*
X119180997Y-56408561D01*
X119163730Y-56417790D01*
X119144987Y-56423476D01*
X119119360Y-56426000D01*
X118680640Y-56426000D01*
X118655013Y-56423476D01*
X118636270Y-56417790D01*
X118619003Y-56408561D01*
X118603862Y-56396135D01*
X118596625Y-56387317D01*
X118579298Y-56369990D01*
X118558924Y-56356377D01*
X118536285Y-56346999D01*
X118512252Y-56342219D01*
X118487748Y-56342219D01*
X118463715Y-56346999D01*
X118441076Y-56356377D01*
X118420701Y-56369991D01*
X118403375Y-56387317D01*
X118396138Y-56396135D01*
X118380997Y-56408561D01*
X118363730Y-56417790D01*
X118344987Y-56423476D01*
X118319360Y-56426000D01*
X117880640Y-56426000D01*
X117855013Y-56423476D01*
X117836270Y-56417790D01*
X117819003Y-56408561D01*
X117803862Y-56396135D01*
X117796625Y-56387317D01*
X117779298Y-56369990D01*
X117758924Y-56356377D01*
X117736285Y-56346999D01*
X117712252Y-56342219D01*
X117687748Y-56342219D01*
X117663715Y-56346999D01*
X117641076Y-56356377D01*
X117620701Y-56369991D01*
X117603375Y-56387317D01*
X117596138Y-56396135D01*
X117580997Y-56408561D01*
X117563730Y-56417790D01*
X117544987Y-56423476D01*
X117519360Y-56426000D01*
X117080640Y-56426000D01*
X117055013Y-56423476D01*
X117036270Y-56417790D01*
X117019003Y-56408561D01*
X117003862Y-56396135D01*
X116996625Y-56387317D01*
X116979298Y-56369990D01*
X116958924Y-56356377D01*
X116936285Y-56346999D01*
X116912252Y-56342219D01*
X116887748Y-56342219D01*
X116863715Y-56346999D01*
X116841076Y-56356377D01*
X116820701Y-56369991D01*
X116803375Y-56387317D01*
X116796138Y-56396135D01*
X116780997Y-56408561D01*
X116763730Y-56417790D01*
X116744987Y-56423476D01*
X116719360Y-56426000D01*
X116280640Y-56426000D01*
X116255013Y-56423476D01*
X116236270Y-56417790D01*
X116219003Y-56408561D01*
X116203862Y-56396135D01*
X116196625Y-56387317D01*
X116179298Y-56369990D01*
X116158924Y-56356377D01*
X116136285Y-56346999D01*
X116112252Y-56342219D01*
X116087748Y-56342219D01*
X116063715Y-56346999D01*
X116041076Y-56356377D01*
X116020701Y-56369991D01*
X116003375Y-56387317D01*
X115996138Y-56396135D01*
X115980997Y-56408561D01*
X115963730Y-56417790D01*
X115944987Y-56423476D01*
X115919360Y-56426000D01*
X115480640Y-56426000D01*
X115455013Y-56423476D01*
X115436270Y-56417790D01*
X115419003Y-56408561D01*
X115403862Y-56396135D01*
X115396625Y-56387317D01*
X115379298Y-56369990D01*
X115358924Y-56356377D01*
X115336285Y-56346999D01*
X115312252Y-56342219D01*
X115287748Y-56342219D01*
X115263715Y-56346999D01*
X115241076Y-56356377D01*
X115220701Y-56369991D01*
X115203375Y-56387317D01*
X115196138Y-56396135D01*
X115180997Y-56408561D01*
X115163730Y-56417790D01*
X115144987Y-56423476D01*
X115119360Y-56426000D01*
X114680640Y-56426000D01*
X114655013Y-56423476D01*
X114636270Y-56417790D01*
X114619003Y-56408561D01*
X114603862Y-56396135D01*
X114596625Y-56387317D01*
X114579298Y-56369990D01*
X114558924Y-56356377D01*
X114536285Y-56346999D01*
X114512252Y-56342219D01*
X114487748Y-56342219D01*
X114463715Y-56346999D01*
X114441076Y-56356377D01*
X114420701Y-56369991D01*
X114403375Y-56387317D01*
X114396138Y-56396135D01*
X114380997Y-56408561D01*
X114363730Y-56417790D01*
X114344987Y-56423476D01*
X114319360Y-56426000D01*
X113880640Y-56426000D01*
X113855013Y-56423476D01*
X113836270Y-56417790D01*
X113819003Y-56408561D01*
X113803864Y-56396136D01*
X113791439Y-56380997D01*
X113782210Y-56363730D01*
X113776524Y-56344987D01*
X113774000Y-56319360D01*
X113774000Y-54955640D01*
X113776524Y-54930013D01*
X113782210Y-54911270D01*
X113791439Y-54894003D01*
X113803864Y-54878864D01*
X113819003Y-54866439D01*
X113836270Y-54857210D01*
X113855013Y-54851524D01*
X113880640Y-54849000D01*
X114319360Y-54849000D01*
X114344987Y-54851524D01*
X114344987Y-54851524D01*
G37*
G36*
X124726000Y-56101000D02*
G01*
X123874000Y-56101000D01*
X123874000Y-55199000D01*
X124726000Y-55199000D01*
X124726000Y-56101000D01*
X124726000Y-56101000D01*
G37*
G36*
X124726000Y-54601000D02*
G01*
X123874000Y-54601000D01*
X123874000Y-53699000D01*
X124726000Y-53699000D01*
X124726000Y-54601000D01*
X124726000Y-54601000D01*
G37*
M02*
