M48
; DRILL file {KiCad (5.1.4)-1} date 06/06/20 20:18:42
; FORMAT={-:-/ absolute / inch / decimal}
; #@! TF.CreationDate,2020-06-06T20:18:42+01:00
; #@! TF.GenerationSoftware,Kicad,Pcbnew,(5.1.4)-1
; #@! TF.FileFunction,Plated,1,2,PTH
FMAT,2
INCH
T1C0.0157
T2C0.0197
T3C0.0374
T4C0.1181
%
G90
G05
T1
X3.8465Y-2.2783
X3.8465Y-2.3374
X3.8465Y-2.4358
X3.8465Y-2.4949
X3.9252Y-2.6563
X3.937Y-2.7547
X3.9882Y-2.3858
X4.0219Y-2.4072
X4.0612Y-2.3797
X4.0669Y-2.3346
X4.1575Y-2.7587
X4.1575Y-2.8177
X4.1575Y-2.8856
X4.1693Y-2.6563
X4.2205Y-2.5709
X4.2441Y-2.3728
X4.2441Y-2.4319
X4.2441Y-2.6024
X4.2717Y-2.6339
X4.2913Y-2.7835
X4.2992Y-2.5118
X4.2992Y-2.6969
X4.3543Y-2.6496
X4.3583Y-2.4724
X4.4252Y-2.7835
X4.4267Y-2.2874
X4.4267Y-2.3189
X4.4267Y-2.3504
X4.4267Y-2.4449
X4.4591Y-2.6969
X4.4606Y-2.9449
X4.4843Y-2.5079
X4.502Y-2.9291
X4.5039Y-2.3819
X4.5079Y-2.5394
X4.5315Y-2.5709
X4.5551Y-2.4173
X4.561Y-2.9291
X4.5866Y-2.6363
X4.6201Y-2.9291
X4.7126Y-2.4488
X4.8504Y-2.8856
X4.8725Y-2.2559
X4.8819Y-2.6142
X5.2008Y-2.4488
T2
X6.1319Y-2.2441
X6.1578Y-2.1815
X6.1578Y-2.3067
X6.2205Y-2.1555
X6.2205Y-2.3327
X6.2831Y-2.1815
X6.2831Y-2.3067
X6.3091Y-2.2441
X5.0295Y-2.2441
X5.0555Y-2.1815
X5.0555Y-2.3067
X5.1181Y-2.1555
X5.1181Y-2.3327
X5.1807Y-2.1815
X5.1807Y-2.3067
X5.2067Y-2.2441
T3
X5.2016Y-2.5906
X5.2016Y-2.689
X5.2016Y-2.7874
X5.2016Y-2.8858
T4
X6.2205Y-2.2441
X5.1181Y-2.2441
T0
M30
